<?xml version="1.0" encoding="UTF-8" standalone="no"?>
<!DOCTYPE svg PUBLIC "-//W3C//DTD SVG 1.1//EN" "http://www.w3.org/Graphics/SVG/1.1/DTD/svg11.dtd">
<svg version="1.1" xmlns="http://www.w3.org/2000/svg" xmlns:xlink="http://www.w3.org/1999/xlink" preserveAspectRatio="xMidYMid meet" viewBox="0 0 1280 1280" width="1280" height="1280"><defs><path d="M377.93 407.28C366.55 424.05 359.43 434.53 356.59 438.72C311.38 505.36 221.6 524.39 153.24 481.83C148 478.57 134.9 470.41 113.94 457.36C128.06 436.77 136.88 423.91 140.41 418.76C188.05 349.26 284.44 334.33 350.88 386.17C354.48 388.99 363.5 396.02 377.93 407.28Z" id="a2kf8Gvmiy"></path><path d="M190.66 235.07C195 228.35 203.96 226.42 210.67 230.75C255.27 259.52 376.89 337.99 421.49 366.77C428.21 371.1 430.14 380.06 425.8 386.78C421.1 394.07 414.82 403.8 410.11 411.1C405.78 417.82 396.82 419.75 390.1 415.41C345.51 386.64 223.88 308.17 179.29 279.4C172.57 275.06 170.64 266.1 174.97 259.39C179.68 252.09 185.96 242.36 190.66 235.07Z" id="j3S6cwA4T"></path><path d="M342.01 100.65C276.47 204.37 235.51 269.19 219.12 295.12C216.71 298.94 211.66 300.08 207.84 297.66C199.35 292.3 185.13 283.31 177.73 278.63C170.91 274.32 168.88 265.31 173.18 258.49C203.05 211.22 286.42 79.3 316.68 31.41C319.91 26.3 326.67 24.77 331.78 28C339.81 33.07 356.49 43.62 364.99 48.99C368.8 51.4 369.94 56.45 367.53 60.26C364.13 65.65 355.62 79.11 342.01 100.65Z" id="bao6R5lnO"></path><path d="M513.26 570.52L971.94 1083.07L1074.03 1163.63L1097.59 1140.25L1122.5 1110.84C1127.46 1104.13 1130.56 1099.94 1131.81 1098.26C1153 1069.61 1169.23 1037.6 1179.8 1003.57C1182.28 995.59 1178.75 1006.96 1182.48 994.95C1188.94 974.14 1193.85 952.87 1197.16 931.32C1197.75 927.49 1195.41 942.7 1196.22 937.45C1198.81 920.62 1200.07 903.6 1200 886.57C1199.96 878.55 1200.02 891.07 1199.99 885.8C1199.88 859.64 1197.12 833.56 1191.77 807.95C1190.16 800.25 1193.38 815.65 1191.77 807.95C1186.41 782.35 1178.28 757.41 1167.51 733.57C1164.83 727.62 1170.12 739.35 1166.73 731.83C1158.3 713.19 1148.25 695.33 1136.69 678.46C1131.65 671.1 1132.77 672.74 1127.45 664.97C1116.83 649.49 1104.83 635 1091.6 621.68C1081.91 611.93 1084.82 614.86 1078.15 608.15C1055.01 584.87 1027.89 565.93 998.06 552.22C990.21 548.61 995.23 550.92 983.25 545.41C967.01 537.95 949.94 532.47 932.4 529.09C922.95 527.27 912.53 523.77 901.12 518.57C886.79 512.05 871.18 502.96 854.29 491.29C854.29 491.29 816.58 461.21 816.58 461.21C812.28 457.27 801.52 447.41 784.3 431.63C781.26 428.08 779.36 425.86 778.61 424.97C770.84 415.89 762.44 407.38 753.47 399.49C750.04 396.48 756.17 401.86 753.47 399.49C742.07 389.47 729.78 380.48 716.77 372.64C707 366.76 700.3 362.72 691.29 357.3C675.83 347.99 658.97 341.24 641.36 337.31C630.57 334.91 632.05 335.24 623.07 333.24C599.46 327.97 575.16 326.6 551.11 329.19C541.93 330.17 542.82 330.08 531.66 331.27C514.09 333.16 496.79 337.03 480.1 342.81C474.32 344.81 485.12 341.07 480.1 342.81C460.9 349.46 442.52 358.26 425.32 369.06C422.64 370.74 415.95 374.94 405.25 381.65L513.26 570.52Z" id="a1j3fN30Uy"></path><path d="M996.79 856.17C1042.81 909.99 1038.86 1001.75 980.14 1051.97C921.41 1102.2 830.15 1091.87 784.12 1038.05C738.1 984.24 756.74 909.65 745.28 777.37C874.19 809.2 950.77 802.36 996.79 856.17Z" id="a8HuDFZ77"></path><path d="M315.45 33.77C319.76 27.1 328.66 25.18 335.33 29.48C364.37 48.22 440.4 97.27 469.68 116.17C475.66 120.02 477.38 128 473.52 133.98C468.69 141.48 461.54 152.56 456.79 159.91C452.67 166.3 444.15 168.14 437.76 164.02C408.63 145.22 333.19 96.54 304.15 77.81C297.48 73.5 295.56 64.6 299.86 57.93C304.54 50.68 310.78 41.02 315.45 33.77Z" id="a1RvWtMKAW"></path><path d="M766.68 824.62C766.68 824.62 864.61 941.49 1060.46 1175.23L1035.02 1193.77L1003.61 1212.52C996.46 1216.15 992 1218.41 990.21 1219.32C960.09 1234.59 927.54 1244.49 894.02 1248.56C885.88 1249.55 896.22 1248.3 884.1 1249.77C863.59 1252.26 842.93 1253.21 822.27 1252.6C818.36 1252.48 832.24 1252.89 826.98 1252.74C810.84 1252.26 794.76 1250.51 778.89 1247.52C771.02 1246.04 781.5 1248.01 776.2 1247.01C751.83 1242.42 727.97 1235.42 704.97 1226.13C697.47 1223.1 709.54 1227.97 702.04 1224.94C679.04 1215.65 657.02 1204.08 636.32 1190.41C630.58 1186.62 620.49 1179.96 608.75 1172.21C607.99 1171.71 607.28 1171.14 606.62 1170.5C596.01 1160.17 579.71 1144.3 572.74 1137.51C559.98 1125.09 548.25 1111.66 537.67 1097.34C529.33 1086.05 529.86 1086.78 523.94 1078.76C505.43 1053.72 491.34 1025.7 482.29 995.91C479.67 987.31 480.5 990.02 476.63 977.29C471.69 961.06 468.08 944.45 465.83 927.63C464.95 921.03 468.42 946.99 468.22 945.51C463.71 911.76 454.51 878.79 440.91 847.57C438.79 842.69 443.83 854.27 439.44 844.18C433.35 830.2 426 816.8 417.49 804.15C414.14 799.18 405.76 786.74 392.36 766.83C389 762.9 386.9 760.44 386.06 759.46C386.06 759.46 365.8 732.25 365.8 732.25C363.23 728.26 366.74 733.71 364.67 730.5C356.87 718.39 350.11 705.64 344.48 692.39C339.95 681.76 336.17 672.85 331.98 662.99C325.28 647.24 321.1 630.54 319.57 613.5C318.59 602.51 318.57 602.28 317.75 593.05C315.7 570.21 317.42 547.19 322.81 524.91C324.94 516.13 324.94 516.14 327.5 505.53C331.44 489.25 337.27 473.49 344.86 458.56C347.53 453.33 342.72 462.77 345.05 458.2C353.78 441.03 364.39 424.89 376.69 410.07C378.62 407.75 383.44 401.94 391.15 392.64C563.56 589.21 671.32 712.07 714.42 761.21C714.42 761.21 758.62 814.44 758.62 814.44C763.8 821.02 766.49 824.42 766.68 824.62Z" id="bSr6Tv9md"></path><path d="" id="a5MFQ3Xdd4"></path><path d="M391.06 392.73L400.31 384.15L405.65 380.25L407.77 382.72L1074.63 1162.46L1054.9 1179.33C698.42 764.51 475.63 505.25 386.51 401.55C385.54 400.42 385.56 398.75 386.56 397.66C387.16 397 388.66 395.36 391.06 392.73Z" id="c7cAdMnTB3"></path><path d="M480.64 467.92L488.73 477.39L497.21 487.3L506.06 497.64L515.29 508.43L524.89 519.66L534.88 531.33L545.24 543.45L555.98 556L567.1 568.99L578.59 582.43L590.47 596.31L602.72 610.63L615.34 625.38L628.35 640.58L641.73 656.23L655.49 672.31L669.63 688.83L684.15 705.8L699.04 723.2L714.32 741.05L729.97 759.34L745.99 778.07L762.4 797.24L779.18 816.85L796.34 836.9L813.88 857.39L831.79 878.33L850.09 899.7L868.76 921.52L887.81 943.78L907.23 966.48L927.04 989.62L947.22 1013.2L967.78 1037.22L988.72 1061.69L1010.03 1086.59L1031.72 1111.94L1053.79 1137.72L1076.24 1163.95L1049.57 1183.86L1049.34 1184.03L1049.11 1184.21L1048.88 1184.39L1048.66 1184.56L1048.44 1184.73L1048.22 1184.9L1048 1185.06L1047.79 1185.22L1047.58 1185.38L1047.37 1185.54L1047.17 1185.69L1046.96 1185.85L1046.76 1186L1046.57 1186.14L1046.37 1186.29L1046.18 1186.43L1045.99 1186.57L1045.81 1186.71L1045.62 1186.84L1045.44 1186.97L1045.26 1187.1L1045.09 1187.23L1044.92 1187.35L1044.75 1187.48L1044.58 1187.6L1044.41 1187.71L1044.25 1187.83L1044.09 1187.94L1043.94 1188.05L1043.78 1188.16L1043.63 1188.26L1043.48 1188.36L1043.34 1188.46L1043.19 1188.56L1043.05 1188.66L1042.91 1188.75L1042.78 1188.84L1042.65 1188.92L1042.52 1189.01L1042.39 1189.09L1042.23 1189.19L1041.96 1189.37L1041.78 1189.48L1041.57 1189.62L1041.34 1189.77L1041.08 1189.93L1040.8 1190.11L1040.5 1190.3L1040.18 1190.51L1039.84 1190.73L1039.48 1190.95L1039.11 1191.19L1038.73 1191.43L1038.34 1191.68L1037.94 1191.94L1037.52 1192.21L1037.11 1192.47L1036.69 1192.74L1036.26 1193.02L1035.83 1193.29L1035.41 1193.56L1034.98 1193.83L1034.56 1194.1L1034.15 1194.37L1033.74 1194.63L1033.34 1194.89L1032.95 1195.14L1032.57 1195.38L1032.2 1195.62L1031.85 1195.84L1031.52 1196.06L1031.2 1196.26L1030.91 1196.45L1030.63 1196.63L1030.38 1196.79L1030.15 1196.94L1029.95 1197.07L1029.27 1197.51L1028.56 1197.97L1027.82 1198.43L1027.05 1198.92L1026.26 1199.41L1025.45 1199.91L1024.62 1200.42L1023.78 1200.94L1022.92 1201.46L1022.05 1201.99L1021.17 1202.52L1020.29 1203.05L1019.4 1203.58L1018.51 1204.11L1017.63 1204.64L1016.75 1205.17L1015.87 1205.69L1015.01 1206.2L1014.15 1206.7L1013.31 1207.2L1012.49 1207.68L1011.68 1208.15L1010.9 1208.61L1010.14 1209.05L1009.41 1209.48L1008.71 1209.89L1008.04 1210.28L1007.4 1210.65L1006.8 1211L1006.24 1211.33L1005.72 1211.63L1005.24 1211.9L1004.81 1212.15L1004.43 1212.37L1004.1 1212.56L1003.83 1212.72L1003.61 1212.84L1003.45 1212.93L1003.36 1212.99L1003.32 1213.01L1002.84 1213.25L1002.35 1213.49L1001.86 1213.73L1001.38 1213.97L1000.89 1214.21L1000.41 1214.45L999.92 1214.68L999.44 1214.92L998.96 1215.15L998.47 1215.38L997.99 1215.62L997.51 1215.85L997.03 1216.08L996.55 1216.31L996.06 1216.54L995.58 1216.77L995.1 1217L994.62 1217.23L994.14 1217.46L993.66 1217.69L993.18 1217.92L992.7 1218.15L992.22 1218.38L991.74 1218.61L991.26 1218.84L990.78 1219.07L990.31 1219.3L989.83 1219.53L989.35 1219.76L988.87 1219.99L988.39 1220.22L987.91 1220.45L987.43 1220.69L986.96 1220.92L986.48 1221.15L986 1221.39L985.52 1221.63L985.04 1221.86L984.57 1222.1L984.09 1222.34L983.86 1222.45L983.64 1222.56L983.41 1222.67L983.19 1222.78L982.96 1222.89L982.73 1223L982.5 1223.11L982.27 1223.22L982.03 1223.33L981.8 1223.44L981.56 1223.55L981.33 1223.66L981.09 1223.77L980.85 1223.88L980.62 1223.98L980.38 1224.09L980.14 1224.2L979.9 1224.31L979.65 1224.41L979.41 1224.52L979.17 1224.63L978.93 1224.74L978.68 1224.84L978.44 1224.95L978.19 1225.06L977.95 1225.17L977.7 1225.27L977.46 1225.38L977.21 1225.49L976.96 1225.6L976.72 1225.7L976.47 1225.81L976.22 1225.92L975.98 1226.03L975.73 1226.13L975.48 1226.24L975.23 1226.35L974.99 1226.46L974.74 1226.57L974.49 1226.68L974.44 1226.7L974.38 1226.73L974.32 1226.75L974.27 1226.77L974.21 1226.8L974.15 1226.82L974.09 1226.85L974.04 1226.87L973.98 1226.9L973.92 1226.92L973.86 1226.95L973.8 1226.97L973.74 1226.99L973.68 1227.02L973.62 1227.04L973.56 1227.07L973.44 1227.12L973.38 1227.14L973.32 1227.16L973.26 1227.19L973.2 1227.21L973.15 1227.24L973.09 1227.26L973.03 1227.29L972.97 1227.31L972.91 1227.33L972.85 1227.36L972.79 1227.38L972.73 1227.41L972.68 1227.43L972.62 1227.46L972.56 1227.48L972.5 1227.51L972.45 1227.53L972.39 1227.56L972.34 1227.58L972.28 1227.61L972.23 1227.63L972.17 1227.66L971.92 1227.78L971.66 1227.89L971.41 1228.01L971.16 1228.12L970.9 1228.24L970.65 1228.35L970.4 1228.46L970.15 1228.57L969.9 1228.67L969.65 1228.78L969.41 1228.88L969.16 1228.98L968.92 1229.08L968.67 1229.18L968.43 1229.28L968.19 1229.38L967.96 1229.47L967.72 1229.57L967.49 1229.66L967.26 1229.75L967.03 1229.84L966.8 1229.93L966.57 1230.01L966.35 1230.1L966.13 1230.18L965.92 1230.27L965.7 1230.35L965.49 1230.43L965.28 1230.51L965.08 1230.58L964.88 1230.66L964.68 1230.73L964.49 1230.81L964.3 1230.88L964.11 1230.95L963.93 1231.02L963.75 1231.09L963.57 1231.16L963.4 1231.22L963.23 1231.29L962.88 1231.43L962.53 1231.56L962.17 1231.7L961.81 1231.84L961.46 1231.97L961.1 1232.11L960.74 1232.24L960.39 1232.37L960.03 1232.51L959.67 1232.64L959.31 1232.77L958.95 1232.9L958.59 1233.03L958.23 1233.16L957.87 1233.29L957.51 1233.42L957.15 1233.55L956.79 1233.68L956.43 1233.8L956.07 1233.93L955.71 1234.06L955.35 1234.19L954.99 1234.31L954.63 1234.44L954.26 1234.57L953.9 1234.69L953.54 1234.82L953.18 1234.95L952.82 1235.07L952.46 1235.2L952.1 1235.32L951.73 1235.45L951.37 1235.57L951.01 1235.7L950.65 1235.83L950.29 1235.95L949.93 1236.08L949.57 1236.21L949.21 1236.33L948.85 1236.46L948.77 1236.48L948.71 1236.51L948.65 1236.53L948.59 1236.55L948.54 1236.56L948.5 1236.58L948.46 1236.59L948.43 1236.6L948.4 1236.61L948.37 1236.61L948.35 1236.62L948.33 1236.63L948.31 1236.63L948.29 1236.63L948.27 1236.64L948.26 1236.64L948.24 1236.64L948.21 1236.64L948.2 1236.65L948.18 1236.65L948.16 1236.65L948.14 1236.66L948.12 1236.66L948.09 1236.67L948.06 1236.67L948.03 1236.68L947.99 1236.69L947.95 1236.7L947.9 1236.72L947.85 1236.73L947.79 1236.75L947.72 1236.77L947.65 1236.79L947.57 1236.82L947.48 1236.85L947.38 1236.88L947.28 1236.91L947.16 1236.95L947.04 1236.99L947 1237L946.96 1237.02L946.93 1237.03L946.89 1237.04L946.85 1237.05L946.81 1237.06L946.76 1237.08L946.72 1237.09L946.68 1237.1L946.63 1237.12L946.59 1237.13L946.54 1237.14L946.49 1237.15L946.45 1237.17L946.4 1237.18L946.35 1237.2L946.3 1237.21L946.24 1237.23L946.19 1237.24L946.14 1237.26L946.08 1237.27L946.03 1237.29L945.97 1237.31L945.91 1237.32L945.85 1237.34L945.79 1237.36L945.73 1237.38L945.67 1237.4L945.61 1237.42L945.54 1237.44L945.48 1237.46L945.41 1237.48L945.35 1237.51L945.28 1237.53L945.21 1237.55L945.14 1237.58L945.07 1237.6L944.99 1237.63L944.92 1237.66L944.84 1237.68L944.75 1237.72L944.66 1237.75L944.57 1237.78L944.47 1237.82L944.37 1237.85L944.27 1237.88L944.16 1237.92L944.06 1237.95L943.95 1237.98L943.85 1238.02L943.74 1238.05L943.63 1238.08L943.51 1238.11L943.4 1238.15L943.29 1238.18L943.17 1238.21L943.06 1238.24L942.94 1238.28L942.83 1238.31L942.71 1238.34L942.59 1238.37L942.47 1238.4L942.36 1238.43L942.24 1238.46L942.12 1238.49L942.01 1238.52L941.89 1238.56L941.77 1238.58L941.66 1238.61L941.54 1238.64L941.43 1238.67L941.32 1238.7L941.21 1238.73L941.1 1238.76L940.99 1238.78L940.88 1238.81L940.77 1238.84L940.67 1238.86L940.57 1238.89L940.46 1238.92L940.35 1238.95L940.2 1238.99L940.01 1239.05L939.8 1239.12L939.55 1239.2L939.28 1239.29L938.97 1239.39L938.64 1239.5L938.28 1239.62L937.9 1239.75L937.5 1239.89L937.07 1240.03L936.62 1240.18L936.15 1240.34L935.66 1240.51L935.15 1240.68L934.62 1240.85L934.08 1241.03L933.52 1241.21L932.95 1241.4L932.36 1241.58L931.76 1241.77L931.16 1241.97L930.54 1242.16L929.91 1242.35L929.28 1242.55L928.64 1242.74L927.99 1242.93L927.34 1243.13L926.69 1243.31L926.03 1243.5L925.37 1243.68L924.72 1243.86L924.06 1244.04L923.41 1244.21L922.76 1244.38L922.11 1244.54L921.47 1244.69L920.84 1244.83L920.21 1244.97L919.99 1245.02L919.72 1245.07L919.4 1245.12L919.04 1245.18L918.63 1245.25L918.19 1245.31L917.71 1245.38L917.2 1245.46L916.65 1245.53L916.08 1245.61L915.48 1245.7L914.85 1245.78L914.21 1245.87L913.54 1245.95L912.86 1246.04L912.17 1246.13L911.47 1246.23L910.76 1246.32L910.04 1246.41L909.33 1246.5L908.61 1246.6L907.89 1246.69L907.18 1246.78L906.48 1246.87L905.79 1246.96L905.11 1247.05L904.45 1247.14L903.8 1247.22L903.18 1247.3L902.58 1247.38L902 1247.46L901.46 1247.54L900.94 1247.61L900.46 1247.68L900.01 1247.74L899.61 1247.8L899.25 1247.86L898.93 1247.91L898.65 1247.95L898.43 1247.99L898.28 1248.02L898.13 1248.05L897.99 1248.08L897.84 1248.11L897.7 1248.13L897.56 1248.16L897.43 1248.19L897.29 1248.21L897.16 1248.23L897.03 1248.26L896.9 1248.28L896.78 1248.3L896.65 1248.32L896.53 1248.34L896.41 1248.36L896.3 1248.38L896.18 1248.4L896.07 1248.42L895.96 1248.44L895.85 1248.46L895.74 1248.47L895.64 1248.49L895.53 1248.51L895.43 1248.52L895.33 1248.54L895.23 1248.55L895.13 1248.56L895.04 1248.58L894.94 1248.59L894.85 1248.6L894.76 1248.62L894.67 1248.63L894.58 1248.64L894.5 1248.65L894.41 1248.66L894.33 1248.67L894.25 1248.68L894.16 1248.69L894.08 1248.7L894.01 1248.71L893.94 1248.72L893.87 1248.73L893.81 1248.73L893.74 1248.74L893.68 1248.75L893.62 1248.76L893.56 1248.76L893.5 1248.77L893.44 1248.77L893.38 1248.78L893.32 1248.79L893.26 1248.79L893.2 1248.8L893.15 1248.8L893.09 1248.81L893.04 1248.82L892.99 1248.82L892.93 1248.82L892.88 1248.83L892.83 1248.83L892.78 1248.84L892.73 1248.84L892.68 1248.85L892.63 1248.85L892.59 1248.86L892.54 1248.86L892.5 1248.86L892.45 1248.87L892.41 1248.87L892.37 1248.87L892.32 1248.88L892.28 1248.88L892.24 1248.88L892.21 1248.88L892.17 1248.89L892.13 1248.89L892.09 1248.89L892.06 1248.89L892.02 1248.89L891.99 1248.9L891.92 1248.9L891.85 1248.9L891.78 1248.91L891.72 1248.91L891.66 1248.91L891.6 1248.91L891.54 1248.92L891.48 1248.92L891.43 1248.92L891.38 1248.92L891.33 1248.92L891.19 1248.93L891.15 1248.93L891.11 1248.93L891.07 1248.93L891.03 1248.93L890.99 1248.93L890.95 1248.94L890.91 1248.94L890.87 1248.94L890.84 1248.94L890.8 1248.94L890.76 1248.95L890.72 1248.95L890.68 1248.95L890.64 1248.95L890.6 1248.96L890.56 1248.96L890.52 1248.97L890.48 1248.97L890.44 1248.97L890.39 1248.98L890.35 1248.98L890.3 1248.99L890.25 1249L890.2 1249L890.14 1249.01L890.09 1249.02L890.07 1249.02L890.05 1249.02L890.04 1249.02L890.02 1249.02L890 1249.02L889.98 1249.02L889.95 1249.03L889.92 1249.03L889.89 1249.03L889.86 1249.03L889.82 1249.04L889.78 1249.04L889.74 1249.04L889.7 1249.05L889.65 1249.05L889.6 1249.06L889.55 1249.06L889.49 1249.06L889.44 1249.07L889.38 1249.08L889.31 1249.08L889.25 1249.09L889.18 1249.09L889.11 1249.1L889.04 1249.11L888.97 1249.12L888.89 1249.13L888.81 1249.13L888.73 1249.14L888.65 1249.15L888.56 1249.16L888.47 1249.17L888.38 1249.18L888.29 1249.2L888.19 1249.21L888.1 1249.22L888 1249.23L887.73 1249.27L887.45 1249.3L887.15 1249.34L886.83 1249.38L886.5 1249.42L886.16 1249.46L885.8 1249.51L885.42 1249.55L885.03 1249.6L884.62 1249.65L884.2 1249.7L883.76 1249.75L883.31 1249.8L882.84 1249.85L882.36 1249.91L881.86 1249.96L881.35 1250.02L880.82 1250.08L880.28 1250.14L879.73 1250.2L879.16 1250.26L878.58 1250.32L877.98 1250.38L877.37 1250.45L876.75 1250.51L876.11 1250.58L875.45 1250.65L874.79 1250.71L874.11 1250.78L873.42 1250.85L872.71 1250.92L871.99 1250.99L871.26 1251.06L870.51 1251.13L869.76 1251.2L868.98 1251.28L868.2 1251.35L867.4 1251.42L866.6 1251.5L865.77 1251.57L865.59 1251.59L865.41 1251.6L865.23 1251.62L865.05 1251.63L864.87 1251.64L864.69 1251.66L864.5 1251.67L864.32 1251.68L864.14 1251.69L863.95 1251.7L863.77 1251.71L863.58 1251.72L863.4 1251.73L863.21 1251.74L863.03 1251.75L862.84 1251.76L862.66 1251.77L862.47 1251.78L862.29 1251.79L862.1 1251.8L861.73 1251.82L861.54 1251.83L861.36 1251.84L861.17 1251.85L860.99 1251.86L860.8 1251.87L860.62 1251.88L860.43 1251.89L860.25 1251.9L860.07 1251.91L859.88 1251.92L859.7 1251.93L859.52 1251.94L859.33 1251.95L859.15 1251.97L858.97 1251.98L858.79 1251.99L858.61 1252.01L858.43 1252.02L858.2 1252.04L857.98 1252.06L857.75 1252.07L857.52 1252.09L857.29 1252.1L857.06 1252.12L856.83 1252.13L856.6 1252.14L856.36 1252.15L856.13 1252.16L855.9 1252.17L855.66 1252.18L855.43 1252.19L855.19 1252.2L854.96 1252.21L854.73 1252.22L854.49 1252.23L854.26 1252.24L854.02 1252.24L853.79 1252.25L853.56 1252.26L853.32 1252.27L853.09 1252.27L852.86 1252.28L852.63 1252.29L852.4 1252.3L852.17 1252.31L851.94 1252.31L851.71 1252.32L851.49 1252.33L851.26 1252.34L851.04 1252.35L850.82 1252.36L850.59 1252.38L850.38 1252.39L850.16 1252.4L849.94 1252.41L849.73 1252.43L849.52 1252.44L849.3 1252.46L848.51 1252.52L847.73 1252.58L846.96 1252.64L846.19 1252.7L845.44 1252.75L844.7 1252.8L843.96 1252.85L843.24 1252.9L842.53 1252.95L841.84 1253L841.16 1253.04L840.49 1253.08L839.84 1253.12L839.2 1253.16L838.58 1253.2L837.98 1253.23L837.39 1253.27L836.82 1253.3L836.27 1253.33L835.74 1253.36L835.23 1253.39L834.74 1253.41L834.28 1253.44L833.83 1253.46L833.4 1253.48L833 1253.5L832.62 1253.52L832.27 1253.54L831.94 1253.55L831.64 1253.57L831.36 1253.58L831.11 1253.59L830.88 1253.6L830.69 1253.61L830.52 1253.62L830.38 1253.62L830.27 1253.63L830.19 1253.63L830.13 1253.63L830.01 1253.64L829.91 1253.64L829.82 1253.64L829.76 1253.64L829.71 1253.65L829.67 1253.65L829.65 1253.65L829.64 1253.65L829.64 1253.66L829.65 1253.66L829.67 1253.66L829.69 1253.66L829.71 1253.67L829.74 1253.67L829.78 1253.67L829.84 1253.67L829.87 1253.68L829.89 1253.68L829.91 1253.68L829.92 1253.68L829.93 1253.68L829.92 1253.68L829.91 1253.69L829.88 1253.69L829.84 1253.69L829.78 1253.69L829.71 1253.69L829.62 1253.69L829.51 1253.69L829.38 1253.69L829.22 1253.69L829.05 1253.69L828.85 1253.69L828.62 1253.69L828.36 1253.69L828.08 1253.69L827.76 1253.69L827.41 1253.69L827.03 1253.69L827.02 1253.68L826.99 1253.68L826.93 1253.67L826.85 1253.66L826.75 1253.64L826.63 1253.62L826.48 1253.6L826.32 1253.57L826.13 1253.54L825.92 1253.51L825.7 1253.48L825.45 1253.44L825.18 1253.4L824.89 1253.36L824.58 1253.31L824.26 1253.27L823.91 1253.22L823.55 1253.17L823.16 1253.12L822.76 1253.07L822.34 1253.01L821.9 1252.96L821.45 1252.9L820.97 1252.84L820.49 1252.79L819.98 1252.73L819.46 1252.67L818.92 1252.61L818.36 1252.55L817.79 1252.48L817.2 1252.42L816.6 1252.36L815.98 1252.3L815.35 1252.24L814.7 1252.18L814.04 1252.12L813.37 1252.06L812.68 1252L811.97 1251.94L811.26 1251.88L811.2 1251.88L811.15 1251.88L811.1 1251.87L811.04 1251.87L810.99 1251.86L810.93 1251.86L810.88 1251.85L810.83 1251.84L810.77 1251.84L810.72 1251.83L810.66 1251.83L810.6 1251.82L810.55 1251.81L810.49 1251.81L810.44 1251.8L810.38 1251.8L810.33 1251.79L810.27 1251.78L810.21 1251.78L810.16 1251.77L809.99 1251.75L809.93 1251.74L809.88 1251.74L809.82 1251.73L809.77 1251.72L809.71 1251.72L809.65 1251.71L809.6 1251.7L809.54 1251.7L809.49 1251.69L809.43 1251.69L809.38 1251.68L809.32 1251.67L809.27 1251.67L809.21 1251.66L809.16 1251.66L809.1 1251.65L809.05 1251.65L809.01 1251.64L808.98 1251.64L808.95 1251.64L808.92 1251.64L808.89 1251.63L808.86 1251.63L808.83 1251.63L808.8 1251.63L808.77 1251.63L808.74 1251.62L808.71 1251.62L808.68 1251.62L808.65 1251.62L808.62 1251.62L808.59 1251.62L808.57 1251.62L808.54 1251.61L808.51 1251.61L808.48 1251.61L808.45 1251.61L808.39 1251.61L808.34 1251.61L808.31 1251.61L808.25 1251.6L808.22 1251.6L808.19 1251.6L808.16 1251.6L808.13 1251.6L808.1 1251.6L808.07 1251.6L808.04 1251.59L808.01 1251.59L807.97 1251.59L807.94 1251.59L807.91 1251.59L807.87 1251.59L807.84 1251.58L807.74 1251.58L807.64 1251.57L807.54 1251.56L807.44 1251.56L807.34 1251.55L807.24 1251.54L807.13 1251.53L807.03 1251.52L806.92 1251.51L806.82 1251.5L806.71 1251.49L806.61 1251.47L806.5 1251.46L806.4 1251.45L806.29 1251.44L806.18 1251.42L806.07 1251.41L805.97 1251.4L805.86 1251.38L805.75 1251.37L805.64 1251.36L805.53 1251.34L805.42 1251.33L805.31 1251.32L805.21 1251.3L805.1 1251.29L804.99 1251.27L804.88 1251.26L804.77 1251.25L804.66 1251.23L804.55 1251.22L804.44 1251.21L804.33 1251.2L804.22 1251.18L804.11 1251.17L804.01 1251.16L803.9 1251.15L803.79 1251.14L803.68 1251.12L803.57 1251.11L803.54 1251.11L803.51 1251.11L803.47 1251.1L803.44 1251.1L803.41 1251.1L803.38 1251.09L803.35 1251.09L803.32 1251.08L803.29 1251.08L803.27 1251.07L803.24 1251.07L803.21 1251.06L803.19 1251.06L803.16 1251.05L803.13 1251.05L803.08 1251.04L803.06 1251.03L803.03 1251.03L803.01 1251.02L802.98 1251.02L802.96 1251.01L802.93 1251.01L802.9 1251L802.88 1251L802.85 1251L802.83 1250.99L802.8 1250.99L802.77 1250.98L802.75 1250.98L802.72 1250.98L802.69 1250.97L802.66 1250.97L802.63 1250.97L802.6 1250.97L802.57 1250.96L802.54 1250.96L802.5 1250.96L802.47 1250.96L802.44 1250.96L801.68 1250.94L800.95 1250.91L800.23 1250.88L799.53 1250.84L798.85 1250.8L798.18 1250.75L797.53 1250.69L796.89 1250.63L796.27 1250.57L795.67 1250.5L795.07 1250.43L794.49 1250.36L793.92 1250.28L793.37 1250.2L792.83 1250.12L792.3 1250.04L791.78 1249.95L791.27 1249.86L790.77 1249.77L790.28 1249.68L789.8 1249.59L789.33 1249.5L788.87 1249.4L788.42 1249.31L787.98 1249.22L787.54 1249.13L787.11 1249.04L786.68 1248.95L786.26 1248.86L785.85 1248.78L785.44 1248.7L785.04 1248.62L784.64 1248.54L784.25 1248.46L783.85 1248.39L783.46 1248.33L783.08 1248.26L782.69 1248.2L782.31 1248.15L781.89 1248.1L781.85 1248.09L781.81 1248.08L781.77 1248.08L781.72 1248.07L781.68 1248.06L781.64 1248.05L781.6 1248.04L781.56 1248.04L781.51 1248.03L781.47 1248.02L781.43 1248.01L781.39 1248L781.34 1247.99L781.3 1247.98L781.26 1247.97L781.21 1247.96L781.17 1247.94L781.13 1247.93L781.09 1247.92L781.04 1247.91L781 1247.9L780.96 1247.89L780.92 1247.88L780.88 1247.87L780.83 1247.86L780.79 1247.85L780.75 1247.84L780.71 1247.83L780.67 1247.82L780.63 1247.81L780.59 1247.8L780.55 1247.79L780.51 1247.78L780.47 1247.78L780.43 1247.77L780.39 1247.76L780.36 1247.76L780.32 1247.75L780.28 1247.74L780.04 1247.71L779.8 1247.67L779.56 1247.64L779.33 1247.6L779.1 1247.56L778.87 1247.52L778.64 1247.48L778.42 1247.44L778.19 1247.4L777.97 1247.36L777.75 1247.32L777.53 1247.27L777.32 1247.23L777.1 1247.19L776.88 1247.14L776.67 1247.1L776.45 1247.05L776.24 1247L776.02 1246.96L775.8 1246.91L775.59 1246.86L775.37 1246.82L775.15 1246.77L774.93 1246.72L774.71 1246.68L774.49 1246.63L774.26 1246.58L774.03 1246.53L773.81 1246.49L773.57 1246.44L773.34 1246.39L773.1 1246.34L772.86 1246.3L772.62 1246.25L772.37 1246.2L772.12 1246.16L771.87 1246.11L771.61 1246.07L771.35 1246.02L771.08 1245.98L770.78 1245.93L770.48 1245.87L770.18 1245.82L769.87 1245.76L769.57 1245.71L769.26 1245.65L768.95 1245.59L768.65 1245.52L768.34 1245.46L768.03 1245.39L767.72 1245.33L767.41 1245.26L767.09 1245.19L766.78 1245.12L766.47 1245.05L766.16 1244.98L765.84 1244.9L765.53 1244.83L765.22 1244.76L764.9 1244.68L764.59 1244.61L764.27 1244.53L763.96 1244.46L763.64 1244.38L763.33 1244.31L763.02 1244.23L762.7 1244.15L762.39 1244.08L762.08 1244L761.77 1243.93L761.46 1243.85L761.14 1243.78L760.83 1243.71L760.52 1243.63L760.22 1243.56L759.91 1243.49L759.6 1243.42L759.29 1243.35L758.99 1243.28L758.68 1243.21L757.35 1242.92L756.01 1242.61L754.67 1242.3L753.33 1241.97L751.99 1241.64L750.65 1241.31L749.31 1240.96L747.98 1240.61L746.64 1240.25L745.3 1239.89L743.96 1239.51L742.63 1239.14L741.29 1238.75L739.96 1238.36L738.63 1237.96L737.29 1237.56L735.97 1237.15L734.64 1236.74L733.31 1236.32L731.99 1235.9L730.67 1235.47L729.35 1235.03L728.03 1234.59L726.72 1234.15L725.41 1233.7L724.1 1233.25L722.8 1232.8L721.49 1232.34L720.2 1231.87L718.9 1231.41L717.61 1230.94L716.32 1230.46L715.04 1229.99L713.76 1229.51L712.49 1229.03L711.22 1228.54L709.96 1228.06L708.7 1227.57L707.44 1227.08L706.19 1226.59L706.04 1226.53L705.9 1226.47L705.76 1226.42L705.62 1226.36L705.48 1226.31L705.35 1226.25L705.22 1226.2L705.09 1226.15L704.96 1226.1L704.83 1226.05L704.71 1226L704.59 1225.95L704.47 1225.9L704.35 1225.85L704.23 1225.8L704.12 1225.75L704 1225.71L703.89 1225.66L703.78 1225.62L703.46 1225.49L703.36 1225.45L703.26 1225.4L703.16 1225.36L703.06 1225.32L702.96 1225.28L702.87 1225.25L702.77 1225.21L702.68 1225.17L702.59 1225.13L702.5 1225.1L702.41 1225.06L702.32 1225.03L702.23 1224.99L702.15 1224.96L702.06 1224.92L701.98 1224.89L701.9 1224.86L701.82 1224.83L701.59 1224.74L701.37 1224.65L701.16 1224.57L700.96 1224.49L700.77 1224.41L700.59 1224.34L700.41 1224.27L700.25 1224.2L700.09 1224.14L699.94 1224.08L699.79 1224.01L699.66 1223.96L699.52 1223.9L699.4 1223.85L699.28 1223.79L699.16 1223.74L699.05 1223.69L698.94 1223.64L698.83 1223.59L698.72 1223.55L698.62 1223.5L698.52 1223.45L698.42 1223.41L698.32 1223.36L698.23 1223.32L698.13 1223.28L698.03 1223.23L697.93 1223.19L697.83 1223.14L697.73 1223.09L697.63 1223.05L697.52 1223L697.41 1222.95L697.3 1222.9L697.18 1222.85L697.06 1222.8L696.93 1222.74L696.8 1222.69L696.66 1222.63L696.52 1222.57L696.03 1222.37L695.55 1222.17L695.07 1221.97L694.59 1221.76L694.1 1221.56L693.62 1221.36L693.14 1221.15L692.66 1220.94L692.18 1220.74L691.7 1220.53L691.22 1220.32L690.75 1220.11L690.27 1219.9L689.79 1219.69L689.31 1219.48L688.84 1219.27L688.36 1219.06L687.88 1218.84L687.41 1218.63L686.93 1218.41L686.46 1218.2L685.98 1217.98L685.51 1217.76L685.03 1217.55L684.56 1217.33L684.09 1217.11L683.61 1216.89L683.14 1216.67L682.67 1216.45L682.2 1216.23L681.73 1216.01L681.26 1215.79L680.78 1215.56L680.31 1215.34L679.84 1215.12L679.37 1214.89L678.9 1214.67L678.43 1214.44L677.96 1214.22L677.5 1213.99L677.02 1213.76L676.54 1213.53L676.06 1213.29L675.59 1213.06L675.11 1212.82L674.64 1212.59L674.17 1212.35L673.69 1212.11L673.22 1211.88L672.75 1211.64L672.28 1211.4L671.81 1211.16L671.34 1210.91L670.87 1210.67L670.4 1210.43L669.93 1210.18L669.47 1209.94L669 1209.7L668.53 1209.45L668.07 1209.2L667.6 1208.95L667.13 1208.71L666.67 1208.46L666.2 1208.21L665.74 1207.96L665.27 1207.71L664.81 1207.46L664.35 1207.2L663.88 1206.95L663.42 1206.7L662.95 1206.44L662.49 1206.19L662.03 1205.94L661.56 1205.68L661.1 1205.42L660.64 1205.17L660.17 1204.91L659.71 1204.65L659.25 1204.39L658.78 1204.14L658.18 1203.8L657.57 1203.45L656.97 1203.11L656.36 1202.77L655.76 1202.42L655.15 1202.07L654.55 1201.73L653.95 1201.38L653.35 1201.02L652.75 1200.67L652.15 1200.32L651.55 1199.96L650.95 1199.61L650.36 1199.25L649.76 1198.89L649.17 1198.53L648.57 1198.17L647.98 1197.81L647.38 1197.44L646.79 1197.08L646.2 1196.71L645.61 1196.34L645.02 1195.98L644.43 1195.61L643.84 1195.24L643.25 1194.87L642.66 1194.49L642.07 1194.12L641.48 1193.75L640.9 1193.37L640.31 1193L639.72 1192.62L639.14 1192.24L638.55 1191.86L637.97 1191.49L637.39 1191.11L636.8 1190.72L636.22 1190.34L635.64 1189.96L635.05 1189.58L609.69 1172.87L609.61 1172.81L609.53 1172.76L609.44 1172.7L609.36 1172.65L609.28 1172.59L609.2 1172.54L609.12 1172.48L609.04 1172.43L608.96 1172.37L608.88 1172.31L608.8 1172.26L608.72 1172.2L608.64 1172.14L608.57 1172.08L608.49 1172.02L608.41 1171.97L608.33 1171.91L608.25 1171.85L608.17 1171.79L608.1 1171.73L608.02 1171.67L607.94 1171.61L607.87 1171.55L607.79 1171.49L607.71 1171.43L607.64 1171.36L607.56 1171.3L607.49 1171.24L607.41 1171.18L607.34 1171.11L607.26 1171.05L607.19 1170.99L607.11 1170.92L607.04 1170.86L606.96 1170.8L606.89 1170.73L606.82 1170.67L606.74 1170.6L606.67 1170.54L606.6 1170.47L603.05 1167.03L595.06 1159.29L585.87 1150.27L574.13 1138.9L573.12 1137.92L572.11 1136.93L571.11 1135.94L570.11 1134.95L569.12 1133.95L568.13 1132.95L567.14 1131.94L566.16 1130.93L565.19 1129.92L564.22 1128.9L563.25 1127.88L562.28 1126.85L561.33 1125.82L560.37 1124.79L559.42 1123.75L558.47 1122.71L557.53 1121.66L556.6 1120.61L555.66 1119.56L554.73 1118.5L553.81 1117.44L552.89 1116.37L551.97 1115.3L551.06 1114.23L550.16 1113.15L549.26 1112.07L548.36 1110.99L547.46 1109.9L546.58 1108.81L545.69 1107.71L544.81 1106.61L543.94 1105.51L543.07 1104.4L542.2 1103.29L541.34 1102.18L540.48 1101.06L539.63 1099.94L538.78 1098.82L537.94 1097.69L537.1 1096.56L536.65 1095.95L536.22 1095.35L535.78 1094.77L535.36 1094.19L534.95 1093.63L534.54 1093.08L534.14 1092.54L533.75 1092.01L533.37 1091.5L533 1090.99L532.64 1090.5L532.28 1090.02L531.94 1089.55L531.6 1089.09L531.27 1088.64L530.95 1088.21L530.64 1087.78L530.33 1087.37L530.04 1086.97L529.75 1086.58L529.47 1086.2L529.2 1085.83L528.94 1085.48L528.69 1085.13L528.44 1084.8L528.21 1084.48L527.98 1084.17L527.76 1083.88L527.55 1083.59L527.35 1083.31L527.15 1083.05L526.97 1082.8L526.79 1082.56L526.63 1082.33L526.47 1082.11L526.31 1081.91L526.17 1081.71L526.04 1081.53L525.91 1081.36L525.8 1081.2L525.68 1081.04L525.56 1080.88L525.44 1080.72L525.32 1080.56L525.21 1080.4L524.85 1079.91L524.73 1079.75L524.61 1079.59L524.5 1079.43L524.38 1079.27L524.26 1079.11L524.14 1078.95L524.02 1078.79L523.91 1078.62L523.79 1078.46L523.67 1078.3L523.55 1078.14L523.43 1077.98L523.31 1077.82L523.2 1077.66L523.08 1077.5L522.96 1077.33L522.84 1077.17L522.73 1077.01L522.61 1076.85L522.49 1076.69L522.37 1076.53L522.25 1076.36L522.14 1076.2L522.02 1076.04L521.9 1075.88L521.78 1075.72L521.67 1075.56L521.55 1075.39L521.43 1075.23L521.31 1075.07L521.2 1074.91L521.08 1074.75L520.92 1074.52L520.76 1074.3L520.6 1074.07L520.43 1073.85L520.27 1073.62L520.12 1073.4L519.96 1073.17L519.8 1072.95L519.64 1072.72L519.48 1072.49L519.32 1072.26L519.17 1072.04L519.01 1071.81L518.85 1071.58L518.7 1071.35L518.54 1071.13L518.38 1070.9L518.23 1070.67L518.07 1070.44L517.92 1070.21L517.76 1069.98L517.61 1069.75L517.45 1069.52L517.3 1069.3L517.14 1069.07L516.99 1068.84L516.84 1068.61L516.68 1068.38L516.53 1068.15L516.38 1067.92L516.22 1067.69L516.07 1067.46L515.92 1067.23L515.77 1067L515.61 1066.77L515.46 1066.54L515.31 1066.31L515.15 1066.08L515 1065.85L514.85 1065.62L514.72 1065.42L514.58 1065.21L514.45 1065.01L514.31 1064.8L514.18 1064.6L514.05 1064.39L513.92 1064.19L513.78 1063.98L513.65 1063.78L513.52 1063.57L513.39 1063.36L513.26 1063.16L513.13 1062.95L513 1062.74L512.87 1062.54L512.75 1062.33L512.62 1062.12L512.49 1061.92L512.36 1061.71L512.23 1061.5L512.11 1061.29L511.98 1061.08L511.85 1060.88L511.72 1060.67L511.6 1060.46L511.47 1060.25L511.34 1060.04L511.22 1059.83L511.09 1059.63L510.96 1059.42L510.84 1059.21L510.71 1059L510.58 1058.79L510.46 1058.58L510.33 1058.37L510.2 1058.17L510.07 1057.96L509.95 1057.75L509.82 1057.54L509.69 1057.33L509.5 1057.01L509.31 1056.7L509.11 1056.38L508.92 1056.06L508.73 1055.74L508.54 1055.42L508.35 1055.11L508.16 1054.79L507.98 1054.47L507.79 1054.15L507.6 1053.82L507.41 1053.5L507.23 1053.18L507.04 1052.86L506.86 1052.54L506.67 1052.22L506.49 1051.89L506.31 1051.57L506.12 1051.25L505.94 1050.92L505.76 1050.6L505.58 1050.27L505.4 1049.95L505.22 1049.63L505.04 1049.3L504.86 1048.98L504.68 1048.65L504.5 1048.33L504.32 1048L504.14 1047.67L503.96 1047.35L503.78 1047.02L503.6 1046.7L503.43 1046.37L503.25 1046.05L503.07 1045.72L502.89 1045.39L502.72 1045.07L502.54 1044.74L502.36 1044.42L502.21 1044.14L502.06 1043.86L501.91 1043.58L501.77 1043.3L501.62 1043.02L501.47 1042.74L501.32 1042.46L501.18 1042.17L501.03 1041.89L500.88 1041.61L500.74 1041.33L500.59 1041.04L500.45 1040.76L500.3 1040.48L500.16 1040.19L500.02 1039.91L499.87 1039.62L499.73 1039.34L499.59 1039.05L499.45 1038.77L499.31 1038.48L499.17 1038.2L499.02 1037.91L498.88 1037.63L498.74 1037.34L498.6 1037.05L498.46 1036.77L498.32 1036.48L498.18 1036.2L498.05 1035.91L497.91 1035.62L497.77 1035.34L497.63 1035.05L497.49 1034.77L497.35 1034.48L497.22 1034.2L497.08 1033.91L496.94 1033.63L496.8 1033.34L496.66 1033.06L496.53 1032.78L496.4 1032.5L496.27 1032.23L496.13 1031.95L496 1031.67L495.87 1031.39L495.74 1031.12L495.62 1030.84L495.49 1030.56L495.36 1030.28L495.23 1030L495.11 1029.72L494.98 1029.45L494.86 1029.17L494.73 1028.89L494.61 1028.61L494.48 1028.33L494.36 1028.05L494.24 1027.77L494.11 1027.49L493.99 1027.22L493.87 1026.94L493.75 1026.66L493.63 1026.38L493.5 1026.1L493.38 1025.82L493.26 1025.54L493.14 1025.26L493.02 1024.97L492.9 1024.69L492.78 1024.41L492.66 1024.13L492.54 1023.85L492.42 1023.57L492.3 1023.29L492.17 1023L492.05 1022.72L491.93 1022.44L491.81 1022.16L491.69 1021.87L491.61 1021.7L491.54 1021.52L491.46 1021.35L491.39 1021.17L491.32 1021L491.24 1020.82L491.17 1020.65L491.1 1020.47L491.03 1020.3L490.96 1020.12L490.88 1019.95L490.81 1019.77L490.74 1019.59L490.67 1019.42L490.6 1019.24L490.53 1019.06L490.46 1018.89L490.39 1018.71L490.32 1018.54L490.25 1018.36L490.18 1018.18L490.11 1018.01L490.04 1017.83L489.97 1017.65L489.9 1017.48L489.83 1017.3L489.76 1017.12L489.69 1016.95L489.62 1016.77L489.55 1016.59L489.49 1016.42L489.42 1016.24L489.35 1016.06L489.28 1015.88L489.21 1015.71L489.14 1015.53L489.07 1015.35L489 1015.18L488.93 1015L488.86 1014.82L488.81 1014.7L488.76 1014.58L488.71 1014.45L488.66 1014.33L488.62 1014.21L488.57 1014.09L488.52 1013.96L488.48 1013.84L488.43 1013.72L488.38 1013.59L488.34 1013.47L488.29 1013.35L488.25 1013.22L488.2 1013.1L488.16 1012.98L488.11 1012.85L488.07 1012.73L488.02 1012.6L487.98 1012.48L487.94 1012.36L487.89 1012.23L487.85 1012.11L487.8 1011.99L487.76 1011.86L487.71 1011.74L487.67 1011.61L487.62 1011.49L487.58 1011.37L487.54 1011.24L487.49 1011.12L487.45 1011L487.4 1010.87L487.36 1010.75L487.31 1010.62L487.27 1010.5L487.22 1010.38L487.17 1010.25L487.13 1010.13L487.08 1010L487.04 1009.88L486.95 1009.66L486.87 1009.43L486.78 1009.21L486.7 1008.98L486.62 1008.76L486.54 1008.53L486.46 1008.31L486.38 1008.08L486.3 1007.86L486.21 1007.63L486.14 1007.4L486.06 1007.18L485.98 1006.95L485.9 1006.72L485.82 1006.5L485.74 1006.27L485.66 1006.04L485.58 1005.81L485.51 1005.59L485.43 1005.36L485.35 1005.13L485.27 1004.9L485.2 1004.67L485.12 1004.45L485.04 1004.22L484.97 1003.99L484.89 1003.76L484.81 1003.54L484.74 1003.31L484.66 1003.08L484.58 1002.85L484.51 1002.62L484.43 1002.4L484.35 1002.17L484.28 1001.94L484.2 1001.71L484.12 1001.49L484.05 1001.26L483.97 1001.03L483.89 1000.81L483.84 1000.63L483.78 1000.46L483.72 1000.28L483.66 1000.11L483.6 999.93L483.55 999.76L483.49 999.58L483.43 999.4L483.38 999.23L483.32 999.05L483.27 998.87L483.21 998.7L483.16 998.52L483.1 998.34L483.05 998.17L483 997.99L482.94 997.81L482.89 997.63L482.83 997.46L482.78 997.28L482.73 997.1L482.68 996.93L482.62 996.75L482.57 996.57L482.46 996.22L482.41 996.04L482.36 995.86L482.3 995.68L482.25 995.51L482.2 995.33L482.15 995.15L482.09 994.97L482.04 994.8L481.98 994.62L481.93 994.44L481.88 994.27L481.82 994.09L481.77 993.91L481.71 993.74L477.19 979.28L476.79 978L476.39 976.71L476.01 975.43L475.62 974.14L475.24 972.85L474.87 971.56L474.5 970.27L474.14 968.98L473.78 967.69L473.43 966.39L473.08 965.1L472.73 963.8L472.39 962.5L472.06 961.2L471.73 959.9L471.41 958.6L471.09 957.3L470.78 955.99L470.47 954.69L470.17 953.38L469.87 952.07L469.57 950.76L469.29 949.45L469 948.14L468.73 946.83L468.45 945.51L468.18 944.2L467.92 942.88L467.66 941.56L467.41 940.25L467.16 938.93L466.92 937.61L466.68 936.29L466.45 934.97L466.22 933.64L466 932.32L465.78 930.99L465.57 929.67L465.37 928.34L465.16 927.01L465.14 926.82L465.11 926.64L465.08 926.47L465.07 926.38L465.05 926.22L465.03 926.15L465.01 926L464.99 925.87L464.97 925.74L464.96 925.68L464.95 925.57L464.93 925.47L464.92 925.37L464.91 925.33L464.9 925.25L464.9 925.21L464.89 925.15L464.88 925.12L464.87 925.07L464.87 925.03L464.87 925.01L464.86 925L464.86 924.98L464.86 924.97L464.86 924.96L464.85 924.89L464.84 924.82L464.83 924.74L464.82 924.67L464.81 924.6L464.8 924.53L464.79 924.47L464.78 924.4L464.77 924.33L464.76 924.27L464.75 924.2L464.74 924.14L464.73 924.08L464.71 924.02L464.7 923.95L464.69 923.89L464.68 923.83L464.66 923.77L464.65 923.72L464.64 923.66L464.63 923.6L464.61 923.54L464.6 923.49L464.59 923.43L464.58 923.38L464.56 923.32L464.54 923.21L464.53 923.16L464.52 923.11L464.5 923.06L464.49 923L464.48 922.95L464.47 922.9L464.46 922.85L464.45 922.8L464.44 922.75L464.43 922.7L464.42 922.65L464.41 922.6L464.4 922.54L464.39 922.48L464.38 922.42L464.37 922.36L464.36 922.3L464.35 922.24L464.34 922.18L464.33 922.12L464.32 922.06L464.31 922L464.31 921.94L464.3 921.88L464.29 921.83L464.28 921.77L464.27 921.71L464.26 921.59L464.25 921.54L464.24 921.48L464.23 921.42L464.22 921.36L464.22 921.3L464.21 921.25L464.2 921.19L464.19 921.13L464.18 921.07L464.17 921.01L464.16 920.95L464.15 920.89L464.14 920.83L464.13 920.78L464.12 920.72L464.11 920.66L464.1 920.6L464.09 920.54L464.08 920.47L464.07 920.41L464.05 920.35L464.04 920.29L464.03 920.23L463.97 919.97L463.91 919.71L463.85 919.46L463.8 919.21L463.75 918.97L463.69 918.73L463.64 918.5L463.59 918.27L463.54 918.04L463.49 917.82L463.44 917.6L463.4 917.39L463.35 917.18L463.31 916.97L463.26 916.77L463.22 916.57L463.18 916.37L463.13 916.17L463.09 915.98L463.01 915.61L462.97 915.43L462.93 915.25L462.89 915.07L462.86 914.89L462.82 914.72L462.78 914.55L462.74 914.38L462.71 914.21L462.67 914.05L462.63 913.88L462.6 913.72L462.56 913.56L462.53 913.4L462.49 913.24L462.46 913.08L462.42 912.92L462.39 912.77L462.35 912.61L462.31 912.46L462.29 912.35L462.27 912.24L462.24 912.14L462.22 912.03L462.19 911.93L462.17 911.82L462.15 911.72L462.12 911.61L462.1 911.51L462.08 911.4L462.03 911.19L462.01 911.09L461.98 910.99L461.96 910.88L461.94 910.78L461.92 910.67L461.89 910.57L461.87 910.47L461.84 910.36L461.82 910.26L461.8 910.15L461.77 910.05L461.75 909.94L461.72 909.84L461.7 909.73L461.67 909.63L461.65 909.52L461.62 909.41L461.6 909.31L461.57 909.2L461.54 909.09L461.52 908.98L461.49 908.87L461.46 908.76L461.44 908.65L461.41 908.54L461.38 908.43L461.35 908.32L461.32 908.2L461.28 908.06L461.24 907.92L461.21 907.77L461.17 907.62L461.13 907.47L461.09 907.32L461.05 907.17L461.02 907.02L460.98 906.86L460.94 906.71L460.9 906.55L460.86 906.39L460.82 906.22L460.78 906.06L460.74 905.89L460.7 905.72L460.66 905.55L460.61 905.37L460.57 905.2L460.53 905.02L460.48 904.84L460.43 904.66L460.39 904.47L460.34 904.28L460.29 904.09L460.24 903.9L460.19 903.7L460.14 903.51L460.09 903.31L460.03 903.1L459.98 902.9L459.92 902.69L459.87 902.47L459.81 902.26L459.75 902.04L459.69 901.82L459.62 901.6L459.56 901.37L459.49 901.14L459.42 900.9L459.39 900.78L459.35 900.66L459.32 900.53L459.28 900.4L459.25 900.27L459.22 900.14L459.18 900.01L459.15 899.87L459.11 899.74L459.08 899.6L459.05 899.46L459.01 899.32L458.98 899.18L458.95 899.04L458.91 898.9L458.88 898.76L458.84 898.61L458.81 898.46L458.77 898.32L458.74 898.17L458.7 898.02L458.66 897.87L458.63 897.72L458.59 897.56L458.55 897.41L458.51 897.26L458.47 897.1L458.43 896.95L458.39 896.79L458.35 896.63L458.31 896.47L458.26 896.31L458.22 896.15L458.17 895.99L458.13 895.83L458.08 895.67L458.03 895.51L457.98 895.34L457.93 895.18L457.88 895.01L457.72 894.5L457.55 893.99L457.39 893.48L457.24 892.97L457.08 892.45L456.92 891.94L456.76 891.43L456.6 890.92L456.45 890.41L456.29 889.9L456.14 889.39L455.98 888.88L455.83 888.37L455.68 887.86L455.52 887.35L455.37 886.83L455.21 886.32L455.06 885.81L454.91 885.31L454.75 884.8L454.6 884.29L454.44 883.78L454.29 883.27L454.13 882.76L453.97 882.25L453.82 881.74L453.66 881.24L453.5 880.73L453.34 880.22L453.18 879.72L453.02 879.21L452.86 878.7L452.7 878.2L452.53 877.69L452.37 877.19L452.2 876.68L452.03 876.18L451.86 875.67L451.69 875.17L451.52 874.67L451.48 874.55L451.44 874.44L451.4 874.32L451.36 874.21L451.32 874.1L451.28 873.98L451.24 873.87L451.2 873.75L451.16 873.64L451.13 873.53L451.05 873.3L451.01 873.19L450.97 873.07L450.93 872.96L450.89 872.85L450.85 872.73L450.81 872.62L450.77 872.5L450.74 872.39L450.7 872.28L450.66 872.16L450.62 872.05L450.58 871.94L450.54 871.82L450.5 871.71L450.46 871.59L450.42 871.48L450.38 871.37L450.34 871.25L450.3 871.14L450.26 871.03L450.22 870.91L450.18 870.8L450.13 870.68L450.09 870.57L450.05 870.46L450.01 870.34L449.97 870.23L449.93 870.11L449.88 869.99L449.84 869.87L449.79 869.75L449.75 869.62L449.7 869.5L449.66 869.38L449.61 869.26L449.57 869.13L449.52 869.01L449.48 868.89L449.43 868.76L449.39 868.64L449.34 868.52L449.3 868.39L449.25 868.27L449.21 868.14L449.16 868.02L449.12 867.9L449.07 867.77L449.03 867.65L448.98 867.52L448.94 867.4L448.89 867.28L448.85 867.15L448.8 867.03L448.75 866.91L448.71 866.78L448.66 866.66L448.62 866.54L448.57 866.41L448.52 866.29L448.47 866.17L448.43 866.04L448.38 865.92L448.33 865.8L448.28 865.67L448.23 865.55L448.18 865.43L448.13 865.31L448.08 865.18L448.04 865.08L448 864.98L447.96 864.87L447.92 864.77L447.87 864.66L447.83 864.56L447.79 864.45L447.75 864.35L447.7 864.24L447.66 864.14L447.62 864.03L447.58 863.92L447.54 863.82L447.49 863.71L447.45 863.6L447.41 863.5L447.37 863.39L447.33 863.28L447.29 863.17L447.24 863.07L447.2 862.96L447.16 862.85L447.12 862.74L447.08 862.63L447.04 862.53L447 862.42L446.95 862.31L446.91 862.2L446.87 862.09L446.83 861.99L446.79 861.88L446.75 861.77L446.71 861.66L446.67 861.55L446.63 861.45L446.5 861.12L446.46 861.02L446.42 860.91L446.41 860.87L446.39 860.83L446.38 860.79L446.36 860.75L446.35 860.71L446.34 860.67L446.32 860.64L446.31 860.6L446.3 860.56L446.28 860.52L446.27 860.48L446.26 860.44L446.25 860.4L446.23 860.36L446.22 860.32L446.2 860.25L446.18 860.21L446.17 860.17L446.16 860.13L446.15 860.09L446.13 860.05L446.12 860.01L446.11 859.97L446.1 859.94L446.08 859.9L446.07 859.86L446.06 859.82L446.04 859.78L446.03 859.74L446.02 859.71L446 859.67L445.99 859.63L445.97 859.59L445.96 859.55L445.94 859.52L445.93 859.48L445.91 859.44L445.89 859.4L445.88 859.37L445.81 859.22L445.75 859.08L445.69 858.94L445.63 858.79L445.57 858.65L445.51 858.51L445.45 858.36L445.39 858.22L445.33 858.08L445.27 857.93L445.21 857.79L445.16 857.64L445.1 857.5L445.05 857.36L444.99 857.21L444.93 857.07L444.88 856.92L444.82 856.78L444.77 856.64L444.71 856.49L444.66 856.35L444.6 856.2L444.55 856.06L444.49 855.92L444.44 855.77L444.38 855.63L444.33 855.48L444.27 855.34L444.21 855.2L444.16 855.05L444.1 854.91L444.04 854.76L443.98 854.62L443.92 854.48L443.86 854.33L443.8 854.19L443.74 854.05L443.68 853.91L443.61 853.76L443.55 853.62L443.45 853.4L443.35 853.18L443.25 852.95L443.15 852.73L443.05 852.51L442.96 852.29L442.86 852.06L442.76 851.84L442.66 851.62L442.56 851.4L442.47 851.18L442.37 850.95L442.27 850.73L442.17 850.51L442.08 850.29L441.98 850.07L441.88 849.84L441.78 849.62L441.69 849.4L441.59 849.18L441.49 848.96L441.39 848.74L441.29 848.52L441.2 848.29L441.1 848.07L441 847.85L440.9 847.63L440.8 847.41L440.7 847.19L440.6 846.97L440.49 846.75L440.39 846.53L440.29 846.32L440.19 846.1L440.08 845.88L439.98 845.66L439.87 845.44L439.77 845.22L439.66 845.01L439.55 844.79L439.55 844.78L439.54 844.77L439.53 844.75L439.53 844.74L439.52 844.71L439.51 844.69L439.49 844.65L439.48 844.63L439.47 844.6L439.45 844.55L439.43 844.5L439.42 844.48L438.94 843.37L438.47 842.26L437.98 841.16L437.49 840.05L437 838.96L436.5 837.86L435.99 836.76L435.48 835.67L434.97 834.58L434.45 833.5L433.92 832.42L433.39 831.33L432.85 830.26L432.31 829.18L431.76 828.11L431.2 827.04L430.65 825.97L430.08 824.91L429.51 823.85L428.94 822.79L428.35 821.74L427.77 820.68L427.18 819.63L426.58 818.59L425.98 817.55L425.37 816.51L424.76 815.47L424.14 814.43L423.52 813.4L422.89 812.37L422.26 811.35L421.62 810.33L420.98 809.31L420.33 808.29L419.67 807.28L419.02 806.27L418.35 805.27L417.68 804.26L417.01 803.27L416.33 802.27L410.77 794.18L405.99 787.07L402.62 781.95L398.59 776.07L396.84 773.4L396.57 773.01L396.31 772.63L396.05 772.26L395.8 771.9L395.55 771.54L395.31 771.19L395.08 770.85L394.84 770.52L394.62 770.2L394.4 769.88L394.18 769.58L393.97 769.28L393.76 768.99L393.56 768.7L393.37 768.43L393.18 768.16L392.99 767.91L392.81 767.66L392.64 767.41L392.47 767.18L392.3 766.95L392.14 766.74L391.99 766.53L391.84 766.32L391.7 766.13L391.56 765.95L391.42 765.77L391.3 765.6L391.17 765.44L391.06 765.29L390.94 765.14L390.83 765L390.73 764.88L390.64 764.76L390.54 764.64L390.46 764.54L390.37 764.44L390.3 764.36L390.23 764.28L390.16 764.2L390.03 764.07L389.91 763.93L389.79 763.8L389.67 763.67L389.55 763.54L389.43 763.42L389.32 763.29L389.21 763.17L389.11 763.05L389 762.93L388.9 762.81L388.8 762.7L388.71 762.59L388.61 762.48L388.52 762.37L388.43 762.27L388.35 762.16L388.26 762.06L388.18 761.96L388.1 761.87L388.02 761.77L387.95 761.68L387.88 761.59L387.8 761.5L387.74 761.42L387.67 761.34L387.61 761.26L387.54 761.18L387.48 761.11L387.43 761.03L387.37 760.96L387.32 760.9L387.26 760.83L387.21 760.77L387.16 760.71L387.12 760.65L387.07 760.6L387.03 760.55L386.99 760.5L386.95 760.45L386.86 760.33L386.75 760.18L386.6 759.98L386.41 759.72L386.18 759.42L385.92 759.06L385.62 758.66L385.29 758.22L384.93 757.74L384.54 757.22L384.12 756.66L383.68 756.07L383.22 755.45L382.73 754.79L382.23 754.12L381.7 753.41L381.16 752.69L380.61 751.95L380.04 751.19L379.46 750.41L378.88 749.63L378.28 748.83L377.68 748.03L377.08 747.22L376.47 746.41L375.87 745.6L375.26 744.79L374.66 743.99L374.06 743.19L373.47 742.4L372.89 741.62L372.32 740.86L371.76 740.12L371.22 739.39L370.69 738.68L370.18 738L369.69 737.35L369.21 736.72L368.77 736.12L368.64 735.96L368.51 735.79L368.39 735.62L368.27 735.45L368.14 735.29L368.02 735.12L367.9 734.96L367.78 734.79L367.67 734.63L367.55 734.47L367.44 734.31L367.33 734.16L367.22 734.01L367.11 733.86L367 733.71L366.9 733.56L366.8 733.42L366.71 733.29L366.61 733.15L366.52 733.02L366.44 732.9L366.35 732.78L366.27 732.66L366.19 732.55L366.12 732.44L366.05 732.34L365.98 732.25L365.92 732.16L365.87 732.07L365.81 731.99L365.76 731.92L365.72 731.86L365.68 731.8L365.65 731.75L365.62 731.71L365.59 731.67L365.57 731.64L365.55 731.6L365.5 731.54L365.46 731.47L365.41 731.4L365.36 731.32L365.3 731.23L365.25 731.15L365.19 731.05L365.12 730.96L365.06 730.86L364.99 730.75L364.91 730.64L364.84 730.52L364.76 730.4L364.68 730.28L364.6 730.15L364.51 730.01L364.42 729.87L364.32 729.73L364.23 729.58L364.13 729.43L364.03 729.27L363.92 729.11L363.81 728.94L363.7 728.77L363.59 728.6L363.47 728.41L363.35 728.23L363.23 728.04L363.1 727.84L362.97 727.64L362.84 727.44L362.7 727.23L362.57 727.02L362.43 726.8L362.28 726.58L362.13 726.35L361.98 726.12L361.83 725.88L361.67 725.64L361.52 725.39L360.98 724.56L360.45 723.73L359.92 722.89L359.39 722.05L358.87 721.2L358.36 720.36L357.84 719.51L357.33 718.66L356.83 717.81L356.33 716.96L355.83 716.1L355.33 715.24L354.84 714.38L354.36 713.52L353.87 712.66L353.4 711.79L352.92 710.92L352.45 710.05L351.98 709.18L351.52 708.3L351.06 707.43L350.6 706.55L350.15 705.67L349.71 704.78L349.26 703.9L348.82 703.01L348.39 702.12L347.96 701.23L347.53 700.34L347.1 699.44L346.68 698.55L346.27 697.65L345.86 696.75L345.45 695.84L345.05 694.94L344.65 694.03L344.25 693.13L343.86 692.22L343.47 691.3L343.09 690.39L342.89 689.9L342.69 689.41L342.49 688.92L342.29 688.44L342.1 687.96L341.91 687.49L341.72 687.02L341.53 686.55L341.34 686.09L341.15 685.63L340.97 685.18L340.79 684.73L340.61 684.29L340.43 683.84L340.26 683.41L340.08 682.97L339.91 682.55L339.74 682.12L339.57 681.7L339.4 681.28L339.23 680.87L339.07 680.46L338.91 680.06L338.75 679.66L338.59 679.26L338.43 678.87L338.27 678.48L338.12 678.1L337.96 677.72L337.81 677.35L337.66 676.98L337.51 676.61L337.36 676.25L337.22 675.89L337.07 675.54L336.93 675.19L336.79 674.84L336.65 674.5L336.51 674.17L336.37 673.84L336.32 673.72L336.26 673.58L336.19 673.41L336.1 673.21L336 672.99L335.89 672.74L335.77 672.46L335.64 672.17L335.5 671.85L335.36 671.5L335.2 671.14L335.03 670.76L334.86 670.36L334.68 669.94L334.49 669.5L334.3 669.04L334.1 668.57L333.9 668.09L333.69 667.59L333.48 667.08L333.26 666.55L333.04 666.01L332.82 665.47L332.6 664.91L332.37 664.34L332.15 663.77L331.92 663.19L331.7 662.6L331.47 662L331.25 661.4L331.02 660.8L330.8 660.2L330.58 659.59L330.37 658.98L330.16 658.37L329.95 657.76L329.75 657.15L329.55 656.55L329.36 655.94L329.17 655.34L329.05 654.96L328.93 654.56L328.79 654.14L328.65 653.7L328.51 653.25L328.36 652.79L328.21 652.32L328.05 651.83L327.88 651.34L327.72 650.84L327.55 650.34L327.38 649.83L327.21 649.31L327.03 648.8L326.86 648.28L326.68 647.76L326.51 647.25L326.34 646.74L326.16 646.24L325.99 645.74L325.82 645.25L325.66 644.77L325.5 644.3L325.34 643.84L325.18 643.39L325.03 642.96L324.89 642.55L324.75 642.15L324.62 641.77L324.5 641.41L324.38 641.07L324.27 640.76L324.17 640.47L324.07 640.21L323.99 639.97L323.91 639.76L323.85 639.58L323.8 639.43L323.76 639.32L323.73 639.24L323.59 638.86L323.47 638.47L323.34 638.06L323.22 637.64L323.1 637.2L322.98 636.75L322.87 636.28L322.76 635.8L322.66 635.3L322.56 634.8L322.46 634.29L322.36 633.77L322.27 633.24L322.18 632.7L322.09 632.16L322 631.61L321.92 631.05L321.84 630.5L321.76 629.94L321.68 629.38L321.61 628.81L321.53 628.25L321.46 627.69L321.39 627.13L321.32 626.58L321.26 626.02L321.19 625.48L321.13 624.93L321.07 624.4L321.01 623.87L320.95 623.35L320.89 622.83L320.83 622.33L320.77 621.84L320.72 621.36L320.66 620.89L320.61 620.44L320.55 620L320.5 619.58L320.45 619.17L320.34 618.37L320.24 617.58L320.14 616.81L320.05 616.05L319.96 615.31L319.87 614.57L319.79 613.85L319.71 613.13L319.63 612.43L319.56 611.73L319.49 611.05L319.42 610.37L319.36 609.69L319.3 609.03L319.24 608.36L319.18 607.7L319.12 607.05L319.06 606.4L319.01 605.75L318.96 605.1L318.9 604.45L318.85 603.8L318.8 603.15L318.75 602.5L318.7 601.85L318.65 601.19L318.6 600.53L318.54 599.87L318.49 599.2L318.44 598.52L318.38 597.84L318.33 597.15L318.27 596.45L318.21 595.74L318.15 595.02L318.09 594.29L318.03 593.55L317.96 592.8L317.89 592.04L317.82 591.26L317.65 589.42L317.51 587.57L317.38 585.73L317.27 583.89L317.17 582.05L317.09 580.21L317.03 578.36L316.99 576.52L316.96 574.68L316.95 572.83L316.96 570.99L316.98 569.15L317.03 567.31L317.08 565.47L317.16 563.63L317.25 561.79L317.36 559.95L317.48 558.12L317.63 556.28L317.79 554.45L317.96 552.62L318.16 550.79L318.37 548.96L318.59 547.13L318.84 545.31L319.1 543.49L319.37 541.66L319.67 539.85L319.98 538.03L320.31 536.22L320.65 534.41L321.01 532.6L321.39 530.8L321.79 529L322.2 527.2L322.62 525.4L323.07 523.61L323.53 521.82L324.01 520.04L324.5 518.26L324.67 517.69L324.82 517.13L324.98 516.58L325.13 516.04L325.28 515.51L325.43 514.99L325.57 514.48L325.71 513.99L325.84 513.5L325.98 513.02L326.11 512.56L326.23 512.1L326.36 511.66L326.48 511.22L326.6 510.8L326.71 510.39L326.82 509.99L326.93 509.6L327.03 509.22L327.13 508.85L327.23 508.49L327.33 508.14L327.42 507.8L327.51 507.47L327.59 507.16L327.67 506.85L327.75 506.55L327.83 506.27L327.9 505.99L327.97 505.73L328.04 505.48L328.1 505.23L328.16 505L328.22 504.78L328.27 504.57L328.32 504.37L328.37 504.18L328.41 504L328.45 503.83L328.49 503.68L328.68 502.88L328.87 502.1L329.05 501.34L329.23 500.6L329.4 499.88L329.57 499.17L329.74 498.49L329.91 497.82L330.07 497.17L330.23 496.53L330.39 495.91L330.55 495.3L330.7 494.71L330.85 494.13L331.01 493.57L331.15 493.01L331.3 492.47L331.45 491.94L331.6 491.42L331.74 490.91L331.89 490.41L332.03 489.91L332.17 489.43L332.32 488.95L332.46 488.48L332.61 488.01L332.75 487.55L332.9 487.09L333.05 486.64L333.19 486.2L333.34 485.75L333.5 485.31L333.65 484.87L333.8 484.43L333.96 483.99L334.12 483.55L334.28 483.11L334.44 482.67L334.61 482.23L334.78 481.78L334.86 481.56L334.95 481.34L335.03 481.12L335.11 480.9L335.19 480.68L335.28 480.46L335.36 480.25L335.44 480.03L335.52 479.81L335.61 479.6L335.69 479.38L335.78 479.16L335.86 478.94L335.95 478.72L336.03 478.49L336.12 478.26L336.21 478.04L336.31 477.8L336.4 477.57L336.5 477.33L336.59 477.08L336.69 476.84L336.8 476.58L336.9 476.33L337.01 476.07L337.12 475.8L337.24 475.52L337.36 475.24L337.48 474.96L337.6 474.67L337.73 474.37L337.86 474.06L338 473.74L338.14 473.42L338.29 473.09L338.44 472.75L338.6 472.4L338.76 472.04L338.92 471.68L339.09 471.3L339.14 471.2L339.23 471.02L339.35 470.77L339.51 470.45L339.7 470.07L339.92 469.64L340.16 469.15L340.43 468.61L340.73 468.02L341.05 467.39L341.38 466.71L341.74 466.01L342.11 465.27L342.49 464.51L342.89 463.72L343.3 462.91L343.71 462.09L344.13 461.26L344.56 460.41L344.98 459.57L345.41 458.72L345.83 457.88L346.25 457.05L346.67 456.22L347.08 455.42L347.47 454.63L347.86 453.87L348.23 453.13L348.58 452.42L348.92 451.75L349.24 451.12L349.53 450.53L349.81 449.99L350.05 449.5L350.27 449.06L350.46 448.69L350.62 448.37L350.74 448.12L350.83 447.94L350.88 447.84L351.11 447.36L351.32 446.91L351.51 446.5L351.68 446.13L351.84 445.8L351.98 445.5L352.11 445.23L352.23 444.99L352.33 444.77L352.42 444.59L352.5 444.42L352.57 444.29L352.63 444.17L352.68 444.07L352.73 443.99L352.76 443.93L352.79 443.88L352.82 443.84L352.84 443.81L352.85 443.8L352.86 443.79L352.87 443.79L352.88 443.79L352.89 443.79L352.9 443.8L352.9 443.8L352.91 443.8L352.93 443.8L352.94 443.79L352.96 443.78L352.98 443.75L353.01 443.71L353.05 443.67L353.09 443.6L353.14 443.52L353.2 443.43L353.27 443.31L353.35 443.17L353.44 443.01L353.54 442.83L354.2 441.63L354.87 440.44L355.55 439.24L356.25 438.04L356.95 436.84L357.67 435.64L358.39 434.44L359.13 433.24L359.87 432.04L360.63 430.84L361.39 429.64L362.17 428.45L362.95 427.26L363.74 426.07L364.54 424.88L365.35 423.7L366.17 422.52L367 421.34L367.83 420.17L368.67 419.01L369.52 417.85L370.38 416.69L371.24 415.55L372.11 414.4L372.99 413.27L373.87 412.15L374.76 411.03L375.65 409.92L376.55 408.82L377.46 407.72L378.37 406.64L379.28 405.57L380.2 404.51L381.13 403.46L382.06 402.42L382.99 401.39L383.93 400.37L384.87 399.37L385.81 398.38L386.76 397.4L386.87 397.28L386.99 397.17L387.1 397.06L387.21 396.96L387.32 396.85L387.44 396.75L387.55 396.65L387.66 396.55L387.78 396.45L387.89 396.35L388 396.25L388.12 396.16L388.23 396.06L388.34 395.97L388.46 395.87L388.57 395.78L388.69 395.69L388.8 395.6L388.92 395.51L389.03 395.41L389.15 395.32L389.26 395.23L389.38 395.14L389.49 395.05L389.61 394.96L389.73 394.86L389.84 394.77L389.96 394.68L390.07 394.58L390.19 394.49L390.3 394.39L390.42 394.29L390.53 394.2L390.65 394.1L390.76 394L390.88 393.89L391 393.79L391.11 393.68L391.23 393.58L391.34 393.47L391.5 393.31L391.67 393.15L391.84 392.98L392.03 392.79L392.23 392.59L392.44 392.38L392.66 392.17L392.88 391.94L393.12 391.69L393.37 391.44L393.63 391.18L393.89 390.9L394.17 390.62L394.46 390.32L394.75 390.01L395.06 389.7L395.38 389.37L395.71 389.03L396.04 388.67L396.39 388.31L396.75 387.94L397.11 387.55L397.49 387.15L397.88 386.75L398.27 386.33L398.68 385.9L399.1 385.46L399.52 385.01L399.96 384.54L400.41 384.07L400.86 383.58L401.33 383.09L401.8 382.58L402.29 382.06L402.79 381.53L403.29 380.99L403.81 380.44L404.33 379.88L404.87 379.3L405.42 378.72L472.92 458.9L480.64 467.92ZM390.06 411.19L388.88 413.59L387.71 416L386.56 418.41L385.43 420.83L384.31 423.26L383.2 425.69L382.11 428.13L381.04 430.58L379.98 433.03L378.94 435.49L377.91 437.96L376.9 440.43L375.9 442.91L374.92 445.39L373.96 447.88L373.01 450.38L372.08 452.88L371.16 455.39L370.26 457.91L369.37 460.42L368.5 462.95L367.64 465.48L366.81 468.02L365.98 470.56L365.18 473.1L364.39 475.65L363.61 478.21L362.85 480.77L362.11 483.34L361.38 485.91L360.67 488.49L359.98 491.07L359.3 493.65L358.64 496.24L357.99 498.84L357.36 501.43L356.75 504.04L356.15 506.65L355.57 509.26L355.14 511.24L354.73 513.22L354.33 515.21L353.94 517.2L353.57 519.19L353.22 521.19L352.88 523.18L352.55 525.18L352.24 527.18L351.94 529.18L351.66 531.19L351.39 533.19L351.14 535.2L350.9 537.21L350.67 539.22L350.46 541.23L350.26 543.25L350.08 545.26L349.91 547.28L349.76 549.29L349.62 551.31L349.5 553.33L349.39 555.35L349.29 557.37L349.21 559.39L349.15 561.42L349.1 563.44L349.06 565.46L349.04 567.49L349.03 569.51L349.04 571.53L349.06 573.56L349.09 575.58L349.14 577.61L349.21 579.63L349.29 581.66L349.38 583.68L349.49 585.7L349.61 587.73L349.75 589.75L349.96 592.47L350.2 595.18L350.47 597.9L350.77 600.6L351.1 603.3L351.45 606L351.84 608.69L352.25 611.38L352.69 614.06L353.17 616.73L353.67 619.4L354.19 622.06L354.75 624.72L355.34 627.37L355.95 630.01L356.6 632.65L357.27 635.27L357.97 637.89L358.69 640.51L359.45 643.11L360.23 645.71L361.05 648.29L361.89 650.87L362.75 653.44L363.65 656L364.57 658.55L365.52 661.1L366.5 663.63L367.51 666.15L368.54 668.66L369.6 671.16L370.69 673.65L371.8 676.13L372.95 678.59L374.12 681.05L375.31 683.49L376.54 685.93L377.79 688.35L379.06 690.75L380.37 693.15L384.18 700.06L385.51 702.46L386.86 704.86L388.22 707.24L389.6 709.62L390.99 711.99L392.39 714.36L393.81 716.71L395.24 719.06L396.68 721.39L398.14 723.72L399.61 726.04L401.09 728.35L402.59 730.65L404.09 732.95L405.62 735.23L407.15 737.51L408.7 739.77L410.26 742.03L411.84 744.28L413.43 746.52L415.03 748.75L416.64 750.97L418.27 753.18L419.91 755.38L421.56 757.57L423.22 759.76L424.9 761.93L426.59 764.09L428.29 766.25L430.01 768.39L431.73 770.53L433.47 772.65L435.23 774.77L436.99 776.87L438.77 778.97L440.56 781.05L442.36 783.13L444.17 785.19L446 787.25L447.84 789.29L455.24 797.48L457.42 800.19L459.1 802.31L460.74 804.46L462.35 806.63L463.92 808.81L465.47 811.02L466.97 813.26L468.44 815.51L469.88 817.78L471.28 820.07L472.65 822.38L473.98 824.71L475.27 827.06L476.53 829.42L477.76 831.81L478.94 834.21L480.09 836.63L481.21 839.06L482.29 841.51L483.33 843.98L484.34 846.46L485.3 848.95L486.23 851.46L487.13 853.98L487.98 856.52L488.8 859.07L489.58 861.63L490.32 864.21L491.03 866.79L491.69 869.39L492.32 872L492.91 874.62L493.46 877.25L493.97 879.89L494.44 882.54L494.87 885.19L495.27 887.86L495.62 890.53L495.93 893.21L496.21 895.9L496.44 898.59L495.76 889.93L495.88 891.49L496.02 893.05L496.16 894.61L496.32 896.17L496.48 897.73L496.64 899.29L496.82 900.85L497.01 902.41L497.2 903.96L497.4 905.51L497.61 907.07L497.83 908.62L498.06 910.17L498.29 911.72L498.53 913.27L498.78 914.81L499.04 916.36L499.31 917.9L499.59 919.44L499.87 920.98L500.16 922.52L500.46 924.06L500.77 925.59L501.08 927.13L501.41 928.66L501.74 930.19L502.08 931.72L502.43 933.25L502.79 934.77L503.15 936.3L503.52 937.82L503.9 939.34L504.29 940.86L504.69 942.37L505.1 943.89L505.51 945.4L505.93 946.91L506.36 948.42L506.8 949.93L507.24 951.43L520.33 995.22L523.2 1002.27L524.59 1005.65L526.01 1009.01L527.47 1012.36L528.95 1015.69L530.47 1019.01L532.02 1022.31L533.6 1025.6L535.21 1028.87L536.85 1032.12L538.52 1035.36L540.23 1038.58L541.96 1041.78L543.72 1044.97L545.52 1048.14L547.34 1051.29L549.19 1054.42L551.08 1057.53L552.99 1060.63L554.93 1063.71L556.9 1066.77L558.9 1069.8L560.93 1072.82L562.99 1075.83L565.08 1078.81L567.2 1081.77L569.34 1084.71L571.51 1087.63L573.71 1090.53L575.94 1093.41L578.2 1096.27L580.49 1099.11L582.8 1101.92L585.14 1104.72L587.51 1107.49L589.9 1110.24L592.32 1112.97L594.77 1115.68L597.25 1118.36L599.75 1121.02L602.28 1123.66L603.87 1125.29L605.47 1126.91L607.09 1128.5L608.73 1130.09L610.37 1131.65L612.03 1133.2L613.71 1134.74L615.4 1136.26L617.1 1137.76L618.82 1139.25L620.54 1140.72L622.29 1142.17L624.04 1143.61L625.81 1145.03L627.59 1146.44L629.38 1147.83L631.19 1149.2L633.01 1150.56L634.84 1151.9L636.68 1153.22L638.54 1154.52L640.4 1155.81L642.28 1157.08L644.17 1158.33L646.07 1159.57L647.99 1160.79L649.91 1161.99L651.85 1163.17L653.8 1164.34L655.75 1165.49L657.72 1166.62L659.7 1167.73L661.69 1168.82L663.69 1169.9L665.71 1170.96L667.73 1172L669.76 1173.02L671.8 1174.02L673.85 1175L675.92 1175.97L677.83 1176.85L679.75 1177.71L681.67 1178.56L683.6 1179.4L685.54 1180.23L687.48 1181.05L689.42 1181.85L691.37 1182.63L693.32 1183.41L695.28 1184.17L697.25 1184.92L699.22 1185.66L701.19 1186.38L703.17 1187.09L705.15 1187.79L707.14 1188.47L709.13 1189.15L711.12 1189.8L713.12 1190.45L715.13 1191.08L717.13 1191.7L719.15 1192.31L721.16 1192.9L723.18 1193.48L725.2 1194.05L727.23 1194.6L729.26 1195.14L731.3 1195.66L733.34 1196.18L735.38 1196.68L737.42 1197.16L739.47 1197.64L741.52 1198.1L743.58 1198.54L745.64 1198.98L747.7 1199.4L749.76 1199.8L751.83 1200.2L753.9 1200.57L755.97 1200.94L788.12 1206.5L797.74 1207.02L801.06 1207.2L804.38 1207.35L807.69 1207.49L811.01 1207.61L814.33 1207.72L817.65 1207.8L820.97 1207.88L824.28 1207.93L827.6 1207.97L830.92 1207.99L834.24 1207.99L837.56 1207.98L840.87 1207.95L844.19 1207.9L847.51 1207.84L850.82 1207.75L854.14 1207.66L857.45 1207.54L860.77 1207.41L864.08 1207.26L867.4 1207.1L870.71 1206.92L874.02 1206.72L877.33 1206.5L880.64 1206.27L883.95 1206.02L887.25 1205.75L890.56 1205.47L893.86 1205.17L897.17 1204.85L900.47 1204.52L903.77 1204.17L907.06 1203.8L910.36 1203.42L913.18 1203.08L914.67 1202.8L916.3 1202.49L917.93 1202.17L919.56 1201.85L921.19 1201.52L922.81 1201.18L924.44 1200.84L926.06 1200.49L927.68 1200.13L929.3 1199.76L930.92 1199.39L932.54 1199.02L934.16 1198.63L935.77 1198.24L937.38 1197.84L938.99 1197.44L940.6 1197.03L942.21 1196.61L943.82 1196.19L945.42 1195.76L947.02 1195.32L948.62 1194.88L950.22 1194.43L951.82 1193.97L953.41 1193.51L955.01 1193.04L956.6 1192.56L958.19 1192.08L959.78 1191.59L961.36 1191.09L962.95 1190.59L964.53 1190.08L1002.92 1177.62L1063.78 1149.77L480.64 467.92L480.64 467.92L472.92 458.9L472.92 458.9L405.65 380.24L391.26 408.8L390.06 411.19ZM923.53 1201.72L920.24 1202.17L916.95 1202.6L913.66 1203.02L913.18 1203.08L913.03 1203.1L911.4 1203.4L909.76 1203.69L908.13 1203.98L906.49 1204.25L904.85 1204.52L903.21 1204.79L901.57 1205.04L899.92 1205.29L930.1 1200.77L926.82 1201.25L923.53 1201.72Z" id="i5m030eKId"></path><path d="M881.82 923.33C887.51 918.47 896.05 919.14 900.91 924.82C916.36 942.89 953.9 986.78 969.35 1004.85C974.21 1010.53 973.54 1019.08 967.86 1023.94C962.37 1028.63 956.2 1033.91 950.71 1038.6C945.03 1043.46 936.48 1042.79 931.62 1037.11C916.18 1019.05 878.63 975.15 863.19 957.09C858.33 951.41 858.99 942.86 864.67 938C870.16 933.31 876.34 928.03 881.82 923.33Z" id="a2PuJfKRwy"></path><path d="M895.19 855.79C918.94 883.55 915.67 925.37 887.91 949.11C860.15 972.85 818.34 969.59 794.59 941.83C770.85 914.07 774.11 872.25 801.87 848.51C829.64 824.77 871.45 828.03 895.19 855.79Z" id="noPl7LPYy"></path><path d="" id="e8Vo7n5F8l"></path><path d="M377.55 406.82L233.09 434.53L120.19 456.13L115.85 456.96" id="a2tBEBprL"></path><path d="M114.51 456.57L115.44 455.15L115.63 455.2L115.96 456.85L116.22 458.78L114.28 457.56L113.94 457.38L114.51 456.57Z" id="dvDQBMef1"></path><path d="" id="c1eTlyrGr8"></path></defs><g><g><g><use xlink:href="#a2kf8Gvmiy" opacity="1" fill="#84c93a" fill-opacity="1"></use></g><g><use xlink:href="#j3S6cwA4T" opacity="1" fill="#341b03" fill-opacity="1"></use></g><g><use xlink:href="#bao6R5lnO" opacity="1" fill="#341b03" fill-opacity="1"></use></g><g><use xlink:href="#a1j3fN30Uy" opacity="1" fill="#fcebd3" fill-opacity="1"></use><g><use xlink:href="#a1j3fN30Uy" opacity="1" fill-opacity="0" stroke="#ddb987" stroke-width="3" stroke-opacity="1"></use></g></g><g><use xlink:href="#a8HuDFZ77" opacity="1" fill="#ddb987" fill-opacity="1"></use></g><g><use xlink:href="#a1RvWtMKAW" opacity="1" fill="#341b03" fill-opacity="1"></use></g><g><use xlink:href="#bSr6Tv9md" opacity="1" fill="#d1e231" fill-opacity="1"></use></g><g></g><g><use xlink:href="#c7cAdMnTB3" opacity="1" fill="#d1e231" fill-opacity="1"></use></g><g><use xlink:href="#i5m030eKId" opacity="1" fill="#84c93a" fill-opacity="1"></use><g><use xlink:href="#i5m030eKId" opacity="1" fill-opacity="0" stroke="#5c4242" stroke-width="0" stroke-opacity="1"></use></g></g><g><use xlink:href="#a2PuJfKRwy" opacity="1" fill="#341b03" fill-opacity="1"></use></g><g><use xlink:href="#noPl7LPYy" opacity="1" fill="#341b03" fill-opacity="1"></use></g><g><g><use xlink:href="#e8Vo7n5F8l" opacity="1" fill-opacity="0" stroke="#000000" stroke-width="1" stroke-opacity="1"></use></g></g><g><use xlink:href="#a2tBEBprL" opacity="1" fill="#a3bd19" fill-opacity="1"></use><g><use xlink:href="#a2tBEBprL" opacity="1" fill-opacity="0" stroke="#341b03" stroke-width="3" stroke-opacity="1"></use></g></g><g><use xlink:href="#dvDQBMef1" opacity="1" fill="#341b03" fill-opacity="1"></use></g><g><g><use xlink:href="#c1eTlyrGr8" opacity="1" fill-opacity="0" stroke="#341b03" stroke-width="3" stroke-opacity="1"></use></g></g></g></g></svg>