<?xml version="1.0" encoding="UTF-8" standalone="no"?>
<!DOCTYPE svg PUBLIC "-//W3C//DTD SVG 1.1//EN" "http://www.w3.org/Graphics/SVG/1.1/DTD/svg11.dtd">
<svg version="1.1" xmlns="http://www.w3.org/2000/svg" xmlns:xlink="http://www.w3.org/1999/xlink" preserveAspectRatio="xMidYMid meet" viewBox="0 0 1280 1280" width="1280" height="1280"><defs><path d="M511.53 323.76C495.51 328.14 485.5 330.88 481.49 331.98C417.84 349.4 351.79 313.43 331.88 250.51C330.36 245.69 326.54 233.63 320.44 214.34C340.2 209.03 352.55 205.72 357.49 204.39C424.18 186.48 492.17 228.53 505.93 296.21C506.68 299.88 508.54 309.06 511.53 323.76Z" id="nFAoWB1Fs"></path><path d="M489.73 126.64C496.01 124.77 502.62 128.33 504.49 134.61C517.61 178.54 553.58 298.95 566.7 342.87C568.58 349.15 565.01 355.76 558.73 357.63C551.91 359.67 542.82 362.39 536 364.42C529.73 366.3 523.12 362.73 521.24 356.45C508.12 312.53 472.15 192.12 459.03 148.19C457.16 141.91 460.72 135.31 467 133.43C473.82 131.39 482.91 128.68 489.73 126.64Z" id="aF3cVjHW3"></path><path d="M453.84 131.38C451.89 125.07 455.42 118.37 461.74 116.42C505.52 102.89 627.71 65.13 672.06 51.42C676.8 49.96 681.82 52.61 683.29 57.35C685.58 64.78 689.11 76.21 691.23 83.07C693.19 89.38 689.65 96.08 683.33 98.04C639.56 111.56 519.65 148.62 475.87 162.15C469.55 164.1 462.85 160.56 460.9 154.25C458.78 147.39 455.96 138.24 453.84 131.38Z" id="a1sZdStel4"></path><path d="M538.49 314.84C539.17 314.43 540.04 314.9 540.08 315.69C547.47 484.56 568.71 970.19 575.89 1134.25C576.51 1148.29 565.29 1160 551.24 1160C535.78 1160 515.16 1160 499.69 1160C485.52 1160 474.1 1148.39 474.33 1134.23C476.82 976.53 484.19 510.98 486.76 348.72C486.79 346.88 487.77 345.18 489.35 344.24C499.48 338.18 528.15 321.02 538.49 314.84Z" id="c18lBup8hE"></path><path d="M541.67 1160L568.8 1157.99L599.97 1152.94C606.64 1151.41 610.8 1150.45 612.47 1150.07C640.93 1143.51 668.09 1132.22 692.81 1116.65C698.6 1113 690.34 1118.2 699.06 1112.71C714.17 1103.19 728.56 1092.56 742.1 1080.91C744.51 1078.83 734.95 1087.06 738.25 1084.22C748.83 1075.11 758.68 1065.19 767.7 1054.54C771.95 1049.53 765.32 1057.36 768.11 1054.06C781.97 1037.71 794.15 1019.99 804.45 1001.19C807.55 995.54 801.35 1006.85 804.45 1001.19C814.76 982.39 823.09 962.57 829.31 942.05C830.86 936.93 833.38 928.63 836.73 917.56C836.96 916.81 837.11 916.04 837.19 915.25C838.35 903.18 840.05 885.61 840.79 877.91C842.27 862.59 842.44 847.17 841.29 831.82C840.44 820.59 840.7 823.96 840.12 816.23C838.1 789.41 831.3 763.16 820.03 738.74C817.06 732.31 818.96 736.42 814.43 726.61C808.28 713.29 801.03 700.51 792.76 688.39C789.73 683.94 803.12 703.56 802.6 702.8C786 678.49 772.99 651.93 763.95 623.92C762.74 620.14 766.68 632.36 763.95 623.92C759.91 611.37 757.07 598.47 755.47 585.39C754.89 580.64 753.45 568.77 751.13 549.77C751.13 545.94 751.13 543.55 751.13 542.59C751.13 532.8 750.43 523.03 749.05 513.34C748.51 509.63 749.46 516.25 749.05 513.34C747.28 501.01 744.42 488.87 740.49 477.06C737.54 468.2 735.51 462.11 732.79 453.93C728.12 439.9 721.21 426.72 712.34 414.89C706.9 407.64 707.64 408.64 703.12 402.61C691.22 386.76 676.81 372.96 660.46 361.75C654.22 357.48 654.82 357.89 647.24 352.7C635.29 344.51 622.45 337.71 608.97 332.42C604.31 330.58 613.03 334.01 608.97 332.42C593.47 326.33 577.37 321.9 560.93 319.22C558.36 318.8 551.94 317.75 541.67 316.07L541.67 1160Z" id="aL5FAS49w"></path><path d="M670.04 52.24C676.28 50.38 682.84 53.92 684.71 60.16C692.81 87.29 714.43 159.66 722.71 187.36C724.1 192.04 721.44 196.96 716.77 198.36C709.43 200.55 698.14 203.92 691.36 205.95C685.13 207.81 678.56 204.26 676.7 198.03C668.6 170.89 647.65 100.78 639.55 73.65C637.68 67.41 641.23 60.85 647.46 58.99C654.24 56.96 663.27 54.26 670.04 52.24Z" id="acDnLADE3"></path><path d="M593.26 873.02C593.26 902.95 568.96 927.26 539.02 927.26C509.08 927.26 484.78 902.95 484.78 873.02C484.78 843.08 509.08 818.77 539.02 818.77C568.96 818.77 593.26 843.08 593.26 873.02Z" id="bNerMMJ5q"></path><path d="M548.96 907.96C555.08 907.96 560.05 912.93 560.05 919.06C560.05 938.53 560.05 985.87 560.05 1005.35C560.05 1011.48 555.08 1016.45 548.96 1016.45C543.04 1016.45 536.38 1016.45 530.46 1016.45C524.34 1016.45 519.37 1011.48 519.37 1005.35C519.37 985.87 519.37 938.53 519.37 919.06C519.37 912.93 524.34 907.96 530.46 907.96C536.38 907.96 543.04 907.96 548.96 907.96Z" id="e2mJ2SOGUE"></path><path d="M505.04 531.3C505.04 531.3 505.04 531.3 505.04 531.3C493.93 592.66 487.34 654.75 485.33 717.07C485.03 726.57 484.87 731.34 484 758.31C484 758.31 484.18 770.77 484.18 770.77C483.93 766.62 483.93 766.62 484.18 770.77C484.18 770.77 483.24 810.75 487.6 851.8C494.28 914.66 507.29 988.18 507.29 988.18C507.53 989.75 508.13 993.69 509.09 1000L520 1080L541.67 1160L514.54 1157.99L483.36 1152.94C476.7 1151.41 472.53 1150.45 470.86 1150.07C442.4 1143.51 415.24 1132.22 390.53 1116.65C384.74 1113 392.99 1118.2 384.27 1112.71C369.16 1103.19 354.77 1092.56 341.24 1080.91C338.83 1078.83 348.38 1087.06 345.09 1084.22C334.51 1075.11 324.66 1065.19 315.63 1054.54C311.38 1049.53 318.02 1057.36 315.22 1054.06C301.36 1037.71 289.19 1019.99 278.88 1001.19C275.78 995.54 281.98 1006.85 278.88 1001.19C268.57 982.39 260.24 962.57 254.03 942.05C252.47 936.93 249.96 928.63 246.6 917.56C246.37 916.81 246.22 916.04 246.15 915.25C244.98 903.18 243.29 885.61 242.54 877.91C241.06 862.59 240.9 847.17 242.05 831.82C242.89 820.59 242.64 823.96 243.22 816.23C245.23 789.41 252.03 763.16 263.31 738.74C266.27 732.31 264.38 736.42 268.91 726.61C275.05 713.29 282.3 700.51 290.57 688.39C293.61 683.94 280.22 703.56 280.73 702.8C297.33 678.49 310.35 651.93 319.38 623.92C320.6 620.14 316.66 632.36 319.38 623.92C323.43 611.37 326.27 598.47 327.86 585.39C328.44 580.64 329.89 568.77 332.21 549.77C332.21 545.94 332.21 543.55 332.21 542.59C332.21 532.8 332.9 523.03 334.29 513.34C334.82 509.63 333.87 516.25 334.29 513.34C336.05 501.01 338.92 488.87 342.85 477.06C345.8 468.2 347.82 462.11 350.54 453.93C355.21 439.9 362.12 426.72 371 414.89C376.43 407.64 375.69 408.64 380.21 402.61C392.11 386.76 406.52 372.96 422.88 361.75C429.12 357.48 428.51 357.89 436.1 352.7C448.05 344.51 460.88 337.71 474.36 332.42C479.03 330.58 470.3 334.01 474.36 332.42C489.86 326.33 505.97 321.9 522.4 319.22C524.97 318.8 531.39 317.75 541.67 316.07C539.46 325.22 538.08 330.94 537.53 333.23C521.82 398.36 510.97 464.57 505.04 531.3C505.04 531.3 505.04 531.3 505.04 531.3Z" id="d2zIt2bu9a"></path><path d="M501.11 1156.94L469.38 1150.84L467.26 1150.3L465.14 1149.75L463.02 1149.17L460.92 1148.58L458.81 1147.98L456.71 1147.36L454.62 1146.72L452.53 1146.06L450.45 1145.39L448.37 1144.71L446.3 1144L444.24 1143.28L442.18 1142.54L440.13 1141.79L438.08 1141.02L436.04 1140.24L434.01 1139.44L431.98 1138.62L429.96 1137.78L427.95 1136.94L425.94 1136.07L423.94 1135.19L421.95 1134.29L419.96 1133.38L417.99 1132.45L416.01 1131.5L414.05 1130.54L412.09 1129.57L410.15 1128.58L408.2 1127.57L406.27 1126.55L404.35 1125.51L402.43 1124.46L400.52 1123.39L398.62 1122.3L396.72 1121.2L394.84 1120.09L392.96 1118.96L391.09 1117.81L389.24 1116.65L382.98 1112.71L381.85 1111.99L380.72 1111.27L379.59 1110.55L378.47 1109.82L377.35 1109.09L376.23 1108.35L375.11 1107.61L374 1106.87L372.89 1106.12L371.78 1105.36L370.68 1104.61L369.58 1103.84L368.48 1103.08L367.38 1102.31L366.29 1101.54L365.2 1100.76L364.11 1099.98L363.03 1099.19L361.95 1098.4L360.87 1097.61L359.79 1096.81L358.72 1096.01L357.65 1095.2L356.59 1094.39L355.52 1093.58L354.46 1092.76L353.41 1091.94L352.35 1091.12L351.3 1090.29L350.25 1089.45L349.21 1088.62L348.17 1087.77L347.13 1086.93L346.09 1086.08L345.06 1085.23L344.03 1084.37L343 1083.51L342.03 1082.69L341.43 1082.16L340.64 1081.47L339.86 1080.77L339.08 1080.07L338.31 1079.37L337.53 1078.66L336.76 1077.95L336 1077.24L335.23 1076.52L334.47 1075.81L333.71 1075.09L332.96 1074.36L332.2 1073.64L331.45 1072.91L330.71 1072.17L329.96 1071.44L329.22 1070.7L328.48 1069.96L327.75 1069.22L327.01 1068.47L326.28 1067.72L325.56 1066.97L324.83 1066.21L324.11 1065.45L323.4 1064.69L322.68 1063.93L321.97 1063.16L321.26 1062.39L320.55 1061.62L319.85 1060.84L319.15 1060.06L318.45 1059.28L317.76 1058.5L317.07 1057.71L316.38 1056.92L315.7 1056.13L315.02 1055.34L314.34 1054.54L313.93 1054.06L312.89 1052.83L311.86 1051.6L310.84 1050.36L309.82 1049.12L308.81 1047.87L307.81 1046.61L306.81 1045.35L305.82 1044.09L304.83 1042.82L303.85 1041.55L302.88 1040.27L301.91 1038.98L300.96 1037.7L300 1036.4L299.06 1035.1L298.12 1033.8L297.18 1032.49L296.26 1031.18L295.34 1029.87L294.42 1028.55L293.52 1027.22L292.62 1025.89L291.72 1024.55L290.84 1023.22L289.96 1021.87L289.09 1020.52L288.22 1019.17L287.36 1017.81L286.51 1016.45L285.66 1015.09L284.82 1013.72L283.99 1012.34L283.17 1010.96L282.35 1009.58L281.54 1008.19L280.73 1006.8L279.94 1005.41L279.15 1004.01L278.36 1002.6L277.59 1001.19L276.82 999.78L276.06 998.37L275.3 996.95L274.55 995.52L273.81 994.1L273.08 992.67L272.36 991.23L271.64 989.79L270.93 988.35L270.23 986.91L269.53 985.46L268.85 984.01L268.17 982.55L267.5 981.09L266.83 979.63L266.18 978.16L265.53 976.69L264.89 975.22L264.25 973.75L263.63 972.27L263.01 970.78L262.4 969.3L261.79 967.81L261.2 966.32L260.61 964.82L260.03 963.33L259.46 961.83L258.89 960.32L258.34 958.82L257.79 957.31L257.25 955.79L256.72 954.28L256.19 952.76L255.67 951.24L255.16 949.71L254.66 948.19L254.17 946.66L253.68 945.12L253.2 943.59L252.73 942.05L245.31 917.56L245.29 917.51L245.28 917.45L245.26 917.39L245.24 917.34L245.23 917.28L245.21 917.22L245.2 917.17L245.18 917.11L245.17 917.05L245.15 916.99L245.14 916.94L245.12 916.88L245.11 916.82L245.1 916.77L245.08 916.71L245.07 916.65L245.06 916.59L245.05 916.54L245.04 916.48L245.02 916.42L245.01 916.36L245 916.3L244.99 916.25L244.98 916.19L244.97 916.13L244.96 916.07L244.95 916.01L244.94 915.96L244.93 915.9L244.92 915.84L244.92 915.78L244.91 915.72L244.9 915.66L244.89 915.61L244.88 915.55L244.88 915.49L244.87 915.43L244.86 915.37L244.86 915.31L244.85 915.25L241.25 877.91L241.14 876.76L241.04 875.61L240.94 874.46L240.84 873.31L240.75 872.16L240.67 871.01L240.59 869.86L240.52 868.7L240.45 867.55L240.38 866.4L240.33 865.25L240.27 864.1L240.22 862.94L240.18 861.79L240.14 860.64L240.1 859.49L240.07 858.33L240.05 857.18L240.03 856.03L240.01 854.87L240 853.72L240 852.57L240 851.41L240 850.26L240.01 849.11L240.03 847.95L240.05 846.8L240.07 845.65L240.1 844.5L240.14 843.34L240.18 842.19L240.22 841.04L240.27 839.88L240.33 838.73L240.38 837.58L240.45 836.43L240.52 835.28L240.59 834.12L240.67 832.97L240.75 831.82L241.92 816.23L242.08 814.22L242.26 812.21L242.46 810.21L242.67 808.2L242.9 806.2L243.15 804.2L243.42 802.21L243.7 800.22L244.01 798.23L244.33 796.24L244.66 794.26L245.02 792.28L245.39 790.3L245.78 788.33L246.19 786.36L246.62 784.4L247.06 782.44L247.52 780.48L248 778.53L248.49 776.59L249.01 774.64L249.54 772.7L250.09 770.77L250.65 768.84L251.23 766.92L251.83 765L252.45 763.09L253.08 761.18L253.73 759.28L254.4 757.38L255.08 755.49L255.79 753.6L256.51 751.72L257.24 749.85L257.99 747.98L258.76 746.12L259.55 744.27L260.35 742.42L261.17 740.58L262.01 738.74L267.61 726.61L268.07 725.61L268.54 724.61L269.01 723.62L269.49 722.63L269.97 721.64L270.45 720.65L270.94 719.66L271.43 718.68L271.93 717.7L272.43 716.72L272.93 715.74L273.44 714.77L273.95 713.8L274.47 712.82L274.99 711.86L275.51 710.89L276.04 709.93L276.57 708.96L277.11 708L277.65 707.05L278.19 706.09L278.74 705.14L279.29 704.19L279.85 703.24L280.41 702.29L280.97 701.35L281.54 700.41L282.11 699.47L282.69 698.53L283.27 697.6L283.85 696.67L284.44 695.74L285.03 694.81L285.62 693.89L286.22 692.97L286.83 692.05L287.43 691.13L288.04 690.21L288.66 689.3L289.28 688.39L279.44 702.8L280.68 700.97L281.9 699.13L283.11 697.29L284.31 695.44L285.5 693.58L286.67 691.71L287.82 689.83L288.97 687.95L290.09 686.06L291.21 684.16L292.31 682.25L293.4 680.33L294.47 678.41L295.53 676.48L296.58 674.54L297.61 672.6L298.63 670.65L299.63 668.69L300.62 666.72L301.6 664.75L302.56 662.77L303.51 660.78L304.44 658.78L305.36 656.78L306.26 654.77L307.15 652.76L308.03 650.74L308.89 648.71L309.74 646.68L310.57 644.64L311.39 642.59L312.19 640.54L312.98 638.48L313.75 636.42L314.51 634.35L315.26 632.27L315.99 630.19L316.7 628.11L317.4 626.01L318.09 623.92L318.39 622.97L318.68 622.03L318.98 621.09L319.26 620.14L319.55 619.2L319.83 618.25L320.1 617.3L320.37 616.35L320.63 615.4L320.89 614.44L321.15 613.49L321.4 612.54L321.65 611.58L321.89 610.62L322.13 609.66L322.36 608.7L322.59 607.74L322.81 606.78L323.03 605.82L323.25 604.86L323.46 603.89L323.66 602.92L323.86 601.96L324.06 600.99L324.25 600.02L324.44 599.05L324.62 598.08L324.8 597.11L324.97 596.14L325.14 595.16L325.3 594.19L325.46 593.22L325.62 592.24L325.77 591.26L325.91 590.29L326.05 589.31L326.19 588.33L326.32 587.35L326.45 586.37L326.57 585.39L330.91 549.77L330.91 542.59L330.91 541.85L330.92 541.12L330.92 540.39L330.93 539.65L330.94 538.92L330.96 538.19L330.98 537.45L331 536.72L331.02 535.98L331.04 535.25L331.07 534.52L331.1 533.79L331.13 533.05L331.17 532.32L331.2 531.59L331.25 530.85L331.29 530.12L331.33 529.39L331.38 528.66L331.43 527.93L331.49 527.19L331.54 526.46L331.6 525.73L331.66 525L331.73 524.27L331.79 523.54L331.86 522.81L331.93 522.08L332.01 521.35L332.08 520.62L332.16 519.89L332.25 519.16L332.33 518.43L332.42 517.7L332.51 516.97L332.6 516.25L332.69 515.52L332.79 514.79L332.89 514.06L332.99 513.34L333.13 512.41L333.27 511.49L333.41 510.57L333.56 509.65L333.71 508.72L333.86 507.8L334.02 506.89L334.19 505.97L334.35 505.05L334.52 504.13L334.7 503.22L334.88 502.3L335.06 501.39L335.25 500.47L335.44 499.56L335.64 498.65L335.84 497.74L336.04 496.83L336.25 495.92L336.46 495.01L336.68 494.1L336.9 493.19L337.12 492.29L337.35 491.38L337.58 490.48L337.82 489.58L338.06 488.68L338.31 487.78L338.55 486.88L338.81 485.98L339.06 485.08L339.32 484.19L339.59 483.29L339.86 482.4L340.13 481.51L340.41 480.62L340.69 479.73L340.97 478.84L341.26 477.95L341.55 477.06L349.25 453.93L349.6 452.88L349.97 451.83L350.34 450.79L350.72 449.75L351.11 448.71L351.5 447.68L351.91 446.65L352.32 445.62L352.74 444.6L353.17 443.58L353.6 442.56L354.05 441.55L354.5 440.54L354.96 439.53L355.43 438.53L355.91 437.53L356.4 436.54L356.89 435.55L357.39 434.57L357.9 433.58L358.42 432.61L358.94 431.63L359.47 430.66L360.01 429.7L360.56 428.74L361.12 427.78L361.68 426.83L362.25 425.89L362.83 424.94L363.42 424.01L364.01 423.07L364.62 422.14L365.22 421.22L365.84 420.3L366.47 419.39L367.1 418.48L367.74 417.57L368.39 416.67L369.04 415.78L369.7 414.89L378.55 403.11L379.46 401.9L380.39 400.69L381.32 399.5L382.27 398.32L383.22 397.14L384.18 395.97L385.15 394.81L386.14 393.65L387.13 392.51L388.13 391.37L389.14 390.24L390.15 389.12L391.18 388.01L392.22 386.91L393.26 385.81L394.31 384.73L395.38 383.65L396.45 382.58L397.53 381.52L398.62 380.47L399.71 379.43L400.82 378.4L401.93 377.38L403.05 376.36L404.18 375.36L405.32 374.36L406.47 373.37L407.62 372.39L408.79 371.43L409.96 370.47L411.14 369.52L412.32 368.58L413.52 367.65L414.72 366.73L415.93 365.81L417.15 364.91L418.37 364.02L419.61 363.14L420.85 362.26L422.1 361.4L434.8 352.7L435.7 352.09L436.6 351.48L437.51 350.88L438.41 350.28L439.33 349.69L440.24 349.11L441.16 348.53L442.08 347.95L443 347.38L443.93 346.82L444.86 346.26L445.79 345.71L446.73 345.16L447.67 344.62L448.61 344.08L449.55 343.55L450.5 343.02L451.45 342.5L452.4 341.98L453.36 341.47L454.32 340.97L455.28 340.47L456.25 339.97L457.22 339.48L458.19 339L459.16 338.52L460.14 338.05L461.12 337.58L462.1 337.12L463.08 336.67L464.07 336.22L465.06 335.77L466.05 335.33L467.05 334.9L468.04 334.47L469.04 334.05L470.05 333.63L471.05 333.22L472.06 332.82L473.07 332.42L474.23 331.96L475.4 331.51L476.57 331.07L477.74 330.64L478.91 330.21L480.08 329.79L481.26 329.37L482.44 328.96L483.62 328.56L484.8 328.16L485.99 327.77L487.17 327.39L488.36 327.01L489.55 326.64L490.75 326.27L491.94 325.91L493.14 325.56L494.34 325.21L495.54 324.87L496.74 324.54L497.94 324.21L499.15 323.89L500.35 323.58L501.56 323.27L502.77 322.97L503.98 322.67L505.2 322.39L506.41 322.1L507.63 321.83L508.85 321.56L510.07 321.29L511.29 321.04L512.51 320.79L513.74 320.54L514.96 320.31L516.19 320.08L517.42 319.85L518.65 319.63L519.88 319.42L521.11 319.22L538.76 316.33L540.37 315.66L540.37 316.07L538.76 316.33L516.2 325.78L514.18 326.63L512.17 327.5L510.16 328.38L508.16 329.27L506.16 330.17L504.17 331.08L502.18 332.01L500.21 332.95L498.23 333.9L496.27 334.87L494.31 335.84L492.35 336.83L490.41 337.83L488.47 338.85L486.53 339.87L484.61 340.91L482.68 341.96L480.77 343.02L478.86 344.09L476.96 345.18L475.07 346.28L473.18 347.39L471.3 348.51L469.43 349.64L467.56 350.78L465.7 351.94L463.85 353.11L462.01 354.29L460.17 355.48L458.34 356.68L456.52 357.89L454.7 359.12L452.9 360.36L451.1 361.61L449.3 362.87L447.52 364.14L445.74 365.42L443.97 366.72L442.21 368.02L440.46 369.34L439.14 370.34L437.82 371.36L436.52 372.39L435.22 373.42L433.93 374.47L432.64 375.52L431.37 376.58L430.1 377.65L428.84 378.73L427.59 379.82L426.34 380.92L425.11 382.02L423.88 383.14L422.66 384.26L421.45 385.39L420.25 386.53L419.05 387.68L417.87 388.84L416.69 390.01L415.52 391.18L414.36 392.37L413.2 393.56L412.06 394.76L410.92 395.96L409.8 397.18L408.68 398.41L407.57 399.64L406.47 400.88L405.38 402.13L404.29 403.38L403.22 404.65L402.16 405.92L401.1 407.2L400.05 408.49L399.01 409.78L397.99 411.09L396.97 412.4L395.96 413.72L394.96 415.04L393.96 416.38L392.65 418.18L391.35 420L390.07 421.83L388.82 423.67L387.58 425.53L386.37 427.4L385.17 429.28L384 431.17L382.85 433.08L381.72 435L380.61 436.93L379.52 438.87L378.45 440.82L377.41 442.78L376.38 444.75L375.38 446.74L374.4 448.73L373.44 450.73L372.5 452.75L371.58 454.77L370.69 456.81L369.81 458.85L368.96 460.91L368.13 462.97L367.33 465.04L366.54 467.12L365.78 469.21L365.04 471.31L364.33 473.41L363.63 475.53L362.96 477.65L362.31 479.78L361.69 481.92L361.09 484.06L360.51 486.21L359.95 488.37L359.42 490.54L358.91 492.71L358.42 494.89L357.96 497.08L356.65 503.41L356.2 505.62L355.76 507.83L355.34 510.04L354.93 512.26L354.53 514.47L354.15 516.69L353.78 518.91L353.42 521.14L353.07 523.36L352.74 525.59L352.42 527.81L352.11 530.04L351.82 532.27L351.53 534.51L351.27 536.74L351.01 538.97L350.77 541.21L350.54 543.45L350.32 545.69L350.12 547.93L349.93 550.17L349.75 552.41L349.58 554.66L349.43 556.9L349.29 559.15L349.17 561.39L349.05 563.64L348.95 565.89L348.87 568.14L348.79 570.38L348.73 572.63L348.68 574.88L348.65 577.14L348.63 579.39L348.62 581.64L348.62 583.89L348.64 586.14L348.67 588.39L348.71 590.65L348.77 592.9L349.02 601.94L348.93 604.79L348.84 607.01L348.72 609.22L348.57 611.42L348.39 613.63L348.17 615.82L347.92 618.02L347.63 620.2L347.32 622.38L346.97 624.55L346.59 626.72L346.18 628.88L345.74 631.03L345.26 633.18L344.75 635.31L344.21 637.44L343.64 639.56L343.04 641.67L342.41 643.77L341.74 645.86L341.05 647.94L340.32 650.01L339.56 652.07L338.78 654.12L337.96 656.15L337.11 658.18L336.23 660.19L335.32 662.19L334.38 664.17L333.41 666.15L332.42 668.11L331.39 670.05L330.33 671.98L329.24 673.9L328.12 675.8L326.98 677.68L325.8 679.55L324.6 681.4L323.37 683.24L322.1 685.06L320.81 686.86L325.01 681.1L324.25 682.14L323.5 683.19L322.76 684.24L322.03 685.29L321.3 686.35L320.57 687.41L319.85 688.47L319.14 689.54L318.43 690.61L317.73 691.69L317.03 692.76L316.34 693.85L315.66 694.93L314.98 696.02L314.3 697.12L313.64 698.21L312.98 699.31L312.32 700.42L311.67 701.52L311.03 702.63L310.39 703.75L309.76 704.86L309.13 705.98L308.51 707.11L307.89 708.24L307.29 709.37L306.68 710.5L306.09 711.64L305.5 712.78L304.91 713.92L304.33 715.07L303.76 716.22L303.19 717.37L302.63 718.52L302.08 719.68L301.53 720.85L300.99 722.01L300.45 723.18L299.92 724.35L299.4 725.52L284.23 759.77L282.26 765.68L281.32 768.53L280.42 771.38L279.54 774.24L278.69 777.11L277.87 779.99L277.07 782.87L276.31 785.76L275.57 788.65L274.86 791.55L274.17 794.46L273.52 797.37L272.89 800.29L272.3 803.21L271.73 806.14L271.18 809.08L270.67 812.01L270.18 814.96L269.73 817.9L269.3 820.85L268.9 823.81L268.52 826.77L268.18 829.73L267.86 832.7L267.57 835.66L267.31 838.64L267.08 841.61L266.88 844.59L266.71 847.57L266.56 850.55L266.44 853.53L266.36 856.51L266.3 859.5L266.26 862.49L266.26 865.47L266.29 868.46L266.34 871.45L266.42 874.44L266.54 877.43L266.68 880.42L266.85 883.41L266.97 885.28L267.11 887.14L267.27 888.99L267.44 890.85L267.63 892.7L267.84 894.55L268.07 896.4L268.31 898.25L268.57 900.09L268.85 901.93L269.14 903.77L269.45 905.6L269.78 907.43L270.12 909.26L270.48 911.08L270.86 912.9L271.25 914.72L271.66 916.53L272.09 918.34L272.53 920.15L272.99 921.95L273.47 923.74L273.96 925.54L274.47 927.32L275 929.11L275.54 930.88L276.1 932.66L276.68 934.43L277.27 936.19L277.88 937.95L278.5 939.7L279.14 941.45L279.8 943.19L280.47 944.93L281.16 946.66L281.87 948.38L282.59 950.1L283.33 951.81L284.08 953.52L284.85 955.22L285.57 956.78L286.31 958.34L287.05 959.9L287.81 961.45L288.57 963L289.35 964.54L290.13 966.07L290.92 967.6L291.73 969.12L292.54 970.64L293.37 972.16L294.2 973.66L295.04 975.16L295.9 976.66L296.76 978.15L297.63 979.64L298.52 981.11L299.41 982.59L300.31 984.05L301.22 985.51L302.14 986.97L303.07 988.42L304.01 989.86L304.96 991.3L305.92 992.73L306.89 994.15L307.86 995.57L308.85 996.98L309.85 998.39L310.85 999.79L311.87 1001.18L312.89 1002.57L313.92 1003.94L314.97 1005.32L316.02 1006.68L317.08 1008.04L318.15 1009.4L319.23 1010.74L320.31 1012.08L321.41 1013.41L338.47 1034L344.18 1039.45L346.16 1041.33L348.14 1043.19L350.13 1045.04L352.14 1046.89L354.15 1048.72L356.17 1050.54L358.2 1052.35L360.23 1054.15L362.28 1055.94L364.34 1057.72L366.4 1059.49L368.47 1061.25L370.56 1063L372.65 1064.74L374.75 1066.46L376.86 1068.18L378.97 1069.89L381.1 1071.58L383.23 1073.26L385.38 1074.94L387.53 1076.6L389.69 1078.25L391.85 1079.89L394.03 1081.52L396.22 1083.14L398.41 1084.74L400.61 1086.34L402.82 1087.92L405.04 1089.5L407.26 1091.06L409.5 1092.61L411.74 1094.15L413.99 1095.68L416.24 1097.19L418.19 1098.48L419.26 1099.1L420.44 1099.78L421.62 1100.45L422.81 1101.11L424 1101.78L425.19 1102.43L426.39 1103.08L427.59 1103.73L428.79 1104.37L429.99 1105.01L431.2 1105.64L432.4 1106.26L433.61 1106.89L434.83 1107.5L436.04 1108.11L437.26 1108.72L438.48 1109.32L439.71 1109.92L440.93 1110.51L442.16 1111.1L443.39 1111.68L444.63 1112.25L445.86 1112.82L447.1 1113.39L448.34 1113.95L449.58 1114.51L450.83 1115.06L452.08 1115.6L453.33 1116.14L454.58 1116.68L455.83 1117.21L457.09 1117.74L487.64 1130.43L540.37 1145.5L540.37 1160L513.24 1158.6L501.11 1156.94ZM427.65 1104.61L425.35 1103.15L423.06 1101.68L420.78 1100.19L418.51 1098.7L418.19 1098.48L418.08 1098.42L416.9 1097.74L415.73 1097.05L414.56 1096.35L413.39 1095.65L412.22 1094.94L411.06 1094.23L409.9 1093.52L408.75 1092.8L429.95 1106.06L427.65 1104.61ZM341.98 1082.65L342.03 1082.69L342.21 1082.85L343 1083.54L343.79 1084.22L339.94 1080.91L340.96 1081.78L341.98 1082.65Z" id="blmI6KaQ4"></path><path d="" id="c5N8Js2Bs"></path></defs><g><g><g><use xlink:href="#nFAoWB1Fs" opacity="1" fill="#66bd7e" fill-opacity="1"></use></g><g><use xlink:href="#aF3cVjHW3" opacity="1" fill="#683935" fill-opacity="1"></use></g><g><use xlink:href="#a1sZdStel4" opacity="1" fill="#683935" fill-opacity="1"></use></g><g><use xlink:href="#c18lBup8hE" opacity="1" fill="#e0ecc8" fill-opacity="1"></use></g><g><use xlink:href="#aL5FAS49w" opacity="1" fill="#e0ecc8" fill-opacity="1"></use></g><g><use xlink:href="#acDnLADE3" opacity="1" fill="#683935" fill-opacity="1"></use></g><g><use xlink:href="#bNerMMJ5q" opacity="1" fill="#181515" fill-opacity="1"></use></g><g><use xlink:href="#e2mJ2SOGUE" opacity="1" fill="#181515" fill-opacity="1"></use></g><g><use xlink:href="#d2zIt2bu9a" opacity="1" fill="#66bd7e" fill-opacity="1"></use></g><g><use xlink:href="#blmI6KaQ4" opacity="1" fill="#467e3a" fill-opacity="1"></use></g><g></g></g></g></svg>