<?xml version="1.0" encoding="UTF-8" standalone="no"?>
<!DOCTYPE svg PUBLIC "-//W3C//DTD SVG 1.1//EN" "http://www.w3.org/Graphics/SVG/1.1/DTD/svg11.dtd">
<svg version="1.1" xmlns="http://www.w3.org/2000/svg" xmlns:xlink="http://www.w3.org/1999/xlink" preserveAspectRatio="xMidYMid meet" viewBox="0 0 1280 1280" width="1280" height="1280"><defs><path d="M511.53 323.76C495.51 328.14 485.5 330.88 481.49 331.98C417.84 349.4 351.79 313.43 331.88 250.51C330.36 245.69 326.54 233.63 320.44 214.34C340.2 209.03 352.55 205.72 357.49 204.39C424.18 186.48 492.17 228.53 505.93 296.21C506.68 299.88 508.54 309.06 511.53 323.76Z" id="nFAoWB1Fs"></path><path d="M489.73 126.64C496.01 124.77 502.62 128.33 504.49 134.61C517.61 178.54 553.58 298.95 566.7 342.87C568.58 349.15 565.01 355.76 558.73 357.63C551.91 359.67 542.82 362.39 536 364.42C529.73 366.3 523.12 362.73 521.24 356.45C508.12 312.53 472.15 192.12 459.03 148.19C457.16 141.91 460.72 135.31 467 133.43C473.82 131.39 482.91 128.68 489.73 126.64Z" id="aF3cVjHW3"></path><path d="M453.84 131.38C451.89 125.07 455.42 118.37 461.74 116.42C505.52 102.89 627.71 65.13 672.06 51.42C676.8 49.96 681.82 52.61 683.29 57.35C685.58 64.78 689.11 76.21 691.23 83.07C693.19 89.38 689.65 96.08 683.33 98.04C639.56 111.56 519.65 148.62 475.87 162.15C469.55 164.1 462.85 160.56 460.9 154.25C458.78 147.39 455.96 138.24 453.84 131.38Z" id="a1sZdStel4"></path><path d="M541.67 1160L568.8 1157.99L599.97 1152.94C606.64 1151.41 610.8 1150.45 612.47 1150.07C640.93 1143.51 668.09 1132.22 692.81 1116.65C698.6 1113 690.34 1118.2 699.06 1112.71C714.17 1103.19 728.56 1092.56 742.1 1080.91C744.51 1078.83 734.95 1087.06 738.25 1084.22C748.83 1075.11 758.68 1065.19 767.7 1054.54C771.95 1049.53 765.32 1057.36 768.11 1054.06C781.97 1037.71 794.15 1019.99 804.45 1001.19C807.55 995.54 801.35 1006.85 804.45 1001.19C814.76 982.39 823.09 962.57 829.31 942.05C830.86 936.93 833.38 928.63 836.73 917.56C836.96 916.81 837.11 916.04 837.19 915.25C838.35 903.18 840.05 885.61 840.79 877.91C842.27 862.59 842.44 847.17 841.29 831.82C840.44 820.59 840.7 823.96 840.12 816.23C838.1 789.41 831.3 763.16 820.03 738.74C817.06 732.31 818.96 736.42 814.43 726.61C808.28 713.29 801.03 700.51 792.76 688.39C789.73 683.94 803.12 703.56 802.6 702.8C786 678.49 772.99 651.93 763.95 623.92C762.74 620.14 766.68 632.36 763.95 623.92C759.91 611.37 757.07 598.47 755.47 585.39C754.89 580.64 753.45 568.77 751.13 549.77C751.13 545.94 751.13 543.55 751.13 542.59C751.13 532.8 750.43 523.03 749.05 513.34C748.51 509.63 749.46 516.25 749.05 513.34C747.28 501.01 744.42 488.87 740.49 477.06C737.54 468.2 735.51 462.11 732.79 453.93C728.12 439.9 721.21 426.72 712.34 414.89C706.9 407.64 707.64 408.64 703.12 402.61C691.22 386.76 676.81 372.96 660.46 361.75C654.22 357.48 654.82 357.89 647.24 352.7C635.29 344.51 622.45 337.71 608.97 332.42C604.31 330.58 613.03 334.01 608.97 332.42C593.47 326.33 577.37 321.9 560.93 319.22C558.36 318.8 551.94 317.75 541.67 316.07L541.67 1160Z" id="bIz7ySwGV"></path><path d="M670.04 52.24C676.28 50.38 682.84 53.92 684.71 60.16C692.81 87.29 714.43 159.66 722.71 187.36C724.1 192.04 721.44 196.96 716.77 198.36C709.43 200.55 698.14 203.92 691.36 205.95C685.13 207.81 678.56 204.26 676.7 198.03C668.6 170.89 647.65 100.78 639.55 73.65C637.68 67.41 641.23 60.85 647.46 58.99C654.24 56.96 663.27 54.26 670.04 52.24Z" id="acDnLADE3"></path><path d="M677.6 944.16C677.6 1013.89 619.63 1072.7 544.14 1072.7C468.65 1072.7 405.73 1014.65 405.73 944.92C405.73 875.19 465.42 826.26 540.91 719.94C616.4 826.26 677.6 874.43 677.6 944.16Z" id="c2ZThiNOnQ"></path><path d="M593.26 873.02C593.26 902.95 568.96 927.26 539.02 927.26C509.08 927.26 484.78 902.95 484.78 873.02C484.78 843.08 509.08 818.77 539.02 818.77C568.96 818.77 593.26 843.08 593.26 873.02Z" id="bNerMMJ5q"></path><path d="M548.96 907.96C555.08 907.96 560.05 912.93 560.05 919.06C560.05 938.53 560.05 985.87 560.05 1005.35C560.05 1011.48 555.08 1016.45 548.96 1016.45C543.04 1016.45 536.38 1016.45 530.46 1016.45C524.34 1016.45 519.37 1011.48 519.37 1005.35C519.37 985.87 519.37 938.53 519.37 919.06C519.37 912.93 524.34 907.96 530.46 907.96C536.38 907.96 543.04 907.96 548.96 907.96Z" id="e2mJ2SOGUE"></path><path d="M541.67 1160L514.54 1157.99L483.36 1152.94C476.7 1151.41 472.53 1150.45 470.86 1150.07C442.4 1143.51 415.24 1132.22 390.53 1116.65C384.74 1113 392.99 1118.2 384.27 1112.71C369.16 1103.19 354.77 1092.56 341.24 1080.91C338.83 1078.83 348.38 1087.06 345.09 1084.22C334.51 1075.11 324.66 1065.19 315.63 1054.54C311.38 1049.53 318.02 1057.36 315.22 1054.06C301.36 1037.71 289.19 1019.99 278.88 1001.19C275.78 995.54 281.98 1006.85 278.88 1001.19C268.57 982.39 260.24 962.57 254.03 942.05C252.47 936.93 249.96 928.63 246.6 917.56C246.37 916.81 246.22 916.04 246.15 915.25C244.98 903.18 243.29 885.61 242.54 877.91C241.06 862.59 240.9 847.17 242.05 831.82C242.89 820.59 242.64 823.96 243.22 816.23C245.23 789.41 252.03 763.16 263.31 738.74C266.27 732.31 264.38 736.42 268.91 726.61C275.05 713.29 282.3 700.51 290.57 688.39C293.61 683.94 280.22 703.56 280.73 702.8C297.33 678.49 310.35 651.93 319.38 623.92C320.6 620.14 316.66 632.36 319.38 623.92C323.43 611.37 326.27 598.47 327.86 585.39C328.44 580.64 329.89 568.77 332.21 549.77C332.21 545.94 332.21 543.55 332.21 542.59C332.21 532.8 332.9 523.03 334.29 513.34C334.82 509.63 333.87 516.25 334.29 513.34C336.05 501.01 338.92 488.87 342.85 477.06C345.8 468.2 347.82 462.11 350.54 453.93C355.21 439.9 362.12 426.72 371 414.89C376.43 407.64 375.69 408.64 380.21 402.61C392.11 386.76 406.52 372.96 422.88 361.75C429.12 357.48 428.51 357.89 436.1 352.7C448.05 344.51 460.88 337.71 474.36 332.42C479.03 330.58 470.3 334.01 474.36 332.42C489.86 326.33 505.97 321.9 522.4 319.22C524.97 318.8 531.39 317.75 541.67 316.07L541.67 1160Z" id="d1MzOs8Re"></path><path d="M502.4 1156.94L470.68 1150.84L468.55 1150.3L466.43 1149.75L464.32 1149.17L462.21 1148.58L460.11 1147.98L458.01 1147.36L455.91 1146.72L453.83 1146.06L451.74 1145.39L449.67 1144.71L447.6 1144L445.53 1143.28L443.47 1142.54L441.42 1141.79L439.38 1141.02L437.34 1140.24L435.3 1139.44L433.28 1138.62L431.26 1137.78L429.24 1136.94L427.24 1136.07L425.24 1135.19L423.24 1134.29L421.26 1133.38L419.28 1132.45L417.31 1131.5L415.34 1130.54L413.39 1129.57L411.44 1128.58L409.5 1127.57L407.56 1126.55L405.64 1125.51L403.72 1124.46L401.81 1123.39L399.91 1122.3L398.02 1121.2L396.13 1120.09L394.26 1118.96L392.39 1117.81L390.53 1116.65L384.27 1112.71L383.14 1111.99L382.01 1111.27L380.89 1110.55L379.76 1109.82L378.64 1109.09L377.52 1108.35L376.41 1107.61L375.29 1106.87L374.18 1106.12L373.08 1105.36L371.97 1104.61L370.87 1103.84L369.77 1103.08L368.68 1102.31L367.58 1101.54L366.49 1100.76L365.41 1099.98L364.32 1099.19L363.24 1098.4L362.16 1097.61L361.09 1096.81L360.02 1096.01L358.95 1095.2L357.88 1094.39L356.82 1093.58L355.76 1092.76L354.7 1091.94L353.65 1091.12L352.59 1090.29L351.55 1089.45L350.5 1088.62L349.46 1087.77L348.42 1086.93L347.38 1086.08L346.35 1085.23L345.32 1084.37L344.3 1083.51L343.33 1082.69L342.72 1082.16L341.94 1081.47L341.15 1080.77L340.38 1080.07L339.6 1079.37L338.83 1078.66L338.06 1077.95L337.29 1077.24L336.53 1076.52L335.76 1075.81L335.01 1075.09L334.25 1074.36L333.5 1073.64L332.75 1072.91L332 1072.17L331.26 1071.44L330.52 1070.7L329.78 1069.96L329.04 1069.22L328.31 1068.47L327.58 1067.72L326.85 1066.97L326.13 1066.21L325.41 1065.45L324.69 1064.69L323.97 1063.93L323.26 1063.16L322.55 1062.39L321.85 1061.62L321.14 1060.84L320.45 1060.06L319.75 1059.28L319.05 1058.5L318.36 1057.71L317.68 1056.92L316.99 1056.13L316.31 1055.34L315.63 1054.54L315.22 1054.06L314.19 1052.83L313.16 1051.6L312.13 1050.36L311.12 1049.12L310.11 1047.87L309.1 1046.61L308.1 1045.35L307.11 1044.09L306.13 1042.82L305.15 1041.55L304.17 1040.27L303.21 1038.98L302.25 1037.7L301.3 1036.4L300.35 1035.1L299.41 1033.8L298.48 1032.49L297.55 1031.18L296.63 1029.87L295.72 1028.55L294.81 1027.22L293.91 1025.89L293.02 1024.55L292.13 1023.22L291.25 1021.87L290.38 1020.52L289.51 1019.17L288.65 1017.81L287.8 1016.45L286.96 1015.09L286.12 1013.72L285.29 1012.34L284.46 1010.96L283.64 1009.58L282.83 1008.19L282.03 1006.8L281.23 1005.41L280.44 1004.01L279.66 1002.6L278.88 1001.19L278.11 999.78L277.35 998.37L276.59 996.95L275.85 995.52L275.11 994.1L274.38 992.67L273.65 991.23L272.93 989.79L272.23 988.35L271.52 986.91L270.83 985.46L270.14 984.01L269.46 982.55L268.79 981.09L268.13 979.63L267.47 978.16L266.82 976.69L266.18 975.22L265.55 973.75L264.92 972.27L264.3 970.78L263.69 969.3L263.09 967.81L262.49 966.32L261.91 964.82L261.33 963.33L260.75 961.83L260.19 960.32L259.63 958.82L259.08 957.31L258.54 955.79L258.01 954.28L257.48 952.76L256.97 951.24L256.46 949.71L255.95 948.19L255.46 946.66L254.97 945.12L254.5 943.59L254.03 942.05L246.6 917.56L246.59 917.51L246.57 917.45L246.55 917.39L246.54 917.34L246.52 917.28L246.51 917.22L246.49 917.17L246.48 917.11L246.46 917.05L246.45 916.99L246.43 916.94L246.42 916.88L246.4 916.82L246.39 916.77L246.38 916.71L246.37 916.65L246.35 916.59L246.34 916.54L246.33 916.48L246.32 916.42L246.31 916.36L246.3 916.3L246.28 916.25L246.27 916.19L246.26 916.13L246.25 916.07L246.24 916.01L246.24 915.96L246.23 915.9L246.22 915.84L246.21 915.78L246.2 915.72L246.19 915.66L246.19 915.61L246.18 915.55L246.17 915.49L246.16 915.43L246.16 915.37L246.15 915.31L246.15 915.25L242.54 877.91L242.43 876.76L242.33 875.61L242.23 874.46L242.14 873.31L242.05 872.16L241.96 871.01L241.89 869.86L241.81 868.7L241.74 867.55L241.68 866.4L241.62 865.25L241.57 864.1L241.52 862.94L241.47 861.79L241.43 860.64L241.4 859.49L241.37 858.33L241.34 857.18L241.32 856.03L241.31 854.87L241.3 853.72L241.29 852.57L241.29 851.41L241.3 850.26L241.31 849.11L241.32 847.95L241.34 846.8L241.37 845.65L241.4 844.5L241.43 843.34L241.47 842.19L241.52 841.04L241.57 839.88L241.62 838.73L241.68 837.58L241.74 836.43L241.81 835.28L241.89 834.12L241.96 832.97L242.05 831.82L243.22 816.23L243.38 814.22L243.56 812.21L243.75 810.21L243.96 808.2L244.2 806.2L244.45 804.2L244.71 802.21L245 800.22L245.3 798.23L245.62 796.24L245.96 794.26L246.31 792.28L246.69 790.3L247.08 788.33L247.49 786.36L247.91 784.4L248.35 782.44L248.82 780.48L249.29 778.53L249.79 776.59L250.3 774.64L250.83 772.7L251.38 770.77L251.94 768.84L252.53 766.92L253.13 765L253.74 763.09L254.38 761.18L255.03 759.28L255.69 757.38L256.38 755.49L257.08 753.6L257.8 751.72L258.54 749.85L259.29 747.98L260.06 746.12L260.84 744.27L261.65 742.42L262.47 740.58L263.31 738.74L268.91 726.61L269.37 725.61L269.84 724.61L270.31 723.62L270.78 722.63L271.26 721.64L271.75 720.65L272.23 719.66L272.73 718.68L273.22 717.7L273.72 716.72L274.23 715.74L274.73 714.77L275.25 713.8L275.76 712.82L276.28 711.86L276.81 710.89L277.33 709.93L277.87 708.96L278.4 708L278.94 707.05L279.49 706.09L280.03 705.14L280.59 704.19L281.14 703.24L281.7 702.29L282.27 701.35L282.83 700.41L283.41 699.47L283.98 698.53L284.56 697.6L285.14 696.67L285.73 695.74L286.32 694.81L286.92 693.89L287.52 692.97L288.12 692.05L288.73 691.13L289.34 690.21L289.95 689.3L290.57 688.39L280.73 702.8L281.97 700.97L283.2 699.13L284.41 697.29L285.61 695.44L286.79 693.58L287.96 691.71L289.12 689.83L290.26 687.95L291.39 686.06L292.5 684.16L293.61 682.25L294.69 680.33L295.77 678.41L296.83 676.48L297.87 674.54L298.91 672.6L299.92 670.65L300.93 668.69L301.92 666.72L302.89 664.75L303.85 662.77L304.8 660.78L305.74 658.78L306.65 656.78L307.56 654.77L308.45 652.76L309.32 650.74L310.19 648.71L311.03 646.68L311.86 644.64L312.68 642.59L313.49 640.54L314.27 638.48L315.05 636.42L315.81 634.35L316.55 632.27L317.28 630.19L318 628.11L318.7 626.01L319.38 623.92L319.68 622.97L319.98 622.03L320.27 621.09L320.56 620.14L320.84 619.2L321.12 618.25L321.39 617.3L321.66 616.35L321.93 615.4L322.19 614.44L322.44 613.49L322.69 612.54L322.94 611.58L323.18 610.62L323.42 609.66L323.65 608.7L323.88 607.74L324.11 606.78L324.32 605.82L324.54 604.86L324.75 603.89L324.95 602.92L325.16 601.96L325.35 600.99L325.54 600.02L325.73 599.05L325.91 598.08L326.09 597.11L326.26 596.14L326.43 595.16L326.6 594.19L326.75 593.22L326.91 592.24L327.06 591.26L327.2 590.29L327.35 589.31L327.48 588.33L327.61 587.35L327.74 586.37L327.86 585.39L332.21 549.77L332.21 542.59L332.21 541.85L332.21 541.12L332.22 540.39L332.23 539.65L332.24 538.92L332.25 538.19L332.27 537.45L332.29 536.72L332.31 535.98L332.34 535.25L332.36 534.52L332.39 533.79L332.43 533.05L332.46 532.32L332.5 531.59L332.54 530.85L332.58 530.12L332.63 529.39L332.68 528.66L332.73 527.93L332.78 527.19L332.84 526.46L332.9 525.73L332.96 525L333.02 524.27L333.09 523.54L333.16 522.81L333.23 522.08L333.3 521.35L333.38 520.62L333.46 519.89L333.54 519.16L333.62 518.43L333.71 517.7L333.8 516.97L333.89 516.25L333.99 515.52L334.09 514.79L334.19 514.06L334.29 513.34L334.42 512.41L334.56 511.49L334.7 510.57L334.85 509.65L335 508.72L335.16 507.8L335.32 506.89L335.48 505.97L335.65 505.05L335.82 504.13L335.99 503.22L336.17 502.3L336.36 501.39L336.54 500.47L336.74 499.56L336.93 498.65L337.13 497.74L337.34 496.83L337.54 495.92L337.76 495.01L337.97 494.1L338.19 493.19L338.42 492.29L338.65 491.38L338.88 490.48L339.11 489.58L339.35 488.68L339.6 487.78L339.85 486.88L340.1 485.98L340.36 485.08L340.62 484.19L340.88 483.29L341.15 482.4L341.42 481.51L341.7 480.62L341.98 479.73L342.27 478.84L342.55 477.95L342.85 477.06L350.54 453.93L350.9 452.88L351.26 451.83L351.63 450.79L352.01 449.75L352.4 448.71L352.8 447.68L353.2 446.65L353.61 445.62L354.03 444.6L354.46 443.58L354.9 442.56L355.34 441.55L355.8 440.54L356.26 439.53L356.73 438.53L357.2 437.53L357.69 436.54L358.18 435.55L358.68 434.57L359.19 433.58L359.71 432.61L360.23 431.63L360.77 430.66L361.31 429.7L361.86 428.74L362.41 427.78L362.98 426.83L363.55 425.89L364.13 424.94L364.71 424.01L365.31 423.07L365.91 422.14L366.52 421.22L367.14 420.3L367.76 419.39L368.39 418.48L369.03 417.57L369.68 416.67L370.33 415.78L371 414.89L379.84 403.11L380.76 401.9L381.68 400.69L382.62 399.5L383.56 398.32L384.51 397.14L385.48 395.97L386.45 394.81L387.43 393.65L388.42 392.51L389.42 391.37L390.43 390.24L391.45 389.12L392.47 388.01L393.51 386.91L394.56 385.81L395.61 384.73L396.67 383.65L397.74 382.58L398.82 381.52L399.91 380.47L401.01 379.43L402.11 378.4L403.22 377.38L404.35 376.36L405.48 375.36L406.62 374.36L407.76 373.37L408.92 372.39L410.08 371.43L411.25 370.47L412.43 369.52L413.62 368.58L414.81 367.65L416.01 366.73L417.22 365.81L418.44 364.91L419.67 364.02L420.9 363.14L422.14 362.26L423.39 361.4L436.1 352.7L437 352.09L437.9 351.48L438.8 350.88L439.71 350.28L440.62 349.69L441.53 349.11L442.45 348.53L443.37 347.95L444.29 347.38L445.22 346.82L446.15 346.26L447.08 345.71L448.02 345.16L448.96 344.62L449.9 344.08L450.85 343.55L451.79 343.02L452.74 342.5L453.7 341.98L454.66 341.47L455.61 340.97L456.58 340.47L457.54 339.97L458.51 339.48L459.48 339L460.45 338.52L461.43 338.05L462.41 337.58L463.39 337.12L464.38 336.67L465.36 336.22L466.35 335.77L467.35 335.33L468.34 334.9L469.34 334.47L470.34 334.05L471.34 333.63L472.34 333.22L473.35 332.82L474.36 332.42L475.53 331.96L476.69 331.51L477.86 331.07L479.03 330.64L480.2 330.21L481.38 329.79L482.55 329.37L483.73 328.96L484.91 328.56L486.1 328.16L487.28 327.77L488.47 327.39L489.66 327.01L490.85 326.64L492.04 326.27L493.23 325.91L494.43 325.56L495.63 325.21L496.83 324.87L498.03 324.54L499.23 324.21L500.44 323.89L501.65 323.58L502.86 323.27L504.07 322.97L505.28 322.67L506.49 322.39L507.71 322.1L508.92 321.83L510.14 321.56L511.36 321.29L512.58 321.04L513.81 320.79L515.03 320.54L516.25 320.31L517.48 320.08L518.71 319.85L519.94 319.63L521.17 319.42L522.4 319.22L540.06 316.33L541.67 315.66L541.67 316.07L540.06 316.33L517.49 325.78L515.47 326.63L513.46 327.5L511.45 328.38L509.45 329.27L507.45 330.17L505.46 331.08L503.48 332.01L501.5 332.95L499.53 333.9L497.56 334.87L495.6 335.84L493.65 336.83L491.7 337.83L489.76 338.85L487.83 339.87L485.9 340.91L483.98 341.96L482.06 343.02L480.16 344.09L478.26 345.18L476.36 346.28L474.48 347.39L472.6 348.51L470.72 349.64L468.86 350.78L467 351.94L465.15 353.11L463.3 354.29L461.47 355.48L459.64 356.68L457.81 357.89L456 359.12L454.19 360.36L452.39 361.61L450.6 362.87L448.81 364.14L447.04 365.42L445.27 366.72L443.51 368.02L441.75 369.34L440.43 370.34L439.12 371.36L437.81 372.39L436.51 373.42L435.22 374.47L433.94 375.52L432.66 376.58L431.39 377.65L430.13 378.73L428.88 379.82L427.64 380.92L426.4 382.02L425.18 383.14L423.96 384.26L422.74 385.39L421.54 386.53L420.35 387.68L419.16 388.84L417.98 390.01L416.81 391.18L415.65 392.37L414.5 393.56L413.35 394.76L412.22 395.96L411.09 397.18L409.97 398.41L408.86 399.64L407.76 400.88L406.67 402.13L405.59 403.38L404.51 404.65L403.45 405.92L402.39 407.2L401.35 408.49L400.31 409.78L399.28 411.09L398.26 412.4L397.25 413.72L396.25 415.04L395.26 416.38L393.94 418.18L392.64 420L391.37 421.83L390.11 423.67L388.88 425.53L387.66 427.4L386.47 429.28L385.29 431.17L384.14 433.08L383.01 435L381.9 436.93L380.81 438.87L379.75 440.82L378.7 442.78L377.67 444.75L376.67 446.74L375.69 448.73L374.73 450.73L373.79 452.75L372.87 454.77L371.98 456.81L371.11 458.85L370.26 460.91L369.43 462.97L368.62 465.04L367.84 467.12L367.08 469.21L366.34 471.31L365.62 473.41L364.93 475.53L364.26 477.65L363.61 479.78L362.98 481.92L362.38 484.06L361.8 486.21L361.24 488.37L360.71 490.54L360.2 492.71L359.71 494.89L359.25 497.08L357.94 503.41L357.49 505.62L357.06 507.83L356.63 510.04L356.22 512.26L355.83 514.47L355.44 516.69L355.07 518.91L354.71 521.14L354.37 523.36L354.03 525.59L353.71 527.81L353.4 530.04L353.11 532.27L352.83 534.51L352.56 536.74L352.3 538.97L352.06 541.21L351.83 543.45L351.62 545.69L351.41 547.93L351.22 550.17L351.04 552.41L350.88 554.66L350.73 556.9L350.59 559.15L350.46 561.39L350.35 563.64L350.25 565.89L350.16 568.14L350.09 570.38L350.02 572.63L349.98 574.88L349.94 577.14L349.92 579.39L349.91 581.64L349.91 583.89L349.93 586.14L349.96 588.39L350 590.65L350.06 592.9L350.31 601.94L350.22 604.79L350.14 607.01L350.02 609.22L349.86 611.42L349.68 613.63L349.46 615.82L349.21 618.02L348.93 620.2L348.61 622.38L348.27 624.55L347.89 626.72L347.47 628.88L347.03 631.03L346.55 633.18L346.05 635.31L345.51 637.44L344.94 639.56L344.33 641.67L343.7 643.77L343.04 645.86L342.34 647.94L341.62 650.01L340.86 652.07L340.07 654.12L339.25 656.15L338.4 658.18L337.53 660.19L336.62 662.19L335.68 664.17L334.71 666.15L333.71 668.11L332.68 670.05L331.62 671.98L330.54 673.9L329.42 675.8L328.27 677.68L327.1 679.55L325.89 681.4L324.66 683.24L323.4 685.06L322.11 686.86L326.3 681.1L325.55 682.14L324.8 683.19L324.06 684.24L323.32 685.29L322.59 686.35L321.86 687.41L321.15 688.47L320.43 689.54L319.72 690.61L319.02 691.69L318.33 692.76L317.64 693.85L316.95 694.93L316.27 696.02L315.6 697.12L314.93 698.21L314.27 699.31L313.61 700.42L312.96 701.52L312.32 702.63L311.68 703.75L311.05 704.86L310.42 705.98L309.8 707.11L309.19 708.24L308.58 709.37L307.98 710.5L307.38 711.64L306.79 712.78L306.21 713.92L305.63 715.07L305.05 716.22L304.49 717.37L303.93 718.52L303.37 719.68L302.83 720.85L302.28 722.01L301.75 723.18L301.22 724.35L300.69 725.52L285.52 759.77L283.55 765.68L282.62 768.53L281.71 771.38L280.83 774.24L279.98 777.11L279.16 779.99L278.37 782.87L277.6 785.76L276.86 788.65L276.15 791.55L275.47 794.46L274.81 797.37L274.19 800.29L273.59 803.21L273.02 806.14L272.48 809.08L271.96 812.01L271.48 814.96L271.02 817.9L270.59 820.85L270.19 823.81L269.82 826.77L269.47 829.73L269.16 832.7L268.87 835.66L268.61 838.64L268.38 841.61L268.17 844.59L268 847.57L267.85 850.55L267.74 853.53L267.65 856.51L267.59 859.5L267.56 862.49L267.56 865.47L267.58 868.46L267.64 871.45L267.72 874.44L267.83 877.43L267.97 880.42L268.14 883.41L268.26 885.28L268.4 887.14L268.56 888.99L268.74 890.85L268.93 892.7L269.14 894.55L269.36 896.4L269.6 898.25L269.86 900.09L270.14 901.93L270.43 903.77L270.74 905.6L271.07 907.43L271.41 909.26L271.77 911.08L272.15 912.9L272.55 914.72L272.96 916.53L273.38 918.34L273.83 920.15L274.29 921.95L274.76 923.74L275.26 925.54L275.77 927.32L276.29 929.11L276.84 930.88L277.4 932.66L277.97 934.43L278.56 936.19L279.17 937.95L279.8 939.7L280.44 941.45L281.09 943.19L281.77 944.93L282.46 946.66L283.16 948.38L283.88 950.1L284.62 951.81L285.37 953.52L286.14 955.22L286.87 956.78L287.6 958.34L288.35 959.9L289.1 961.45L289.87 963L290.64 964.54L291.42 966.07L292.22 967.6L293.02 969.12L293.84 970.64L294.66 972.16L295.49 973.66L296.34 975.16L297.19 976.66L298.05 978.15L298.93 979.64L299.81 981.11L300.7 982.59L301.6 984.05L302.51 985.51L303.44 986.97L304.37 988.42L305.31 989.86L306.25 991.3L307.21 992.73L308.18 994.15L309.16 995.57L310.15 996.98L311.14 998.39L312.15 999.79L313.16 1001.18L314.19 1002.57L315.22 1003.94L316.26 1005.32L317.31 1006.68L318.37 1008.04L319.44 1009.4L320.52 1010.74L321.61 1012.08L322.7 1013.41L339.76 1034L345.48 1039.45L347.45 1041.33L349.44 1043.19L351.43 1045.04L353.43 1046.89L355.44 1048.72L357.46 1050.54L359.49 1052.35L361.53 1054.15L363.57 1055.94L365.63 1057.72L367.69 1059.49L369.77 1061.25L371.85 1063L373.94 1064.74L376.04 1066.46L378.15 1068.18L380.27 1069.89L382.39 1071.58L384.53 1073.26L386.67 1074.94L388.82 1076.6L390.98 1078.25L393.15 1079.89L395.32 1081.52L397.51 1083.14L399.7 1084.74L401.9 1086.34L404.11 1087.92L406.33 1089.5L408.56 1091.06L410.79 1092.61L413.03 1094.15L415.28 1095.68L417.54 1097.19L419.48 1098.48L420.55 1099.1L421.73 1099.78L422.92 1100.45L424.1 1101.11L425.29 1101.78L426.49 1102.43L427.68 1103.08L428.88 1103.73L430.08 1104.37L431.28 1105.01L432.49 1105.64L433.7 1106.26L434.91 1106.89L436.12 1107.5L437.34 1108.11L438.56 1108.72L439.78 1109.32L441 1109.92L442.23 1110.51L443.46 1111.1L444.69 1111.68L445.92 1112.25L447.15 1112.82L448.39 1113.39L449.63 1113.95L450.88 1114.51L452.12 1115.06L453.37 1115.6L454.62 1116.14L455.87 1116.68L457.13 1117.21L458.38 1117.74L488.93 1130.43L541.67 1145.5L541.67 1160L514.54 1158.6L502.4 1156.94ZM428.94 1104.61L426.65 1103.15L424.36 1101.68L422.08 1100.19L419.8 1098.7L419.48 1098.48L419.37 1098.42L418.2 1097.74L417.02 1097.05L415.85 1096.35L414.68 1095.65L413.52 1094.94L412.36 1094.23L411.2 1093.52L410.04 1092.8L431.25 1106.06L428.94 1104.61ZM343.27 1082.65L343.33 1082.69L343.51 1082.85L344.3 1083.54L345.09 1084.22L341.24 1080.91L342.25 1081.78L343.27 1082.65Z" id="b4WizQukEf"></path><path d="" id="c5N8Js2Bs"></path></defs><g><g><g><use xlink:href="#nFAoWB1Fs" opacity="1" fill="#66bd7e" fill-opacity="1"></use></g><g><use xlink:href="#aF3cVjHW3" opacity="1" fill="#683935" fill-opacity="1"></use></g><g><use xlink:href="#a1sZdStel4" opacity="1" fill="#683935" fill-opacity="1"></use></g><g><use xlink:href="#bIz7ySwGV" opacity="1" fill="#e0ecc8" fill-opacity="1"></use></g><g><use xlink:href="#acDnLADE3" opacity="1" fill="#683935" fill-opacity="1"></use></g><g><use xlink:href="#c2ZThiNOnQ" opacity="1" fill="#b47f68" fill-opacity="1"></use></g><g><use xlink:href="#bNerMMJ5q" opacity="1" fill="#181515" fill-opacity="1"></use></g><g><use xlink:href="#e2mJ2SOGUE" opacity="1" fill="#181515" fill-opacity="1"></use></g><g><use xlink:href="#d1MzOs8Re" opacity="1" fill="#66bd7e" fill-opacity="1"></use></g><g><use xlink:href="#b4WizQukEf" opacity="1" fill="#467e3a" fill-opacity="1"></use></g><g></g></g></g></svg>