<svg xmlns="http://www.w3.org/2000/svg" xmlns:xlink="http://www.w3.org/1999/xlink" viewBox="0 0 7069.12 5998.12"><defs><style>.cls-1{fill:none;stroke:#000;stroke-miterlimit:10;stroke-width:6px;}.cls-15,.cls-2,.cls-37,.cls-39,.cls-45,.cls-47,.cls-54,.cls-57,.cls-6,.cls-60,.cls-61,.cls-66,.cls-7{font-size:120px;}.cls-12,.cls-13,.cls-15,.cls-2,.cls-6,.cls-7,.cls-9{font-family:Raleway-Medium, Raleway;}.cls-3{letter-spacing:-0.01em;}.cls-4{letter-spacing:-0.07em;}.cls-5{letter-spacing:-0.01em;}.cls-6{letter-spacing:0.12em;}.cls-7{letter-spacing:0.17em;}.cls-8{letter-spacing:0.18em;}.cls-62,.cls-9{font-size:120.2px;}.cls-10{letter-spacing:-0.01em;}.cls-11{letter-spacing:-0.07em;}.cls-12{font-size:138.8px;}.cls-13{font-size:150.92px;}.cls-14{letter-spacing:-0.01em;}.cls-15,.cls-37,.cls-54,.cls-66{fill:#6d6c6c;}.cls-16{letter-spacing:-0.01em;}.cls-17{letter-spacing:-0.01em;}.cls-18{letter-spacing:-0.02em;}.cls-19{letter-spacing:-0.03em;}.cls-20,.cls-25,.cls-27,.cls-30{font-size:110px;}.cls-20,.cls-25,.cls-27,.cls-30,.cls-33,.cls-35{font-family:Nunito-Regular, Nunito;}.cls-21{letter-spacing:-0.02em;}.cls-22{letter-spacing:-0.08em;}.cls-23{letter-spacing:-0.01em;}.cls-24{letter-spacing:0em;}.cls-25{letter-spacing:-0.01em;}.cls-26{letter-spacing:0em;}.cls-27{letter-spacing:0.12em;}.cls-28{letter-spacing:0.12em;}.cls-29{letter-spacing:0.12em;}.cls-30{letter-spacing:0.18em;}.cls-31{letter-spacing:0.19em;}.cls-32{letter-spacing:0em;}.cls-33{font-size:125.69px;}.cls-34{letter-spacing:0em;}.cls-35{font-size:137.98px;}.cls-36{letter-spacing:-0.01em;}.cls-37{font-family:Objectivity-Regular, Objectivity;}.cls-38{letter-spacing:-0.03em;}.cls-39,.cls-45,.cls-47,.cls-49,.cls-52,.cls-54{font-family:MyriadPro-Regular, Myriad Pro;}.cls-40{letter-spacing:-0.01em;}.cls-41{letter-spacing:-0.08em;}.cls-42{letter-spacing:0em;}.cls-43{letter-spacing:0em;}.cls-44{letter-spacing:-0.02em;}.cls-45{letter-spacing:0.11em;}.cls-46{letter-spacing:0.12em;}.cls-47{letter-spacing:0.15em;}.cls-48{letter-spacing:0.17em;}.cls-49{font-size:143.4px;}.cls-50{letter-spacing:0em;}.cls-51{letter-spacing:0em;}.cls-52{font-size:153.06px;letter-spacing:-0.02em;}.cls-53{letter-spacing:0em;}.cls-54{letter-spacing:0.16em;}.cls-55{letter-spacing:0.18em;}.cls-56{letter-spacing:0.17em;}.cls-57,.cls-60,.cls-61,.cls-62,.cls-64,.cls-65,.cls-66{font-family:Krub-Regular, Krub;}.cls-58{letter-spacing:-0.05em;}.cls-59{letter-spacing:0em;}.cls-60{letter-spacing:0.13em;}.cls-61{letter-spacing:0.21em;}.cls-63{letter-spacing:-0.05em;}.cls-64{font-size:141.79px;}.cls-65{font-size:158.68px;}</style></defs><title>base-elements</title><g id="icon_-_helix" data-name="icon - helix"><path d="M6684.16,1051.22c0-.08.53-43.82,12.5-65.58,11-20,29.43-29.72,34-32,6-3,13.47-4.08,11-9-3.51-7-11-11-11-11s-10-7-26.27,5.2c-15.13,11.35-20.24,20.59-29.53,39.18s-16.27,52.28-18.59,72Z" transform="translate(-61.88 1471.36)"/><path d="M6652.94,1047.23a106.77,106.77,0,0,0-42.66,18.6c-20.56,15.24-32.93,39.31-38.77,63.77-9.56,40.05-26.13,77.64-50.63,110.94-14,19-32,34.41-43.68,55.07a163.17,163.17,0,0,0-19.21,56.66c-6.06,41.89,3.32,85.69,29.72,119.28,24.23,30.83,61.64,50.32,99.4,58.94,37.06,8.46,76.91,6.87,112.18-7.91C6739,1506,6769.72,1473,6785.12,1433c17.39-45.21,16.6-96.57,5.79-143.2-5.54-23.88-12.28-47.46-17.89-71.33-2.49-10.62-4.9-21.32-6.37-32.14-1.6-11.73-2.34-23.58-3.81-35.33-2.87-23.09-6.51-49-20.61-68.27-13.91-19.06-36.67-31.23-59.81-34.44-9.26-1.29-18.82-2.41-28.15-1.18-6.29.82-6.37,10.83,0,10,19.31-2.55,41.4,2.12,58,12,10.33,6.18,19.55,14.53,25.48,25.09,5.59,10,8.73,21.14,11.09,32.24,4.72,22.17,5.24,44.82,8.88,67.12,3.68,22.56,9.85,44.71,15.56,66.82,5.17,20,10.87,40.18,13.37,60.75a253.44,253.44,0,0,1-1.38,72.76c-7.44,43.69-30.15,84.19-68.14,108.22-60.85,38.49-148.58,28.31-202.95-17.54-31.54-26.6-48-66.44-48.05-107.36a160,160,0,0,1,10.88-58c7.06-18.12,17.76-33.63,31-47.71,31.1-33,54.17-74.21,67.55-117.49,5.45-17.63,7.88-35.89,17-52.25,11.38-20.39,28.68-34.16,50.7-41.51a93.69,93.69,0,0,1,12.31-3.35C6661.92,1055.69,6659.24,1046.05,6652.94,1047.23Z" transform="translate(-61.88 1471.36)"/><path d="M6748.84,970.51c-26.15,14.64-48.64,41.15-50.59,72.19a5.94,5.94,0,0,0,3,5.18c20.15,11.64,47.32,12.49,69,5.59a100.82,100.82,0,0,0,64.19-61.36,74.75,74.75,0,0,0,4.46-18.94,6,6,0,0,0-3-5.18c-26.44-16.28-61-11.53-87.07,2.52-6.8,3.67-.75,14,6.06,10.37,22.52-12.14,52.48-16.36,75-2.53l-3-5.18c0,.1-.07.81-.09.81s.15-.94,0-.22-.19,1.17-.3,1.75a78.67,78.67,0,0,1-2.27,9.2,85.84,85.84,0,0,1-14,27.14c-18.86,24.42-51.3,38.31-81.91,32.66-7.53-1.39-14.87-3.43-21-7l3,5.18c0-.7.29-2.86.21-2.32-.09.7.25-1.51.35-2q.27-1.47.6-2.91a74.13,74.13,0,0,1,5.47-15.74c8.16-16.88,21.77-29.73,38-38.81C6761.64,977.1,6755.59,966.74,6748.84,970.51Z" transform="translate(-61.88 1471.36)"/><path d="M6541.83,1952.74a56.14,56.14,0,0,1,11.64-24.75c11-13.51,27.3-20.56,44.25-23,20.88-3,43-1.12,61.05,10.4,15.06,9.61,26.37,24.17,35.17,39.49,12.29,21.41,19.92,45,25.65,68.86,4,16.83,7.58,33.48,15.2,49.17a94.42,94.42,0,0,0,18.53,26.29c8.55,8.36,18.6,12.79,28.78,18.65,38.16,21.94,55,67.37,54.86,109.63-.06,21.1-4.06,42.7-13.16,61.84-9.32,19.61-25,35.68-42.6,48.05-44.66,31.32-102.75,42.6-156.27,33.82-21.38-3.5-40.84-10.37-58.89-22.47a148.43,148.43,0,0,1-43.41-44.81,126.07,126.07,0,0,1-19.22-64.68c-.35-28.74,9.66-55.09,23.6-79.79,13.34-23.64,27.06-48.29,30.13-75.71,3.24-29-7.85-57.15-13.55-85.13-3.08-15.08-4.72-30.65-1.76-45.89,1.46-7.54-10.1-10.78-11.57-3.19-6.35,32.73,5.33,64.17,12.06,95.8,2.9,13.67,4.61,27.62,2.39,41.52-2.08,13-6.82,25.44-12.5,37.28-7,14.69-15.78,28.45-23,43a171,171,0,0,0-14.8,41.91c-5.07,25-3.57,51.16,5.35,75.15,15.38,41.35,50,75.29,91.18,90.83,26,9.81,55.9,12.23,83.49,10.55a231.65,231.65,0,0,0,82.27-20.41c22.55-10.32,43.92-24.84,60.17-43.73,14.48-16.83,23.7-36.92,28.33-58.57,9.5-44.38,1.68-94.8-27.64-130.46a108.48,108.48,0,0,0-25.12-22.33c-9.95-6.4-20.95-10.23-29.69-18.49-15.3-14.47-22.91-34.73-27.84-54.75-6-24.54-11.62-48.52-22.21-71.67-16-34.92-43-68.17-83.54-72.5-22.79-2.43-48.12.08-67.87,12.6a70.27,70.27,0,0,0-27.38,32.82,67.54,67.54,0,0,0-3.61,11.44C6528.63,1957.08,6540.19,1960.3,6541.83,1952.74Z" transform="translate(-61.88 1471.36)"/><path d="M6587.25,1894.55s-7-31-34.67-63.33c0,0-14.64-10.62-3.69-13.84a74.43,74.43,0,0,1,28.62-2.77,141.12,141.12,0,0,1,22.15,31.38c10.15,19.39,22.31,40.54,20.64,53.65C6618.78,1911.55,6584.78,1894,6587.25,1894.55Z" transform="translate(-61.88 1471.36)"/><path d="M6570.85,1880.39c-.26-22.06-23.12-37.83-40.5-47.17-17.1-9.18-37.43-16.2-56.9-16.45-6.46-.08-13.39.63-19.36,3.23a16.51,16.51,0,0,0-5.57,3.72,12.11,12.11,0,0,0-2.86,5.07c-3.46,11,7,24,13.92,31.53,12.12,13.09,28.19,23.81,44.51,31,18.83,8.31,62.72,20.77,66.76-10.94,1-7.64-11-7.57-12,0-1.19,9.35-15.72,9-22.59,8.25-9-1-17.88-4.06-26.11-7.67a136.87,136.87,0,0,1-35-22.27c-7-6.15-15.59-14.5-17.76-24-.39-1.7-.47-2.21,0-2.9.27-.45.13-.42,1.76-1,5.29-2,11.09-2.26,16.67-2,10.36.49,20.56,3.39,30.28,6.84a114,114,0,0,1,14.54,6A115.34,115.34,0,0,1,6543,1855.8c7.27,6,15.77,14.45,15.89,24.59C6558.94,1888.11,6570.94,1888.13,6570.85,1880.39Z" transform="translate(-61.88 1471.36)"/><path d="M6532.06,3025.39c17.65-34.21,34.87-76.21,17.69-114-5.11-11.25-13.52-20.67-19.14-31.7a104.86,104.86,0,0,1-9.48-27.11c-3.21-16.19-3.15-32.92,3.42-48.31,16.12-37.72,61.79-58,100.6-45.15,20,6.66,35.31,21.38,44.87,39.91,10.27,19.93,8.79,44.94,9.09,66.71.16,12,.15,24.07,3.46,35.7,4.49,15.8,14.07,29.5,24.59,41.87,8.25,9.71,17.51,18.35,26.47,27.39a174.61,174.61,0,0,1,23.5,29.39c12.64,19.88,22.05,42.06,25.07,65.51,2.69,20.88,2.41,42.08-3.4,62.42a130.94,130.94,0,0,1-27.27,50.16A132.78,132.78,0,0,1,6648,3223.37c-38.8-1.17-75.41-20.33-99-51.1-23.75-31-32.47-71.1-27.49-109.52a132.72,132.72,0,0,1,10.59-37.36c3.16-7-7.18-13.09-10.36-6.06-18.39,40.75-18,90,.21,130.79,16.69,37.39,49.22,66.88,88.39,79,40.41,12.55,85.86,5.9,121.07-17.52a144.89,144.89,0,0,0,63.33-101.91c2.87-22.52,1.23-47.54-5.49-69.26a195.4,195.4,0,0,0-35.43-65.31c-15.8-19.33-36-34.49-49.67-55.69-7.28-11.32-11.7-23.51-12.58-36.85-1.26-19.12,0-38.32-2.23-57.39-2.65-22.74-12-43.67-29.19-59.17-34.1-30.69-85.67-29.15-120.6-.72-16.09,13.09-27.91,32-31.38,52.55-2.74,16.3-.53,34.35,4.61,50a136.39,136.39,0,0,0,16.77,33.51c6.87,10.21,12.57,19.71,14.5,32.09,3.33,21.26-3.09,43.34-11.28,62.79-3.31,7.85-7.12,15.49-11,23.06C6518.17,3026.19,6528.52,3032.26,6532.06,3025.39Z" transform="translate(-61.88 1471.36)"/><path d="M6506.87,2702.64c3,1,10.68-1.28,17.83-.18,14.17,2.18,21.17,11.18,25.81,18.61,11.7,18.73,15.61,37.5,4.44,57.35-9,15.95,12.51,16.68,21.29,16.35a12.15,12.15,0,0,0,6.24-2l29.27-19.51a12,12,0,0,0,2.66-2.42l2-2.45c3.56-4.35,1.65,6.53-4.55,5.29-6.71-1.34-14.34-12.45-19-14-3.73-1.24-7.1-22.71-22-46.74-12-19.26-28.6-27.16-36.81-32.41a12.13,12.13,0,0,0-13.27.12C6514.19,2685,6497.64,2699.57,6506.87,2702.64Z" transform="translate(-61.88 1471.36)"/><path d="M6629.06,2644.06a86.67,86.67,0,0,0,9.89-5.91c1.87-1.35,8.94-6.22,8.39-9.11-.19-1-1.65-.76-1.81.24,0,0,1.61,2,1.53,1.89a36.09,36.09,0,0,1,3.46,6.11,60.67,60.67,0,0,1,4.21,14.09c3.57,19,.88,38.25-10.08,54.36a57.91,57.91,0,0,1-19.85,18.52c-6.92,3.74-17.76,6.29-25.21,2.72-1-.49-.51-.19-1.63-1.37a35,35,0,0,1-2.45-2.72,38.06,38.06,0,0,1-5.08-8.75,38.61,38.61,0,0,1-1.22-25.58c5.71-19.78,22.37-34.86,39.85-44.49,6.77-3.73.72-14.1-6.05-10.37-19.73,10.87-37.47,27.8-44.73,49.6-5.79,17.41-2,42,14.06,53.22,8.62,6,22.71,4.54,32,1.06,9.89-3.71,18.48-10.55,25.22-18.58,16.23-19.35,21.06-43.24,17.25-67.83a73.14,73.14,0,0,0-5.32-18.63c-2.41-5.42-6-12.45-11.95-14.61-6.53-2.37-10,1.56-13.23,6.48-2.88,4.38-8.82,6.88-13.29,9.29C6616.2,2637.36,6622.26,2647.72,6629.06,2644.06Z" transform="translate(-61.88 1471.36)"/><path d="M6629.33,3604.78s11.52-13.12.84-53.05c-9.66-36.11-15.35-20.89-15.17-37.09.16-2.25,4.69-9.81,15.17-3.93,10.25,5.75,26.3,28.4,28.4,73.63.26,5.52,2.27,10.14,1.56,14C6657.88,3610.84,6624.25,3594.68,6629.33,3604.78Z" transform="translate(-61.88 1471.36)"/><path d="M6537.1,3543.84a65.67,65.67,0,0,1,6.51-1.28c.51-.08,1.73-.24.54-.08l1.83-.23c1.36-.14,2.71-.27,4.07-.36,3.15-.22,6.32-.29,9.48-.2,15.22.44,30.54,5.13,41.77,15.81,9,8.56,14.46,19.76,17.82,31.59l4.2-7.38c-8.19,2.44-14.43,3-23.08,3-15.4,0-31.09-4.15-42.32-15.28-9-8.93-13.85-20.77-16.63-33-1.72-7.53-13.29-4.34-11.57,3.19,5.15,22.65,18,42.48,40,51.52,14.72,6,31.09,6.55,46.66,4.21a74.65,74.65,0,0,0,10.13-2.1,6.1,6.1,0,0,0,4.19-7.38c-6.19-21.74-19.39-40.72-40.6-49.8-14.23-6.09-30.16-7.56-45.44-5.69a79.73,79.73,0,0,0-10.75,1.86C6526.45,3534.26,6529.61,3545.83,6537.1,3543.84Z" transform="translate(-61.88 1471.36)"/><path d="M6785.7,3839.35c7.72,0,7.73-12,0-12s-7.74,12,0,12Z" transform="translate(-61.88 1471.36)"/><path d="M6780.52,3836.37a202,202,0,0,1,18.26,83.49c0,7.72,12,7.73,12,0v-.09h-12c.64,54.29-30.37,105.89-77.39,132.42a153.28,153.28,0,0,1-42.81,16.17c-7.54,1.65-4.35,13.22,3.19,11.57,56.95-12.45,104.08-55.44,121.56-111.09a158.92,158.92,0,0,0,7.45-49.07c-.09-7.71-12-7.74-12,0v.09h12a216.2,216.2,0,0,0-19.9-89.54c-3.2-7-13.55-.93-10.36,6Z" transform="translate(-61.88 1471.36)"/><path d="M6730.05,3680.72c-4.09-30.09-14.46-63-43.4-77.91-28.7-14.74-70.27-11.93-94.26,10.64-20.2,19-26.31,48-29.34,74.43-1.45,12.72-1.65,25.69-3.89,38.31-3.14,17.68-11.42,32.17-21.43,46.8-15.57,22.71-30.56,45.59-40.58,71.4a210.22,210.22,0,0,0-13.93,75.47h12v-.09c0-7.72-11.91-7.73-12,0-.47,39.48,14.84,78.1,40.45,107.84,5.05,5.86,13.5-2.66,8.48-8.49-23.53-27.33-37.36-63.14-36.93-99.35h-12v.09c0,7.72,12,7.73,12,0a199.74,199.74,0,0,1,10.26-63.35c7.77-23.09,20-44.15,33.58-64.28,9.59-14.26,20.17-28,26.49-44.1,5.5-14,6.71-29,7.94-43.81,2-23.78,4.47-49.29,17.34-70,15.88-25.6,48.08-32.79,76.18-26,16.7,4,29.85,14.41,38.13,29.37,7.83,14.14,11.18,30.39,13.33,46.26.44,3.23,4.56,4.93,7.39,4.19,3.47-.92,4.62-4.19,4.19-7.38Z" transform="translate(-61.88 1471.36)"/><path d="M6724.26,3688.31c7.72,0,7.73-12,0-12s-7.73,12,0,12Z" transform="translate(-61.88 1471.36)"/><path d="M6627.35,4136c12.38-15.43,23.81-31.92,30.19-50.82a94.54,94.54,0,0,0,3.13-48.35c-3.58-18.26-11.18-35.53-17.38-53-6.28-17.69-10.42-35.86-10.45-54.74-.05-35.54,18.79-66.38,49.77-83.4,14.82-8.14,30.75-13.31,47.29-16.58,17.75-3.51,35.91-5.65,53.22-11.08a95.13,95.13,0,0,0,42.26-26.78c13.83-15.29,22.66-34.12,29.93-53.21,3.44-9-11.06-12.93-14.46-4-11.11,29.17-27.9,58.09-59.08,68.65-16.87,5.72-34.75,7.95-52.18,11.24a188.11,188.11,0,0,0-48.87,15.85c-31.29,15.39-55.07,43.54-61.07,78.4-3.3,19.23-1.73,39.21,2.61,58.16,4,17.6,11.57,34.26,17.4,51.3,5.95,17.37,10.13,34.86,6.26,53.18-4.33,20.5-16.25,38.45-29.18,54.55-2.55,3.19-3.05,7.49,0,10.61,2.6,2.65,8.08,3.15,10.61,0Z" transform="translate(-61.88 1471.36)"/><path d="M6535.15,4078.82c11.11-29.17,27.9-58.09,59.08-68.65,16.87-5.72,34.75-8,52.18-11.24a188.11,188.11,0,0,0,48.87-15.85c31.29-15.39,55.07-43.54,61.07-78.4,3.3-19.23,1.73-39.21-2.61-58.16-4-17.6-11.57-34.26-17.4-51.3-5.95-17.37-10.13-34.85-6.26-53.18,4.33-20.5,16.25-38.45,29.18-54.55,2.55-3.19,3.05-7.49,0-10.61-2.6-2.65-8.08-3.15-10.61,0-12.38,15.43-23.81,31.92-30.19,50.82a94.55,94.55,0,0,0-3.13,48.35c3.58,18.26,11.18,35.53,17.38,53,6.28,17.69,10.42,35.86,10.45,54.74.05,35.54-18.79,66.38-49.77,83.4-14.82,8.14-30.75,13.31-47.29,16.58-17.75,3.51-35.91,5.65-53.22,11.08a95.13,95.13,0,0,0-42.26,26.78c-13.83,15.29-22.66,34.12-29.93,53.21-3.44,9,11.06,12.94,14.46,4Z" transform="translate(-61.88 1471.36)"/><line class="cls-1" x1="6659.22" y1="5208.4" x2="6756.17" y2="5263.93"/><line class="cls-1" x1="6663.51" y1="5248.23" x2="6719.65" y2="5280.38"/><line class="cls-1" x1="6644.91" y1="5303.05" x2="6681.77" y2="5324.16"/><line class="cls-1" x1="6602.49" y1="5319.88" x2="6688.72" y2="5369.27"/><line class="cls-1" x1="6578.59" y1="5349.18" x2="6675.54" y2="5404.71"/><line class="cls-1" x1="6565.1" y1="5383.52" x2="6652.74" y2="5433.72"/><line class="cls-1" x1="6569.53" y1="5428.12" x2="6612.03" y2="5452.46"/><line class="cls-1" x1="6537.06" y1="5475" x2="6588.03" y2="5504.19"/><line class="cls-1" x1="6497.95" y1="5489.97" x2="6594.9" y2="5545.5"/><line class="cls-1" x1="6675.34" y1="5180.26" x2="6772.29" y2="5235.78"/><line class="cls-1" x1="6481.83" y1="5518.11" x2="6578.78" y2="5573.64"/><path d="M6614.25,3283.7c19-30.42,32.72-65.59,20.95-101.36-5.79-17.58-15.1-33.81-23.31-50.32-8.54-17.16-15.14-35.36-17.17-54.55-3.79-36,12.17-69.08,42-89.21,14.23-9.62,29.52-16.3,45.85-21.41,16.92-5.3,34.17-9.78,50.35-17.16,35-16,51.4-50.63,60.34-86.18,2.36-9.36-12.1-13.36-14.46-4-7.56,30.08-20.13,60.32-49.21,75.17-15.35,7.84-32.48,12-48.87,17s-32.09,11.36-46.75,20.46c-30.52,19-51.49,48.87-54.51,85.21-1.66,20,2.52,41,9.46,59.72,6.36,17.15,15.7,33,23.59,49.44,8,16.72,13.59,33.51,11.88,52.26-1.88,20.75-12.24,40-23.08,57.32-5.13,8.21,7.84,15.75,12.95,7.57Z" transform="translate(-61.88 1471.36)"/><path d="M6515.21,3239.4c7.56-30.08,20.13-60.32,49.21-75.17,15.35-7.84,32.48-12,48.87-17s32.09-11.36,46.75-20.46c30.52-19,51.49-48.87,54.51-85.21,1.66-20-2.52-41-9.46-59.72-6.36-17.14-15.7-33-23.59-49.44-8-16.72-13.59-33.51-11.88-52.26,1.88-20.75,12.24-40,23.08-57.32,5.13-8.21-7.84-15.75-12.95-7.57-19,30.42-32.72,65.59-20.95,101.36,5.79,17.59,15.1,33.81,23.31,50.32,8.54,17.16,15.14,35.36,17.17,54.55,3.79,36-12.17,69.08-42,89.21-14.23,9.62-29.52,16.3-45.85,21.41-16.92,5.3-34.17,9.78-50.35,17.16-35,16-51.4,50.63-60.34,86.18-2.36,9.36,12.1,13.36,14.46,4Z" transform="translate(-61.88 1471.36)"/><line class="cls-1" x1="6598.15" y1="4348.69" x2="6700.93" y2="4392.48"/><line class="cls-1" x1="6607.07" y1="4387.74" x2="6666.59" y2="4413.1"/><line class="cls-1" x1="6595.02" y1="4444.37" x2="6634.1" y2="4461.01"/><line class="cls-1" x1="6554.86" y1="4466.05" x2="6646.29" y2="4504.99"/><line class="cls-1" x1="6534.56" y1="4497.95" x2="6637.35" y2="4541.74"/><line class="cls-1" x1="6525.19" y1="4533.63" x2="6618.11" y2="4573.21"/><line class="cls-1" x1="6534.82" y1="4577.4" x2="6579.87" y2="4596.59"/><line class="cls-1" x1="6508.06" y1="4627.76" x2="6562.09" y2="4650.78"/><line class="cls-1" x1="6470.97" y1="4647.21" x2="6573.76" y2="4691"/><line class="cls-1" x1="6610.86" y1="4318.85" x2="6713.65" y2="4362.64"/><line class="cls-1" x1="6458.26" y1="4677.05" x2="6561.05" y2="4720.84"/><path d="M6697.27,2444.94c14.72-33.24,23.52-69.45,7.08-103.79-7.91-16.53-19.47-31.1-29.82-46.11-11-16-20.05-32.86-25.08-51.73-9.46-35.54,2.15-70.78,29-95.27,12.78-11.65,27.27-20.37,42.82-27.8,15.78-7.54,32.22-14.2,46.88-23.85a94.48,94.48,0,0,0,32.65-36.65c9-18.09,12.59-38.08,14.68-58,.42-4-3.75-7.5-7.5-7.5-4.41,0-7.08,3.45-7.5,7.5-3.17,30.34-11.68,62.37-38.22,80.58-14.2,9.75-30.36,16.39-45.87,23.7s-29.77,15.68-43,26.63c-27.7,22.88-44.84,56.38-42.12,92.84,1.5,20,8.42,39.74,17.86,57.37,8.55,16,20.11,30.15,30.11,45.19s18.3,30.75,19.25,49.21c1.08,20.87-5.85,41.27-14.19,60.12-1.65,3.73-1,8,2.69,10.26,3.18,1.9,8.63,1,10.26-2.69Z" transform="translate(-61.88 1471.36)"/><path d="M6593.49,2413.19c3.17-30.34,11.68-62.37,38.22-80.58,14.2-9.75,30.36-16.39,45.87-23.7s29.77-15.68,43-26.63c27.7-22.88,44.84-56.38,42.12-92.84-1.5-20-8.42-39.73-17.86-57.37-8.55-16-20.11-30.15-30.11-45.19s-18.3-30.75-19.25-49.2c-1.08-20.88,5.85-41.28,14.19-60.12,1.65-3.74,1-8-2.69-10.27-3.18-1.9-8.63-1-10.26,2.69-14.72,33.24-23.52,69.45-7.08,103.79,7.91,16.53,19.47,31.1,29.82,46.11,11,16,20.05,32.87,25.08,51.73,9.46,35.54-2.15,70.78-29,95.27-12.78,11.65-27.27,20.37-42.82,27.8-15.78,7.54-32.22,14.2-46.88,23.85a94.48,94.48,0,0,0-32.65,36.65c-9,18.09-12.59,38.08-14.68,58-.42,4,3.75,7.5,7.5,7.5,4.41,0,7.08-3.45,7.5-7.5Z" transform="translate(-61.88 1471.36)"/><line class="cls-1" x1="6623.65" y1="3506.58" x2="6731.6" y2="3535.37"/><line class="cls-1" x1="6638.01" y1="3543.97" x2="6700.52" y2="3560.65"/><line class="cls-1" x1="6634.1" y1="3601.74" x2="6675.14" y2="3612.68"/><line class="cls-1" x1="6597.41" y1="3628.88" x2="6693.43" y2="3654.49"/><line class="cls-1" x1="6581.83" y1="3663.34" x2="6689.78" y2="3692.13"/><line class="cls-1" x1="6577.61" y1="3699.99" x2="6675.19" y2="3726.02"/><line class="cls-1" x1="6593.33" y1="3741.95" x2="6640.65" y2="3754.57"/><line class="cls-1" x1="6573.98" y1="3795.59" x2="6630.72" y2="3810.73"/><line class="cls-1" x1="6540.02" y1="3820.1" x2="6647.97" y2="3848.9"/><line class="cls-1" x1="6632" y1="3475.24" x2="6739.95" y2="3504.04"/><line class="cls-1" x1="6531.66" y1="3851.44" x2="6639.61" y2="3880.23"/><path d="M6596.58,1593.4c-8.44-16.52-16.12-34.41-17.46-53.14-1.13-15.82,2.47-30.67,9.69-44.71,8.34-16.22,19-31.09,28-46.93,9.55-16.8,16.71-35.7,19.45-54.88a108.18,108.18,0,0,0-36.48-97.68,167.59,167.59,0,0,0-42.58-27c-16.16-7.1-33-12.72-48.77-20.64-14.34-7.21-26.43-17.08-34.87-30.87-10-16.34-14.4-35.43-17.41-54.15-.65-4-5.63-6.25-9.23-5.24-4.25,1.19-5.89,5.19-5.24,9.22,5.16,32,15.92,63.66,42.65,83.94,13.57,10.3,30.06,16.43,45.75,22.7s31.2,12.67,45.39,22.23c13.69,9.22,26,20.54,34.49,34.85a91.28,91.28,0,0,1,12.42,52.14c-1.18,19.38-8.06,39-17.44,55.87-9,16.14-19.8,31.16-28.39,47.51s-13.67,34.21-12.47,52.95c1.38,21.75,9.74,42.18,19.54,61.38,4.4,8.6,17.34,1,13-7.57Z" transform="translate(-61.88 1471.36)"/><path d="M6700.32,1561.52c-5.16-32-15.92-63.66-42.65-83.94-13.57-10.3-30.06-16.43-45.75-22.7s-31.2-12.67-45.39-22.22c-13.69-9.23-26-20.55-34.49-34.86a91.28,91.28,0,0,1-12.42-52.14c1.18-19.38,8.06-39,17.44-55.87,9-16.14,19.8-31.16,28.39-47.51s13.67-34.21,12.47-53c-1.38-21.75-9.74-42.18-19.54-61.38-4.4-8.6-17.34-1-13,7.57,8.44,16.52,16.12,34.41,17.46,53.14,1.13,15.82-2.47,30.67-9.69,44.71-8.34,16.22-19,31.09-28,46.93-9.55,16.8-16.71,35.7-19.45,54.88a108.18,108.18,0,0,0,36.48,97.68,167.59,167.59,0,0,0,42.58,27c16.16,7.1,33,12.72,48.77,20.65,14.34,7.2,26.43,17.07,34.87,30.86,10,16.35,14.4,35.43,17.41,54.15.65,4,5.63,6.25,9.23,5.24,4.25-1.19,5.89-5.19,5.24-9.22Z" transform="translate(-61.88 1471.36)"/><line class="cls-1" x1="6511.05" y1="2663.4" x2="6404.98" y2="2698.09"/><line class="cls-1" x1="6498.8" y1="2701.49" x2="6437.37" y2="2721.58"/><line class="cls-1" x1="6505.88" y1="2758.88" x2="6465.56" y2="2772.07"/><line class="cls-1" x1="6543.97" y1="2783.93" x2="6449.63" y2="2814.78"/><line class="cls-1" x1="6561.42" y1="2817.44" x2="6455.35" y2="2852.12"/><line class="cls-1" x1="6567.66" y1="2853.75" x2="6471.77" y2="2885.1"/><line class="cls-1" x1="6554.29" y1="2896.47" x2="6507.79" y2="2911.68"/><line class="cls-1" x1="6576.56" y1="2948.9" x2="6520.8" y2="2967.14"/><line class="cls-1" x1="6611.78" y1="2971.47" x2="6505.71" y2="3006.15"/><line class="cls-1" x1="6500.98" y1="2632.61" x2="6394.91" y2="2667.29"/><line class="cls-1" x1="6621.85" y1="3002.26" x2="6515.78" y2="3036.94"/></g><g id="icon_-_cutout" data-name="icon - cutout"><path d="M5972.65,3049.29c-9.65-27.65-24.56-53.81-48.48-76.58-52.1-49.63-48.35-69.25-49-100.38-.53-26.46-.6-50-10.52-67.55a82.45,82.45,0,0,0-73.77-45.62c-45.38,0-86.89,35.48-87.89,81.48,0,.13,0,.26,0,.39a71.14,71.14,0,0,1,57.79-30.07,64.65,64.65,0,0,1,57.85,35.77c7.78,13.79,7.84,32.23,8.26,53,.5,24.41-2.44,39.8,38.42,78.72,18.76,17.86,30.45,38.38,38,60.07,4.19,12,5.76,29.29,5.76,41.13a108,108,0,0,1-108,108c-39.14,0-72.6-20.87-91.52-52,16,59.6,68.35,103.83,132.69,103.83A137.7,137.7,0,0,0,5980,3101.73C5980,3086.64,5978,3064.64,5972.65,3049.29Z" transform="translate(-61.88 1471.36)"/><path d="M5693,2702.64c3,1,10.68-1.28,17.83-.18,14.17,2.18,21.17,11.18,25.81,18.61,11.71,18.73,15.61,37.5,4.45,57.35-9,15.95,12.5,16.68,21.28,16.35a12.12,12.12,0,0,0,6.24-2l29.27-19.51a12.28,12.28,0,0,0,2.67-2.42l2-2.45c3.56-4.35,1.65,6.53-4.55,5.29-6.71-1.34-14.34-12.45-19-14-3.72-1.24-7.09-22.71-22-46.74-12-19.26-28.6-27.16-36.8-32.41a12.13,12.13,0,0,0-13.27.12C5700.32,2685,5683.78,2699.57,5693,2702.64Z" transform="translate(-61.88 1471.36)"/><path d="M5827.17,2655.88c4.28-2.32,13.83-7.24,15.89-12.35,2-4.9,6-3.85,8.68-.58,10.26,12.69,12.4,34.27,11.26,49.69-2,27-23,52-42.52,57.24-9,2.41-19.48,1.76-23.57-1.24-5-3.68-17.61-19.11-13.34-40.64C5786.92,2691.14,5801,2670,5827.17,2655.88Z" transform="translate(-61.88 1471.36)"/><path d="M5764.12,3614.78s11.35-13.08.83-53.05S5746,3527,5746,3527s8.41-11.57,18.93-6.31,26.3,28.4,28.4,73.63,23.58,30.5,23.58,30.5Z" transform="translate(-61.88 1471.36)"/><path d="M5670.28,3548.06s70.48-18.94,89.41,49.43C5759.69,3597.49,5686.06,3619.58,5670.28,3548.06Z" transform="translate(-61.88 1471.36)"/><path d="M5939.56,3929.77v.09c0-35.53-8.32-71-31.34-109.72-25.55-42.92-41.8-52.24-45.83-93-3.75-38-3.13-117-80.46-117h-.3c-48.95,0-66.66,31.69-74,64.58,8.69-7.95,20.86-13.06,38.06-13.06h.24c59.34,0,58.87,60.69,61.75,89.82,3.09,31.27,15.56,38.43,35.16,71.37,17.67,29.68,24.06,56.93,24.06,84.2v0a121.09,121.09,0,0,1-242.09,4.45q-.79,9.21-.78,18.38v0a157.78,157.78,0,0,0,315.56,0Z" transform="translate(-61.88 1471.36)"/><path d="M5972.22,983.17c-3.57-2.22-37.1-21.63-81,2.52s-47.36,62.77-47.62,67c0,0,37.41,21.83,81.32-2.32S5972.22,983.17,5972.22,983.17Z" transform="translate(-61.88 1471.36)"/><path d="M5929.55,1321.16c-5.65-33.94-25.56-95.28-29-129s-6.39-77.27-25.56-99.93c-13.89-16.41-34.86-26.72-53.45-29,0,0,2.65-41.51,18.91-61.26,15.28-18.55,28.22-27.14,41.29-27.15a7,7,0,0,0,6.46-4,7.26,7.26,0,0,0-.43-6.37c-3.49-7-16.27-16.27-16.27-16.27s-13.46-9.55-29.72,2.65c-15.13,11.35-20.24,20.59-29.54,39.18s-16.26,52.28-18.59,72c0,0-32,5.93-51.12,26.72-14.06,15.31-21.73,31.56-26.51,50.94,66-56.08,126-15.08,121,33.92-8.18,80.21,10.05,132.35,25,183,18,61-50,121-132,105-52-10.15-92.3-48.34-126.4-106.4-10.3,52.23,4.36,111.06,51.75,147.17,73.2,55.77,205.65,59.26,259.1-48.8C5935.36,1410.62,5935.36,1356,5929.55,1321.16Z" transform="translate(-61.88 1471.36)"/><path d="M5738,1915.55s-7-31-34.66-63.33c0,0-14.65-10.62-3.7-13.84a74.43,74.43,0,0,1,28.62-2.77,140.74,140.74,0,0,1,22.15,31.38c10.16,19.39,18.46,45.23,21.23,58.16S5738,1915.55,5738,1915.55Z" transform="translate(-61.88 1471.36)"/><path d="M5724.55,1900.39a10.23,10.23,0,0,0,0-1.75,27.32,27.32,0,0,0-1.13-5.31c-6.72-21.45-40.16-37.31-46.87-39.94-8.11-3.18-33-13.47-53.3-9.88-7.95,1.4-10.92,3.75-11.66,6-1.32,2-1.36,5.76,2.18,12.84,9.23,18.46,32.31,32.31,39.69,36.92,6.11,3.82,38.77,21.23,60,13.85a25,25,0,0,0,6.11-3A13.47,13.47,0,0,0,5724.55,1900.39Z" transform="translate(-61.88 1471.36)"/><path d="M5927,2118.64c-41.76-19.36-47.87-71.19-52.49-88.73-2.7-10.27-24.92-115.38-97.38-121.38-74.28-6.15-88.61,39.69-91.38,52.62-3.54,17.27-1.35,34.75,2.4,52.14,19.74-21.14,46.86-43.65,72.85-43.65,60,0,57,85,60,128s16.36,74.39,68,83c48,8,39.16,58.23,29,85-22,58-160,117.23-270-3.11,7.42,63.89,61.62,109.72,107.93,121,99.1,24.12,194.63-22.45,222.53-80.61C6007.3,2242.74,5993.25,2149.35,5927,2118.64Z" transform="translate(-61.88 1471.36)"/></g><g id="icon_-_line" data-name="icon - line"><path d="M5010.84,956.63a14.19,14.19,0,0,1,6.93,1.79,81.66,81.66,0,0,1,10.11,8.81,48,48,0,0,0-19.5,7.85c-7.56,5-15.31,12.36-23.69,22.52-18.11,22-21,65.15-21.17,67l-.6,9.39,9.34,1.17c17.52,2.19,35.55,12,47.05,25.58,15.66,18.51,19.41,56.12,22.43,86.34.27,2.77.55,5.49.82,8.16,2,19.75,9.31,47.84,16.34,75,5.35,20.69,10.4,40.22,12.79,54.58,5.83,35,5.16,86.55-14.22,126.4-13.55,27.39-33,48.37-57.8,62.35-22.16,12.49-48.55,19.09-76.3,19.09-39.7,0-79.78-13.19-110-36.18-29.62-22.57-47.56-56.65-50.52-96a154.83,154.83,0,0,1,7.68-60.75c6.57-19.43,17-36.83,30-50.31,21.86-22.57,40.35-49.69,54.95-80.62,14.1-29.87,19.52-52.76,20.85-59.06,4.69-22.29,12.31-37.91,25.47-52.23,16.52-18,45.31-23.6,45.58-23.65l7.24-1.35.87-7.32c2.5-21.25,9.52-52.56,17.6-68.73,8.94-17.88,13.1-25.54,26.59-35.65,3.72-2.79,7.45-4.21,11.1-4.21m0-10c-4.85,0-10.76,1.45-17.1,6.21-15.13,11.35-20.24,20.59-29.54,39.18s-16.26,52.28-18.59,72c0,0-32,5.93-51.12,26.72-15.49,16.86-23.24,34.86-27.88,56.93s-24.58,84.6-73.2,134.78c-54.41,56.15-59.26,166.15,13.94,221.92,31.4,23.93,73.72,38.23,116,38.23,56.29,0,112.56-25.33,143.08-87,20.91-43,20.91-97.6,15.1-132.45-5.65-33.94-25.56-95.28-29-129s-6.39-77.27-25.56-99.93c-13.89-16.41-34.86-26.72-53.45-29,0,0,2.65-41.51,18.91-61.26,15.28-18.55,28.22-27.14,41.29-27.15a7,7,0,0,0,6.46-4,7.26,7.26,0,0,0-.43-6.37c-3.49-7-16.27-16.27-16.27-16.27a23.42,23.42,0,0,0-12.62-3.56Z" transform="translate(-61.88 1471.36)"/><path d="M5084.26,983.7a67.53,67.53,0,0,1,25.85,5c-2.78,11.71-11.95,36.88-41,52.87a78.66,78.66,0,0,1-38.22,10.13,77,77,0,0,1-27.29-5A70.8,70.8,0,0,1,5009,1031c7.34-15.15,19.44-27.45,36-36.55,13-7.14,26.18-10.76,39.23-10.76m0-10c-12.53,0-27.55,2.92-44.05,12-43.88,24.14-47.36,62.77-47.62,67,0,0,15.51,9,38.28,9a88.43,88.43,0,0,0,43-11.37c43.88-24.13,47.31-67.21,47.31-67.21-2.22-1.39-16.14-9.47-37-9.47Z" transform="translate(-61.88 1471.36)"/><path d="M4869.91,1845.25a5.69,5.69,0,0,1,4.38,2.1,138.76,138.76,0,0,1,16.21,24.28,253.77,253.77,0,0,1,15.88,39.37l2.15,6.85,7.18.15c3.12.06,6.34.23,9.6.5,25.58,2.12,47.36,18.91,64.73,49.93,14.37,25.66,21,52.82,23.23,61.75.24,1,.43,1.75.57,2.28.52,2,1.1,4.57,1.76,7.58,2.46,11.18,6.18,28.07,14.19,44.47,9.93,20.35,24.07,34.89,42,43.2,29.88,13.85,44.47,39.95,51.46,59.4a150.49,150.49,0,0,1,8.25,57.13c-.9,19.59-5.42,38.38-13.08,54.34-10.44,21.76-31.47,42-59.2,56.86-29.93,16.08-64.55,24.58-100.12,24.58a219.33,219.33,0,0,1-51.84-6.22c-17.42-4.24-35.78-13.79-51.69-26.91-17.5-14.42-31.2-32.35-39.62-51.84-16.1-37.28-12.33-78.58,10.88-119.43,23.63-41.6,37.62-69.61,32.6-107.78-1.62-12.34-4.76-24.84-7.79-36.94-5.93-23.67-11.54-46-7.1-67.7a55.83,55.83,0,0,1,9.68-21.28c7.85-10.46,19.25-17.6,33.91-21.2l11.16-2.76-4.27-10.68-.14-.35c-.3-1-.63-2-1-3.2-3.5-11.62-10-33.24-32-54.31-.95-.91-2.08-1.85-3.28-2.82a73.23,73.23,0,0,1,11.22-1.35h.05m0-10h-.14c-5.25,0-12.65,1.35-21.18,3.13-15.59,3.26,1.51,13.56,6.41,18.26,22.27,21.37,27.1,43.18,30.36,53.34.11.35.25.69.38,1-39.57,9.72-48.82,40-51,50.14-7.39,36,10.15,72.92,14.77,108s-8.31,60.93-31.39,101.54c-62.24,109.54,20.4,196.69,86.77,212.84a229.05,229.05,0,0,0,54.2,6.5c77.92,0,145.59-39.7,168.33-87.11,28.87-60.17,14.82-153.56-51.43-184.27-41.76-19.36-47.87-71.19-52.49-88.73-2.7-10.27-24.92-115.38-97.38-121.38-3.54-.29-6.94-.47-10.22-.53-4-12.8-9.89-28.29-16.55-41a149.21,149.21,0,0,0-17.39-26,15.75,15.75,0,0,0-12.06-5.69Z" transform="translate(-61.88 1471.36)"/><path d="M4781.3,1852.76c15.4,0,32.32,6.68,39.54,9.53l1,.41a119.77,119.77,0,0,1,21.37,11.81c10.68,7.42,17.46,15,19.6,21.81a16.6,16.6,0,0,1,.73,3.32,3.92,3.92,0,0,1-1,2.45,15.84,15.84,0,0,1-3.47,1.61,25.88,25.88,0,0,1-8.47,1.25c-16.88,0-38.16-11.14-42.94-14.13l-.94-.59c-7.52-4.68-27.5-17.1-35.11-32.32a28.67,28.67,0,0,1-1.55-3.64,27.36,27.36,0,0,1,3.83-.91,42,42,0,0,1,7.33-.6m0-10a52.38,52.38,0,0,0-9.07.75c-7.95,1.4-10.92,3.75-11.66,6-1.32,2-1.36,5.76,2.18,12.84,9.23,18.46,32.31,32.31,39.69,36.92,5.06,3.17,28.34,15.65,48.24,15.65a36,36,0,0,0,11.76-1.8,25,25,0,0,0,6.11-3,13.47,13.47,0,0,0,5-9.76,10.23,10.23,0,0,0,0-1.75,27.32,27.32,0,0,0-1.13-5.31c-6.72-21.45-40.16-37.31-46.87-39.94-6.93-2.72-26.11-10.63-44.23-10.63Z" transform="translate(-61.88 1471.36)"/><path d="M4864,2690.65a8.77,8.77,0,0,1,2.8.48c7.42,2.47,18.64,6.21,32.12,24.45,10.85,14.69,14.72,30.09,17,39.29,1.39,5.52,2.15,8.56,4.33,11.18l.24.27.06.08,3.53,4.18,5.43-.72a78.33,78.33,0,0,1,10.31-.7,72.46,72.46,0,0,1,64.82,40.09l.12.23.12.21c8.28,14.69,8.7,35.54,9.17,59.69l.07,3.16c0,2.18.06,4.31.08,6.39.35,32.25,3,54.38,52,101,20.74,19.75,35.76,43.51,45.93,72.63,5,14.39,6.79,35.47,6.79,49.15a127.69,127.69,0,0,1-127.71,127.7,124.67,124.67,0,0,1-89.35-37.41c-23.64-23.95-37.26-56.13-38.36-90.61v-.07c-.66-17,0-39.74,11.43-64.6,8.73-16.92,17.42-35.45,22-56.28,6.35-28.92,2.41-53.53-11.74-73.15-21.1-29.27-22.27-49.62-23.12-64.48,0-.81-.1-1.6-.14-2.37.72-25.77,16.55-49.64,41.41-62.38l3.55-1.82,1.32-3.76a54.79,54.79,0,0,0,1.88-29.89c-1.83-8.68-5.65-17.6-11.69-27.27-5.87-9.39-19.62-20.07-37.13-22.76-.91-.14-1.82-.24-2.71-.3a10.93,10.93,0,0,1,5.4-1.63m0-10a21.85,21.85,0,0,0-12,4c-6.58,4.37-15,14.39-6,18a8.34,8.34,0,0,0,3.19.66c2.37,0,4.3-1.07,7.75-1.07a19.68,19.68,0,0,1,2.89.23c14.17,2.18,25.53,10.75,30.17,18.18,10,16,14.73,31.86,8.86,48.54-26.7,13.68-46.18,40.13-46.86,71.46,1,16,1,39,25.16,72.52,28.78,39.92,1.82,94.1-11.14,119.2-13,28.28-13,54.28-12.43,69.37,2.41,75.91,61.65,137.7,137.7,137.7A137.7,137.7,0,0,0,5129,3101.73c0-15.09-2-37.09-7.35-52.44-9.65-27.65-24.56-53.81-48.48-76.58-52.1-49.63-48.35-69.25-49-100.38-.53-26.46-.6-50-10.52-67.55a82.45,82.45,0,0,0-73.77-45.62,86.5,86.5,0,0,0-11.63.79l-.26-.31c-2.51-3-4.19-27.25-21-50-15-20.26-28-25-37-28a18.68,18.68,0,0,0-6-1Z" transform="translate(-61.88 1471.36)"/><path d="M4996.27,2654.45a53.39,53.39,0,0,1,4.55,14.17,92.88,92.88,0,0,1,1.21,23.28c-.8,10.74-5.28,21.89-12.63,31.41-6.64,8.59-15,14.91-22.51,16.91a34.59,34.59,0,0,1-8.76,1.13,18.2,18.2,0,0,1-6.44-.88,28.81,28.81,0,0,1-6.86-9.66,33.34,33.34,0,0,1-2.45-20.87c2.63-13.23,14.13-32.07,38.54-45.27l.69-.37c5.14-2.76,10.62-5.92,14.66-9.85m-.26-14.28c-1.54,0-3,1-3.95,3.36-2.06,5.11-11.61,10-15.89,12.35-26.13,14.12-40.25,35.26-43.6,52.12-4.27,21.53,8.32,37,13.34,40.64,2.4,1.76,7,2.71,12.22,2.71a44.38,44.38,0,0,0,11.35-1.47c19.52-5.24,40.52-30.24,42.52-57.24,1.14-15.42-1-37-11.26-49.69a6.59,6.59,0,0,0-4.73-2.78Z" transform="translate(-61.88 1471.36)"/><path d="M4840.62,3545.65v10h0c12.67,0,23.7,2.71,32.79,8,9.68,5.69,17.09,14.49,22.09,26.23a90.5,90.5,0,0,1-11.69.78c-26.16,0-43.56-11.63-51.85-34.63,2.55-.25,5.48-.43,8.66-.43v-10m0,0a90.61,90.61,0,0,0-21.34,2.41c9.76,44.22,41.62,52.65,64.53,52.65a95.67,95.67,0,0,0,24.88-3.22c-12.18-44-45.72-51.84-68.07-51.84Z" transform="translate(-61.88 1471.36)"/><path d="M4918.17,3539.11a66.13,66.13,0,0,1,4,7.58c4,8.8,9,24.3,10.15,48.11a99.45,99.45,0,0,0,2.42,18.58l1.62,6.61,6.73.93c11.82,1.63,21.39,5.67,29.25,12.34,6.85,5.82,12.25,13.5,16.52,23.49,8.23,19.26,10.11,42.33,11.63,60.87.3,3.72.59,7.24.91,10.51,3.11,31.49,13.44,46.48,27.72,67.23,5.73,8.31,12.22,17.73,19.46,29.9,20.43,34.31,29.94,67.55,29.94,104.6h0v0a147.78,147.78,0,0,1-295.56,0v0c0-37.05,9.51-70.29,29.94-104.6,7.24-12.17,13.73-21.59,19.46-29.9,14.29-20.75,24.61-35.73,27.72-67.23.32-3.26.61-6.78.92-10.5,1.49-18.3,3.36-41.08,11.35-60.22,4.16-9.93,9.41-17.62,16.06-23.49,7.6-6.72,16.84-10.88,28.24-12.73l5.36-.87,2.19-5c4.22-9.55,7.73-27.05.46-56.15a131.75,131.75,0,0,0-6.53-20.1m-9.81-19.78a13.37,13.37,0,0,0-6.24,1.64c-5.12,2.67-3.87,5.71-1.58,8.42,4.46,5.25,9.46,12.25,14.46,32.25,7.19,28.74,2.79,43.57.09,49.68-61.71,10-61.44,80.61-64.92,115.83-4,40.75-20.27,50.07-45.82,93-23,38.69-31.35,74.19-31.35,109.72v0a157.78,157.78,0,0,0,315.56,0v0c0-35.53-8.32-71-31.34-109.72-25.55-42.92-41.8-52.24-45.83-93-3.51-35.59-3.19-107.34-66.89-116.14a87.85,87.85,0,0,1-2.15-16.67c-2.1-45.23-17.88-68.37-28.4-73.63a12.46,12.46,0,0,0-5.59-1.38Z" transform="translate(-61.88 1471.36)"/></g><g id="icon_-_base" data-name="icon - base"><path d="M4096.61,1062.06s-32,5.93-51.12,26.72c-15.49,16.86-23.24,34.86-27.88,56.93s-24.58,84.6-73.2,134.78c-54.41,56.15-59.26,166.15,13.94,221.92s205.65,59.26,259.1-48.8c20.91-43,20.91-97.6,15.1-132.45-5.65-33.94-25.56-95.28-29-129s-6.39-77.27-25.56-99.93c-13.89-16.41-34.86-26.72-53.45-29,0,0,2.65-41.51,18.91-61.26,15.28-18.55,28.22-27.14,41.29-27.15a7,7,0,0,0,6.46-4,7.26,7.26,0,0,0-.43-6.37c-3.49-7-16.27-16.27-16.27-16.27s-13.46-9.55-29.72,2.65c-15.13,11.35-20.24,20.59-29.54,39.18s-16.26,52.28-18.59,72" transform="translate(-61.88 1471.36)"/><path d="M4275.22,983.17c-3.57-2.22-37.1-21.63-81,2.52s-47.36,62.77-47.62,67c0,0,37.41,21.83,81.32-2.32S4275.22,983.17,4275.22,983.17Z" transform="translate(-61.88 1471.36)"/><path d="M3988.75,1961.15c2.77-12.93,17.1-58.77,91.38-52.62,72.46,6,94.68,111.11,97.38,121.38,4.62,17.54,10.73,69.37,52.49,88.73,66.25,30.71,80.3,124.1,51.43,184.27-27.9,58.16-123.43,104.73-222.53,80.61-66.37-16.15-149-103.3-86.77-212.84,23.08-40.62,36-66.46,31.39-101.54S3981.36,1997.14,3988.75,1961.15Z" transform="translate(-61.88 1471.36)"/><path d="M4041,1915.55s-7-31-34.66-63.33c0,0-14.65-10.62-3.7-13.84a74.43,74.43,0,0,1,28.62-2.77,140.74,140.74,0,0,1,22.15,31.38c10.16,19.39,18.46,45.23,21.23,58.16S4041,1915.55,4041,1915.55Z" transform="translate(-61.88 1471.36)"/><path d="M4027.55,1900.39a10.23,10.23,0,0,0,0-1.75,27.32,27.32,0,0,0-1.13-5.31c-6.72-21.45-40.16-37.31-46.87-39.94-8.11-3.18-33-13.47-53.3-9.88-7.95,1.4-10.92,3.75-11.66,6-1.32,2-1.36,5.76,2.18,12.84,9.23,18.46,32.31,32.31,39.69,36.92,6.11,3.82,38.77,21.23,60,13.85a25,25,0,0,0,6.11-3A13.47,13.47,0,0,0,4027.55,1900.39Z" transform="translate(-61.88 1471.36)"/><path d="M4020,3032.36c13-25.1,39.92-79.28,11.14-119.2-24.16-33.52-24.16-56.52-25.16-72.52,1-46,42.51-81.48,87.89-81.48a82.45,82.45,0,0,1,73.77,45.62c9.92,17.58,10,41.09,10.52,67.55.64,31.13-3.11,50.75,49,100.38,23.92,22.77,38.83,48.93,48.48,76.58,5.35,15.35,7.35,37.35,7.35,52.44a137.7,137.7,0,0,1-137.71,137.7c-76.05,0-135.29-61.79-137.7-137.7C4007,3086.64,4007,3060.64,4020,3032.36Z" transform="translate(-61.88 1471.36)"/><path d="M3996,2702.64c3,1,10.68-1.28,17.83-.18,14.17,2.18,21.17,11.18,25.81,18.61,11.71,18.73,15.61,37.5,4.45,57.35-9,15.95,12.5,16.68,21.28,16.35a12.12,12.12,0,0,0,6.24-2l29.27-19.51a12.28,12.28,0,0,0,2.67-2.42l2-2.45c3.56-4.35,1.65,6.53-4.55,5.29-6.71-1.34-14.34-12.45-19-14-3.72-1.24-7.09-22.71-22-46.74-12-19.26-28.6-27.16-36.8-32.41a12.13,12.13,0,0,0-13.27.12C4003.32,2685,3986.78,2699.57,3996,2702.64Z" transform="translate(-61.88 1471.36)"/><path d="M4130.17,2655.88c4.28-2.32,13.83-7.24,15.89-12.35,2-4.9,6-3.85,8.68-.58,10.26,12.69,12.4,34.27,11.26,49.69-2,27-23,52-42.52,57.24-9,2.41-19.48,1.76-23.57-1.24-5-3.68-17.61-19.11-13.34-40.64C4089.92,2691.14,4104,2670,4130.17,2655.88Z" transform="translate(-61.88 1471.36)"/><path d="M4067.12,3614.78s11.35-13.08.83-53.05S4049,3527,4049,3527s8.41-11.57,18.93-6.31,26.3,28.4,28.4,73.63,23.58,30.5,23.58,30.5Z" transform="translate(-61.88 1471.36)"/><path d="M3973.28,3548.06s70.48-18.94,89.41,49.43C4062.69,3597.49,3989.06,3619.58,3973.28,3548.06Z" transform="translate(-61.88 1471.36)"/><path d="M4242.56,3929.77v.09c0-35.53-8.32-71-31.34-109.72-25.55-42.92-41.8-52.24-45.83-93-3.75-38-3.13-117-80.46-117h-.3c-77.33,0-76.71,79.08-80.46,117-4,40.75-20.28,50.07-45.82,93-23,38.69-31.35,74.19-31.35,109.72v0a157.78,157.78,0,0,0,315.56,0Z" transform="translate(-61.88 1471.36)"/><path d="M6877.29,646.57c6.6-41.75,6.31-85.78-21.15-120.42-13.85-17.46-32-31.18-48.92-45.44s-32.54-29.55-44.91-48.22c-12.16-18.35-20.21-38.88-21.58-61a115.35,115.35,0,0,1,13.4-60.61c10.16-19.28,24.25-36.47,40.42-51,16.87-15.18,35.27-28.67,51.25-44.83,15.25-15.43,26.45-34,31.56-55.22,6.07-25.21,3.93-51.42-.07-76.77-.63-4-5.64-6.24-9.23-5.23-4.26,1.19-5.88,5.19-5.24,9.22,3.44,21.73,5.36,44.6.65,66.3a100.13,100.13,0,0,1-24.27,46.9c-15.36,16.65-33.74,30.22-50.78,45.06A214.52,214.52,0,0,0,6746,294.78c-23.45,38.29-26.86,84.67-7.85,125.52,9.34,20.05,23.5,38.84,39.4,54.16s33.82,28.43,50,43.43c15.87,14.68,28.47,31.12,34.32,52.21,6.52,23.52,4.65,48.66.88,72.48-.64,4,1,8,5.24,9.22,3.56,1,8.59-1.24,9.23-5.23Z" transform="translate(-61.88 1471.36)"/><path d="M6743.84,642.58c-3.44-21.73-5.36-44.6-.65-66.3a100.2,100.2,0,0,1,24.26-46.9c15.37-16.65,33.75-30.22,50.78-45.06a214.52,214.52,0,0,0,42.38-49.46c23.46-38.29,26.87-84.67,7.86-125.52-9.34-20-23.5-38.84-39.4-54.16s-33.82-28.43-50-43.43c-15.86-14.68-28.47-31.12-34.31-52.21-6.52-23.52-4.65-48.66-.88-72.48.63-4-1-8-5.24-9.22-3.56-1-8.6,1.24-9.23,5.23-6.6,41.75-6.31,85.78,21.15,120.42,13.84,17.46,32,31.18,48.92,45.44s32.53,29.55,44.91,48.22c12.15,18.35,20.21,38.88,21.57,61a115.25,115.25,0,0,1-13.39,60.61c-10.16,19.28-24.26,36.47-40.42,51-16.87,15.18-35.27,28.67-51.25,44.83-15.25,15.43-26.46,34-31.56,55.22-6.07,25.21-3.94,51.42.07,76.77.63,4,5.64,6.24,9.23,5.23,4.26-1.19,5.87-5.19,5.24-9.22Z" transform="translate(-61.88 1471.36)"/><line class="cls-1" x1="6673.2" y1="1635.08" x2="6810.65" y2="1635.08"/><line class="cls-1" x1="6702.12" y1="1674.98" x2="6781.72" y2="1674.98"/><line class="cls-1" x1="6715.79" y1="1744.88" x2="6768.05" y2="1744.88"/><line class="cls-1" x1="6680.79" y1="1788.78" x2="6803.05" y2="1788.78"/><line class="cls-1" x1="6673.2" y1="1834.68" x2="6810.65" y2="1834.68"/><line class="cls-1" x1="6679.79" y1="1879.58" x2="6804.05" y2="1879.58"/><line class="cls-1" x1="6711.79" y1="1924.48" x2="6772.05" y2="1924.48"/><line class="cls-1" x1="6705.79" y1="1994.38" x2="6778.05" y2="1994.38"/><line class="cls-1" x1="6673.2" y1="2034.28" x2="6810.65" y2="2034.28"/><line class="cls-1" x1="6673.2" y1="1595.18" x2="6810.65" y2="1595.18"/><line class="cls-1" x1="6673.2" y1="2074.18" x2="6810.65" y2="2074.18"/><image width="394" height="394" transform="translate(6457.12 826) scale(1.55)" xlink:href="../../Downloads/double_helix_sm.jpg"/></g><g id="font_ideas" data-name="font ideas"><text class="cls-2" transform="translate(72.12 4678.76)">BIOIN<tspan class="cls-3" x="325.07" y="0">F</tspan><tspan x="393.48" y="0">ORM</tspan><tspan class="cls-4" x="666.95" y="0">A</tspan><tspan x="740.15" y="0">TICS</tspan></text><text class="cls-2" transform="translate(72.12 4808.51)">OPEN SOURCE</text><text class="cls-2" transform="translate(72.12 4943.46)"><tspan class="cls-5">C</tspan><tspan x="80.88" y="0">ONFERENCE</tspan></text><text class="cls-2" transform="translate(1252.88 4684.26) rotate(-0.07)">BIOIN<tspan class="cls-3" x="325.07" y="0">F</tspan><tspan x="393.48" y="0">ORM</tspan><tspan class="cls-4" x="666.95" y="0">A</tspan><tspan x="740.15" y="0">TICS</tspan></text><text class="cls-6" transform="translate(1253.03 4814.01) rotate(-0.07)">OPEN SOURCE</text><text class="cls-7" transform="translate(1253.19 4948.96) rotate(-0.07)">C<tspan class="cls-8" x="102" y="0">ONFERENCE</tspan></text><text class="cls-9" transform="translate(2479.12 4704.66)">BIOIN<tspan class="cls-10" x="325.62" y="0">F</tspan><tspan x="394.13" y="0">ORM</tspan><tspan class="cls-11" x="668.06" y="0">A</tspan><tspan x="741.39" y="0">TICS</tspan></text><text class="cls-12" transform="translate(2477.13 4846.92) scale(1.03 1)">OPEN SOURCE</text><text class="cls-13" transform="translate(2475.13 4999.34)"><tspan class="cls-14">C</tspan><tspan x="101.72" y="0">ONFERENCE</tspan></text><text class="cls-15" transform="translate(0 4514.85)">ral<tspan class="cls-16" x="144.36" y="0">e</tspan><tspan class="cls-17" x="213.6" y="0">w</tspan><tspan class="cls-18" x="310.56" y="0">a</tspan><tspan class="cls-19" x="375" y="0">y</tspan><tspan x="437.16" y="0" xml:space="preserve"> medium</tspan></text><text class="cls-20" transform="translate(72.12 5645.76)">BIOIN<tspan class="cls-21" x="295.79" y="0">F</tspan><tspan x="355.3" y="0">ORM</tspan><tspan class="cls-22" x="607.3" y="0">A</tspan><tspan x="678.14" y="0">TI</tspan><tspan class="cls-23" x="772.08" y="0">C</tspan><tspan x="845.34" y="0">S</tspan></text><text class="cls-20" transform="translate(72.12 5775.51)">OPEN SOU<tspan class="cls-24" x="560.22" y="0">R</tspan><tspan x="635.13" y="0">CE</tspan></text><text class="cls-25" transform="translate(72.12 5910.46)">C<tspan class="cls-26" x="73.26" y="0">ONFERENCE</tspan></text><text class="cls-20" transform="translate(1289.88 5651.26) rotate(-0.07)">BIOIN<tspan class="cls-21" x="295.79" y="0">F</tspan><tspan x="355.3" y="0">ORM</tspan><tspan class="cls-22" x="607.3" y="0">A</tspan><tspan x="678.14" y="0">TI</tspan><tspan class="cls-23" x="772.08" y="0">C</tspan><tspan x="845.34" y="0">S</tspan></text><text class="cls-27" transform="translate(1290.03 5781.01) rotate(-0.07)">OPEN SOU<tspan class="cls-28" x="669.34" y="0">R</tspan><tspan class="cls-29" x="757.89" y="0">CE</tspan></text><text class="cls-30" transform="translate(1290.19 5915.96) rotate(-0.07)">C<tspan class="cls-31" x="94.27" y="0">ONFERENCE</tspan></text><text class="cls-20" transform="translate(2539.12 5641.66)">BIOIN<tspan class="cls-21" x="295.79" y="0">F</tspan><tspan x="355.3" y="0">ORM</tspan><tspan class="cls-22" x="607.3" y="0">A</tspan><tspan class="cls-32" x="678.14" y="0">TI</tspan><tspan class="cls-23" x="772.08" y="0">C</tspan><tspan x="845.34" y="0">S</tspan></text><text class="cls-33" transform="translate(2537.13 5797.29) scale(1.03 1)">OPEN SOU<tspan class="cls-34" x="640.16" y="0">R</tspan><tspan x="725.75" y="0">CE</tspan></text><text class="cls-35" transform="translate(2535.13 5960.18)"><tspan class="cls-36">C</tspan><tspan x="91.89" y="0">ONFERENCE</tspan></text><text class="cls-37" transform="translate(0 5482.45)">nunito <tspan class="cls-38" x="408.96" y="0">r</tspan><tspan x="452.64" y="0">egular</tspan></text><text class="cls-39" transform="translate(130.12 2761.76)">BIOINFOR<tspan class="cls-40" x="489.72" y="0">M</tspan><tspan class="cls-41" x="584.99" y="0">A</tspan><tspan class="cls-42" x="649.2" y="0">TICS</tspan></text><text class="cls-39" transform="translate(130.12 2891.51)">OPEN SOU<tspan class="cls-43" x="529.43" y="0">R</tspan><tspan class="cls-42" x="594.35" y="0">CE</tspan></text><text class="cls-39" transform="translate(130.12 3026.46)"><tspan class="cls-44">C</tspan><tspan x="67.08" y="0">ONFERENCE</tspan></text><text class="cls-39" transform="translate(1301.12 2750.76)">BIOINFOR<tspan class="cls-40" x="489.72" y="0">M</tspan><tspan class="cls-41" x="584.99" y="0">A</tspan><tspan class="cls-42" x="649.2" y="0">TICS</tspan></text><text class="cls-45" transform="translate(1301.12 2880.51)">OPEN SOU<tspan class="cls-46" x="639.83" y="0">R</tspan><tspan x="718.55" y="0">CE</tspan></text><text class="cls-47" transform="translate(1301.12 3015.46)">C<tspan class="cls-48" x="87.72" y="0">ONFERENCE</tspan></text><text class="cls-39" transform="translate(2529.12 2771.76)">BIOINFOR<tspan class="cls-40" x="489.72" y="0">M</tspan><tspan class="cls-41" x="584.99" y="0">A</tspan><tspan class="cls-42" x="649.2" y="0">TICS</tspan></text><text class="cls-49" transform="translate(2529.12 2915.66)">OPEN SOU<tspan class="cls-50" x="632.69" y="0">R</tspan><tspan class="cls-51" x="710.27" y="0">CE</tspan></text><text class="cls-52" transform="translate(2529.12 3068.2)">C<tspan class="cls-53" x="85.56" y="0">ONFERENCE</tspan></text><text class="cls-54" transform="translate(38 2583.85)">m<tspan class="cls-8" x="119.64" y="0">y</tspan><tspan class="cls-55" x="197.28" y="0">r</tspan><tspan class="cls-8" x="258.12" y="0">iad p</tspan><tspan class="cls-56" x="611.04" y="0">r</tspan><tspan class="cls-8" x="670.2" y="0">o</tspan></text><text class="cls-57" transform="translate(108.19 3734.44)">BIOINFORM<tspan class="cls-58" x="642.35" y="0">A</tspan><tspan class="cls-59" x="710.75" y="0">TICS</tspan></text><text class="cls-57" transform="translate(108.19 3864.19)">OPEN SOURCE</text><text class="cls-57" transform="translate(108.19 3999.14)">CONFERENCE</text><text class="cls-57" transform="translate(1289.19 3743.44)">BIOINFORM<tspan class="cls-58" x="642.35" y="0">A</tspan><tspan class="cls-59" x="710.75" y="0">TICS</tspan></text><text class="cls-60" transform="translate(1289.19 3873.19)">OPEN SOURCE</text><text class="cls-61" transform="translate(1289.19 4008.14)">CONFERENCE</text><text class="cls-62" transform="translate(2515.18 3754.34)">BIOINFORM<tspan class="cls-63" x="643.42" y="0">A</tspan><tspan x="711.94" y="0">TICS</tspan></text><text class="cls-64" transform="translate(2513.19 3899.14) scale(1.03 1)">OPEN SOURCE</text><text class="cls-65" transform="translate(2511.19 4055.65)">CONFERENCE</text><text class="cls-66" transform="translate(16.06 3547.24)">krub regular</text></g><g id="guides"><image width="4032" height="3024" transform="matrix(0.01, 0.55, -0.55, 0.01, 5165.5, 0)" xlink:href="../../Downloads/IMG_9908 2.JPG"/><image width="100" height="71" transform="translate(5311.12 1495) scale(9.87)" xlink:href="../../Downloads/68747470733a2f2f63646e2e7261776769742e636f6d2f4f42462f626f73635f6d6174657269616c732f33373233663932332f6c6f676f732f31303070782d506561722e706e67.png"/></g></svg>