<svg xmlns="http://www.w3.org/2000/svg" viewBox="0 0 5962.55 3799.61"><defs><style>.cls-1,.cls-26{fill:none;stroke-miterlimit:10;stroke-width:6px;}.cls-1{stroke:#000;}.cls-18,.cls-2{font-size:178.5px;}.cls-2{font-family:Nunito-SemiBold, Nunito;}.cls-2,.cls-3{font-weight:700;}.cls-17,.cls-3{font-size:158.68px;}.cls-3{font-family:Krub-Bold, Krub;}.cls-4{font-size:137.12px;}.cls-10,.cls-12,.cls-4{font-family:Nunito-Regular, Nunito;}.cls-5{letter-spacing:-0.02em;}.cls-6{letter-spacing:0em;}.cls-7{letter-spacing:-0.08em;}.cls-8{letter-spacing:0em;}.cls-9{letter-spacing:-0.01em;}.cls-10{font-size:156.68px;}.cls-11{letter-spacing:0em;}.cls-12{font-size:171.99px;letter-spacing:-0.01em;}.cls-13{letter-spacing:0em;}.cls-14,.cls-19{font-size:120.2px;}.cls-14,.cls-16,.cls-17{font-family:Krub-Regular, Krub;}.cls-15{letter-spacing:-0.05em;}.cls-16{font-size:141.79px;}.cls-18,.cls-19,.cls-22,.cls-23{font-family:Raleway-Medium, Raleway;}.cls-20{letter-spacing:-0.01em;}.cls-21{letter-spacing:-0.07em;}.cls-22{font-size:138.8px;}.cls-23{font-size:150.92px;}.cls-24{letter-spacing:-0.01em;}.cls-25{fill:#fff;}.cls-26{stroke:#fff;}</style></defs><title>positioning</title><g id="icon_-_helix" data-name="icon - helix"><path d="M2291.76,947.2a65.3,65.3,0,0,1,6.52-1.28c.5-.08,1.72-.24.53-.09l1.84-.22c1.35-.14,2.7-.27,4.06-.36,3.15-.22,6.32-.29,9.48-.2,15.23.44,30.55,5.13,41.78,15.81,9,8.56,14.45,19.76,17.82,31.59l4.19-7.38c-8.19,2.44-14.43,3-23.08,3-15.4,0-31.08-4.15-42.31-15.28-9-8.93-13.86-20.77-16.64-33-1.71-7.53-13.29-4.34-11.57,3.19,5.16,22.64,18,42.48,40,51.52,14.72,6.05,31.08,6.55,46.65,4.21a74.33,74.33,0,0,0,10.13-2.1,6.1,6.1,0,0,0,4.19-7.38c-6.18-21.74-19.39-40.73-40.6-49.8-14.23-6.09-30.16-7.56-45.44-5.69a80,80,0,0,0-10.75,1.86C2281.11,937.62,2284.28,949.19,2291.76,947.2Z" transform="translate(-181.47 -47.99)"/><path d="M2540.36,1242.71c7.72,0,7.73-12,0-12s-7.73,12,0,12Z" transform="translate(-181.47 -47.99)"/><path d="M2535.18,1239.73a201.85,201.85,0,0,1,18.26,83.49c0,7.72,12,7.73,12,0v-.09h-12c.64,54.29-30.37,105.89-77.39,132.42a153.28,153.28,0,0,1-42.81,16.17c-7.54,1.65-4.35,13.22,3.19,11.57,57-12.45,104.08-55.44,121.56-111.09a158.92,158.92,0,0,0,7.45-49.07c-.09-7.71-12-7.74-12,0v.09h12a216,216,0,0,0-19.9-89.54c-3.2-7-13.55-.93-10.36,6Z" transform="translate(-181.47 -47.99)"/><path d="M2484.71,1084.08c-4.08-30.09-14.46-63-43.4-77.91-28.7-14.74-70.27-11.93-94.26,10.64-20.2,19-26.31,48-29.34,74.43-1.45,12.72-1.65,25.69-3.89,38.31-3.14,17.68-11.41,32.17-21.43,46.8-15.57,22.71-30.56,45.59-40.58,71.4a210.22,210.22,0,0,0-13.93,75.47h12v-.09c0-7.72-11.91-7.73-12,0-.46,39.48,14.84,78.1,40.45,107.84,5.05,5.86,13.5-2.66,8.49-8.49-23.54-27.33-37.37-63.14-36.94-99.35h-12v.09c0,7.72,12,7.73,12,0a200.3,200.3,0,0,1,10.26-63.35c7.77-23.09,20-44.15,33.59-64.28,9.58-14.26,20.16-28,26.48-44.1,5.5-14,6.72-29,7.94-43.81,2-23.78,4.48-49.29,17.34-70,15.88-25.6,48.09-32.79,76.18-26,16.7,4,29.85,14.41,38.13,29.37,7.83,14.14,11.18,30.39,13.34,46.26.44,3.23,4.55,4.93,7.38,4.19,3.47-.92,4.62-4.19,4.19-7.38Z" transform="translate(-181.47 -47.99)"/><path d="M2478.92,1091.67c7.72,0,7.74-12,0-12s-7.73,12,0,12Z" transform="translate(-181.47 -47.99)"/><path d="M2408.19,1001.4a94.14,94.14,0,0,1-1.85-27c1-18,7.56-35.08,21.81-46.68,6-4.87-2.54-13.32-8.49-8.48-24.33,19.8-29.94,56-23,85.34,1.77,7.51,13.34,4.33,11.57-3.2Z" transform="translate(-181.47 -47.99)"/><path d="M2382,1539.4c12.39-15.43,23.81-31.92,30.19-50.82a94.54,94.54,0,0,0,3.13-48.35c-3.58-18.26-11.18-35.53-17.38-53-6.28-17.69-10.41-35.86-10.44-54.74-.06-35.54,18.78-66.38,49.76-83.4,14.82-8.14,30.75-13.31,47.29-16.58,17.75-3.51,35.91-5.65,53.22-11.08a95.13,95.13,0,0,0,42.26-26.78c13.83-15.29,22.67-34.12,29.94-53.21,3.43-9-11.06-12.94-14.47-4-11.1,29.17-27.9,58.09-59.08,68.65-16.87,5.72-34.75,8-52.18,11.24a188.11,188.11,0,0,0-48.87,15.85c-31.28,15.39-55.07,43.54-61.06,78.4-3.31,19.23-1.73,39.21,2.6,58.16,4,17.6,11.57,34.26,17.41,51.3,5.94,17.37,10.12,34.85,6.25,53.18-4.33,20.5-16.25,38.45-29.17,54.55-2.56,3.19-3,7.49,0,10.61,2.59,2.65,8.07,3.15,10.6,0Z" transform="translate(-181.47 -47.99)"/><path d="M2289.81,1482.18c11.11-29.17,27.9-58.09,59.09-68.65,16.86-5.72,34.74-8,52.18-11.24a188.35,188.35,0,0,0,48.87-15.85c31.28-15.39,55.06-43.54,61.06-78.4,3.31-19.23,1.73-39.21-2.61-58.16-4-17.6-11.57-34.26-17.4-51.3-5.95-17.37-10.12-34.85-6.25-53.18,4.32-20.5,16.25-38.45,29.17-54.55,2.55-3.19,3-7.49,0-10.61-2.6-2.65-8.08-3.15-10.61,0-12.38,15.43-23.81,31.92-30.19,50.82a94.66,94.66,0,0,0-3.13,48.35c3.58,18.26,11.18,35.53,17.38,53,6.28,17.69,10.42,35.86,10.45,54.74,0,35.54-18.79,66.38-49.76,83.4-14.83,8.14-30.76,13.31-47.3,16.58-17.74,3.51-35.91,5.65-53.21,11.08a95.11,95.11,0,0,0-42.27,26.78c-13.82,15.29-22.66,34.12-29.93,53.21-3.44,9,11.06,12.94,14.46,4Z" transform="translate(-181.47 -47.99)"/><line class="cls-1" x1="2294.3" y1="1092.41" x2="2391.25" y2="1147.93"/><line class="cls-1" x1="2298.58" y1="1132.23" x2="2354.72" y2="1164.39"/><line class="cls-1" x1="2279.99" y1="1187.06" x2="2316.84" y2="1208.17"/><line class="cls-1" x1="2237.56" y1="1203.89" x2="2323.79" y2="1253.27"/><line class="cls-1" x1="2213.66" y1="1233.19" x2="2310.61" y2="1288.72"/><line class="cls-1" x1="2200.18" y1="1267.53" x2="2287.82" y2="1317.72"/><line class="cls-1" x1="2204.61" y1="1312.12" x2="2247.11" y2="1336.46"/><line class="cls-1" x1="2172.14" y1="1359" x2="2223.1" y2="1388.19"/><line class="cls-1" x1="2133.02" y1="1373.98" x2="2229.97" y2="1429.5"/><line class="cls-1" x1="2310.42" y1="1064.26" x2="2407.36" y2="1119.79"/><line class="cls-1" x1="2116.91" y1="1402.12" x2="2213.85" y2="1457.65"/><path d="M3511.69,289.56a72.17,72.17,0,0,1,7.29-1.42l.79-.13,1.84-.22c1.55-.17,3.1-.31,4.66-.41q5.08-.36,10.18-.22c17,.46,34.11,5.66,46.64,17.56,10,9.54,16.17,22,19.91,35.22l4.19-7.38c-9.09,2.71-16.33,3.35-25.94,3.34-17.29,0-34.81-4.88-47.28-17.48-9.77-9.88-15.06-22.88-18.09-36.24-1.71-7.53-13.28-4.34-11.57,3.19,5.66,24.92,19.82,46.71,44.06,56.58,16.07,6.53,34,7.06,50.93,4.49a80.13,80.13,0,0,0,11.08-2.31,6.09,6.09,0,0,0,4.19-7.38c-6.86-24.2-21.64-45.05-45.32-54.93-15.43-6.44-32.72-7.88-49.22-5.84a86.34,86.34,0,0,0-11.53,2C3501.05,280,3504.21,291.56,3511.69,289.56Z" transform="translate(-181.47 -47.99)"/><path d="M3786.27,615.73c7.72,0,7.73-12,0-12s-7.73,12,0,12Z" transform="translate(-181.47 -47.99)"/><path d="M3781.09,612.76a223.26,223.26,0,0,1,20.25,92.47c0,7.72,12,7.73,12,0v-.1h-12c.71,60.27-33.79,117.54-86,146.88a169.81,169.81,0,0,1-47.1,17.74c-7.55,1.64-4.35,13.21,3.19,11.57,62.76-13.69,114.64-61.13,133.82-122.46a174.85,174.85,0,0,0,8.13-53.73c-.1-7.72-12-7.74-12,0v.1h12a237.7,237.7,0,0,0-21.89-98.53c-3.2-7-13.55-.92-10.36,6.06Z" transform="translate(-181.47 -47.99)"/><path d="M3724.24,441.42c-4.48-33.08-15.84-69.36-47.7-85.67-18.12-9.27-39.59-11.11-59.54-8.35-16.46,2.28-32.06,8.91-44.15,20.49-22,21.1-28.55,53-31.81,82.08-1.57,13.95-1.8,28.17-4.29,42-3.56,19.73-13,35.87-24.17,52.19-17.09,24.9-33.47,50.07-44.4,78.39A231.45,231.45,0,0,0,3453,705.23h12v-.1c0-7.73-11.91-7.73-12,0-.52,43.39,16.29,85.91,44.46,118.59,5.05,5.86,13.51-2.66,8.49-8.49-26.1-30.27-41.43-70-40.95-110.1h-12v.1c0,7.72,12,7.73,12,0a220.89,220.89,0,0,1,11.77-71.36c8.7-25.31,22.24-48.4,37.15-70.5,10.5-15.57,22.05-30.6,28.88-48.26,6-15.35,7.26-31.68,8.61-47.93,2.19-26.56,5-55.1,19.62-78.15,17.84-28.16,53.78-35.9,84.83-28.24,18.41,4.55,32.92,16.15,42.05,32.67,8.65,15.64,12.37,33.6,14.75,51.15.44,3.23,4.55,4.93,7.38,4.19,3.47-.92,4.62-4.19,4.19-7.38Z" transform="translate(-181.47 -47.99)"/><path d="M3718.45,449c7.73,0,7.74-12,0-12s-7.73,12,0,12Z" transform="translate(-181.47 -47.99)"/><path d="M3639.78,350.16c-2.22-9.4-2.68-19.61-2.06-30.06,1.18-20,8.42-39,24.25-51.86,6-4.87-2.54-13.31-8.49-8.48-26.7,21.68-32.85,61.44-25.27,93.59,1.77,7.51,13.34,4.33,11.57-3.19Z" transform="translate(-181.47 -47.99)"/><path d="M3610.93,943.3c13.75-17.13,26.45-35.49,33.38-56.54a103.43,103.43,0,0,0,3.14-52.48c-4.07-20.42-12.62-39.71-19.51-59.26-6.8-19.32-11.18-39.24-11.17-59.83,0-39.67,21.26-73.92,55.87-92.76,16.79-9.14,34.79-14.78,53.49-18.4,19.15-3.71,38.7-6.12,57.35-12a103.93,103.93,0,0,0,46.16-29.4c15.1-16.75,24.78-37.37,32.72-58.27,3.44-9-11.06-12.93-14.46-4-12.25,32.2-30.79,64.24-65.14,76.11-18.37,6.34-37.9,8.82-56.94,12.37s-37,8.88-54.39,17.34c-34.68,16.87-61,47.8-67.69,86.36-3.66,21.17-1.91,43.31,3,64.16,4.54,19.47,12.87,37.9,19.3,56.77,6.56,19.26,11,38.61,6.68,58.89-4.84,22.65-18.05,42.5-32.35,60.31-2.55,3.18-3.05,7.48,0,10.6,2.6,2.66,8.08,3.15,10.61,0Z" transform="translate(-181.47 -47.99)"/><path d="M3509,880.48c12.25-32.2,30.79-64.24,65.14-76.11C3592.47,798,3612,795.55,3631,792s37-8.88,54.39-17.34c34.68-16.87,61-47.8,67.69-86.36,3.66-21.17,1.91-43.31-2.95-64.16-4.54-19.47-12.87-37.9-19.3-56.77-6.56-19.26-11-38.61-6.68-58.89,4.84-22.65,18-42.5,32.34-60.31,2.56-3.18,3-7.48,0-10.6-2.59-2.66-8.07-3.15-10.6,0-13.76,17.13-26.46,35.49-33.39,56.54a103.54,103.54,0,0,0-3.13,52.48c4.06,20.42,12.62,39.71,19.5,59.26,6.81,19.33,11.19,39.24,11.18,59.83,0,39.67-21.26,73.92-55.87,92.76-16.79,9.14-34.79,14.78-53.5,18.4-19.14,3.71-38.7,6.12-57.35,12a103.9,103.9,0,0,0-46.15,29.4c-15.1,16.75-24.78,37.37-32.73,58.27-3.43,9,11.06,12.93,14.47,4Z" transform="translate(-181.47 -47.99)"/><line class="cls-1" x1="3533.5" y1="455.43" x2="3640.52" y2="516.72"/><line class="cls-1" x1="3538.23" y1="499.39" x2="3600.2" y2="534.89"/><line class="cls-1" x1="3517.7" y1="559.91" x2="3558.39" y2="583.21"/><line class="cls-1" x1="3470.88" y1="578.48" x2="3566.06" y2="633"/><line class="cls-1" x1="3444.49" y1="610.83" x2="3551.51" y2="672.13"/><line class="cls-1" x1="3429.61" y1="648.73" x2="3526.35" y2="704.14"/><line class="cls-1" x1="3434.5" y1="697.96" x2="3481.41" y2="724.83"/><line class="cls-1" x1="3398.66" y1="749.71" x2="3454.91" y2="781.93"/><line class="cls-1" x1="3355.48" y1="766.24" x2="3462.5" y2="827.53"/><line class="cls-1" x1="3551.29" y1="424.36" x2="3658.31" y2="485.66"/><line class="cls-1" x1="3337.69" y1="797.3" x2="3444.7" y2="858.6"/><path d="M5763.69,208.56a72.17,72.17,0,0,1,7.29-1.42l.79-.13,1.84-.22c1.55-.17,3.1-.31,4.66-.41q5.08-.36,10.18-.22c17,.46,34.11,5.66,46.64,17.56,10.05,9.54,16.17,22,19.91,35.22l4.19-7.38c-9.09,2.71-16.33,3.35-25.94,3.34-17.29,0-34.81-4.88-47.28-17.48-9.77-9.88-15.06-22.88-18.09-36.24-1.71-7.53-13.28-4.34-11.57,3.19,5.66,24.92,19.82,46.71,44.06,56.58,16.07,6.53,34,7.06,50.93,4.49a80.13,80.13,0,0,0,11.08-2.31,6.09,6.09,0,0,0,4.19-7.38c-6.86-24.2-21.64-45.05-45.32-54.93-15.43-6.44-32.72-7.88-49.22-5.84a86.34,86.34,0,0,0-11.53,2C5753.05,199,5756.21,210.56,5763.69,208.56Z" transform="translate(-181.47 -47.99)"/><path d="M6038.27,534.73c7.72,0,7.73-12,0-12s-7.73,12,0,12Z" transform="translate(-181.47 -47.99)"/><path d="M6033.09,531.76a223.26,223.26,0,0,1,20.25,92.47c0,7.72,12,7.73,12,0v-.1h-12c.71,60.27-33.79,117.54-86,146.88a169.81,169.81,0,0,1-47.1,17.74c-7.55,1.64-4.35,13.21,3.19,11.57,62.76-13.69,114.64-61.13,133.82-122.46a174.85,174.85,0,0,0,8.13-53.73c-.1-7.72-12-7.74-12,0v.1h12a237.7,237.7,0,0,0-21.89-98.53c-3.2-7-13.55-.92-10.36,6.06Z" transform="translate(-181.47 -47.99)"/><path d="M5976.24,360.42c-4.48-33.08-15.84-69.36-47.7-85.67-18.12-9.27-39.59-11.11-59.54-8.35-16.46,2.28-32.06,8.91-44.15,20.49-22,21.1-28.55,53-31.81,82.08-1.57,13.95-1.8,28.17-4.29,42-3.56,19.73-13,35.87-24.17,52.19-17.09,24.9-33.47,50.07-44.4,78.39A231.45,231.45,0,0,0,5705,624.23h12v-.1c0-7.73-11.91-7.73-12,0-.52,43.39,16.29,85.91,44.46,118.59,5.05,5.86,13.51-2.66,8.49-8.49-26.1-30.27-41.43-70-40.95-110.1h-12v.1c0,7.72,12,7.73,12,0a220.89,220.89,0,0,1,11.77-71.36c8.7-25.31,22.24-48.4,37.15-70.5,10.5-15.57,22-30.6,28.88-48.26,5.95-15.35,7.26-31.68,8.61-47.93,2.19-26.56,5-55.1,19.62-78.15,17.84-28.16,53.78-35.9,84.83-28.24,18.41,4.55,32.92,16.15,42.05,32.67,8.65,15.64,12.37,33.6,14.75,51.15.44,3.23,4.55,4.93,7.38,4.19,3.47-.92,4.62-4.19,4.19-7.38Z" transform="translate(-181.47 -47.99)"/><path d="M5970.45,368c7.73,0,7.74-12,0-12s-7.73,12,0,12Z" transform="translate(-181.47 -47.99)"/><path d="M5891.78,269.16c-2.22-9.4-2.68-19.61-2.06-30.06,1.18-20,8.42-39,24.25-51.86,6-4.87-2.54-13.31-8.49-8.48-26.7,21.68-32.85,61.44-25.27,93.59,1.77,7.51,13.34,4.33,11.57-3.19Z" transform="translate(-181.47 -47.99)"/><path d="M5862.93,862.3c13.75-17.13,26.45-35.49,33.38-56.54a103.43,103.43,0,0,0,3.14-52.48c-4.07-20.42-12.62-39.71-19.51-59.26-6.8-19.32-11.18-39.24-11.17-59.83,0-39.67,21.26-73.92,55.87-92.76,16.79-9.14,34.79-14.78,53.49-18.4,19.15-3.71,38.7-6.12,57.35-12a103.93,103.93,0,0,0,46.16-29.4c15.1-16.75,24.78-37.37,32.72-58.27,3.44-9-11.06-12.93-14.46-4-12.25,32.2-30.79,64.24-65.14,76.11-18.37,6.34-37.9,8.82-56.94,12.37s-37,8.88-54.39,17.34c-34.68,16.87-61,47.8-67.69,86.36-3.66,21.17-1.91,43.31,2.95,64.16,4.54,19.47,12.87,37.9,19.3,56.77,6.56,19.26,11,38.61,6.68,58.89-4.84,22.65-18.05,42.5-32.35,60.31-2.55,3.18-3,7.48,0,10.6,2.6,2.66,8.08,3.15,10.61,0Z" transform="translate(-181.47 -47.99)"/><path d="M5761,799.48c12.25-32.2,30.79-64.24,65.14-76.11C5844.47,717,5864,714.55,5883,711s37-8.88,54.39-17.34c34.68-16.87,61-47.8,67.69-86.36,3.66-21.17,1.91-43.31-2.95-64.16-4.54-19.47-12.87-37.9-19.3-56.77-6.56-19.26-11-38.61-6.68-58.89,4.84-22.65,18.05-42.5,32.34-60.31,2.56-3.18,3.05-7.48,0-10.6-2.59-2.66-8.07-3.15-10.6,0-13.76,17.13-26.46,35.49-33.39,56.54a103.54,103.54,0,0,0-3.13,52.48c4.06,20.42,12.62,39.71,19.5,59.26,6.81,19.33,11.19,39.24,11.18,59.83,0,39.67-21.26,73.92-55.87,92.76-16.79,9.14-34.79,14.78-53.5,18.4-19.14,3.71-38.7,6.12-57.35,12a103.9,103.9,0,0,0-46.15,29.4c-15.1,16.75-24.78,37.37-32.73,58.27-3.43,9,11.06,12.93,14.47,4Z" transform="translate(-181.47 -47.99)"/><line class="cls-1" x1="5785.5" y1="374.43" x2="5892.52" y2="435.72"/><line class="cls-1" x1="5790.23" y1="418.39" x2="5852.2" y2="453.89"/><line class="cls-1" x1="5769.7" y1="478.91" x2="5810.39" y2="502.21"/><line class="cls-1" x1="5722.88" y1="497.48" x2="5818.06" y2="552"/><line class="cls-1" x1="5696.49" y1="529.83" x2="5803.51" y2="591.13"/><line class="cls-1" x1="5681.61" y1="567.73" x2="5778.35" y2="623.14"/><line class="cls-1" x1="5686.5" y1="616.96" x2="5733.41" y2="643.83"/><line class="cls-1" x1="5650.66" y1="668.71" x2="5706.91" y2="700.93"/><line class="cls-1" x1="5607.48" y1="685.24" x2="5714.5" y2="746.53"/><line class="cls-1" x1="5803.29" y1="343.36" x2="5910.31" y2="404.66"/><line class="cls-1" x1="5589.69" y1="716.3" x2="5696.7" y2="777.6"/><text class="cls-2" transform="translate(5459.47 1036.19)">BOSC</text><text class="cls-3" transform="translate(5479.47 2320.19)">BOSC</text></g><g id="icon_-_cutout" data-name="icon - cutout"><path d="M1400.65,1302.65c-9.65-27.65-24.56-53.81-48.48-76.58-52.1-49.63-48.35-69.25-49-100.38-.53-26.46-.6-50-10.52-67.55a82.45,82.45,0,0,0-73.77-45.62c-45.38,0-86.89,35.48-87.89,81.48,0,.13,0,.26,0,.39a71.14,71.14,0,0,1,57.79-30.07,64.63,64.63,0,0,1,57.85,35.77c7.78,13.79,7.84,32.23,8.26,53,.5,24.41-2.44,39.8,38.42,78.72,18.76,17.86,30.45,38.38,38,60.07,4.19,12,5.76,29.29,5.76,41.13a108,108,0,0,1-108,108c-39.14,0-72.6-20.87-91.52-52,16,59.6,68.35,103.83,132.69,103.83A137.7,137.7,0,0,0,1408,1355.09C1408,1340,1406,1318,1400.65,1302.65Z" transform="translate(-181.47 -47.99)"/><path d="M1121,956c3,1,10.68-1.28,17.83-.18C1153,958,1160,967,1164.64,974.43c11.71,18.73,15.61,37.5,4.45,57.34-9,16,12.5,16.69,21.28,16.36a12.12,12.12,0,0,0,6.24-2l29.27-19.51a12.28,12.28,0,0,0,2.67-2.42l2-2.45c3.56-4.35,1.65,6.53-4.55,5.29-6.71-1.34-14.34-12.45-19-14-3.72-1.24-7.09-22.71-22-46.74-12-19.26-28.6-27.16-36.8-32.41a12.13,12.13,0,0,0-13.27.12C1128.32,938.34,1111.78,952.93,1121,956Z" transform="translate(-181.47 -47.99)"/><path d="M1255.17,909.24c4.28-2.32,13.83-7.24,15.89-12.35,2-4.9,6-3.85,8.68-.58C1290,909,1292.14,930.58,1291,946c-2,27-23,52-42.52,57.24-9,2.41-19.48,1.76-23.57-1.24-5-3.68-17.61-19.12-13.34-40.64C1214.92,944.5,1229,923.36,1255.17,909.24Z" transform="translate(-181.47 -47.99)"/><path d="M2368.78,168.14s11.35-13.08.83-53-18.93-34.71-18.93-34.71,8.42-11.57,18.93-6.31,26.3,28.4,28.4,73.63,23.58,30.5,23.58,30.5Z" transform="translate(-181.47 -47.99)"/><path d="M2275,101.42s70.47-18.94,89.4,49.43C2364.35,150.85,2290.72,172.94,2275,101.42Z" transform="translate(-181.47 -47.99)"/><path d="M2544.22,483.13v.09c0-35.53-8.32-71-31.34-109.72-25.55-42.92-41.8-52.24-45.82-93-3.75-37.95-3.14-117-80.46-117h-.31c-48.95,0-66.66,31.69-74,64.58,8.69-7.95,20.85-13.06,38.06-13.06h.23c59.34,0,58.87,60.69,61.75,89.81,3.09,31.28,15.56,38.44,35.17,71.38,17.67,29.68,24.05,56.93,24.05,84.2v0a121.09,121.09,0,0,1-242.09,4.45q-.78,9.21-.78,18.38v0a157.78,157.78,0,1,0,315.56,0Z" transform="translate(-181.47 -47.99)"/><path d="M1400.22,86.53c-3.57-2.22-37.1-21.63-81,2.52s-47.36,62.77-47.62,67c0,0,37.41,21.83,81.32-2.32S1400.22,86.53,1400.22,86.53Z" transform="translate(-181.47 -47.99)"/><path d="M1357.55,424.52c-5.65-33.94-25.56-95.28-29-129s-6.39-77.27-25.56-99.93c-13.89-16.41-34.86-26.72-53.45-29,0,0,2.65-41.51,18.91-61.26,15.28-18.55,28.22-27.14,41.29-27.15a7,7,0,0,0,6.46-4,7.26,7.26,0,0,0-.43-6.37c-3.49-7-16.27-16.27-16.27-16.27S1286,42,1269.74,54.2c-15.13,11.35-20.24,20.59-29.54,39.18s-16.26,52.28-18.59,72c0,0-32,5.93-51.12,26.72-14.06,15.31-21.73,31.56-26.51,50.94C1210,187,1270,228,1265,277c-8.18,80.21,10,132.35,25,183,18,61-50,121-132,105-52-10.15-92.3-48.34-126.4-106.4-10.3,52.23,4.36,111.06,51.75,147.17,73.2,55.77,205.65,59.26,259.1-48.8C1363.36,514,1363.36,459.37,1357.55,424.52Z" transform="translate(-181.47 -47.99)"/></g><g id="icon_-_base" data-name="icon - base"><path d="M374.61,165.42s-32,5.93-51.12,26.72C308,209,300.25,227,295.61,249.07s-24.58,84.6-73.2,134.78C168,440,163.15,550,236.35,605.77S442,665,495.45,557c20.91-43,20.91-97.6,15.1-132.45-5.65-33.94-25.56-95.28-29-129s-6.39-77.27-25.56-99.93c-13.89-16.41-34.86-26.72-53.45-29,0,0,2.65-41.51,18.91-61.26,15.28-18.55,28.22-27.14,41.29-27.15a7,7,0,0,0,6.46-4,7.26,7.26,0,0,0-.43-6.37c-3.49-7-16.27-16.27-16.27-16.27S439,42,422.74,54.2C407.61,65.55,402.5,74.79,393.2,93.38s-16.26,52.28-18.59,72" transform="translate(-181.47 -47.99)"/><path d="M553.22,86.53c-3.57-2.22-37.1-21.63-81,2.52s-47.36,62.77-47.62,67c0,0,37.41,21.83,81.32-2.32S553.22,86.53,553.22,86.53Z" transform="translate(-181.47 -47.99)"/><path d="M298,1285.72c13-25.1,39.92-79.28,11.14-119.2C285,1133,285,1110,284,1094c1-46,42.51-81.48,87.89-81.48a82.45,82.45,0,0,1,73.77,45.62c9.92,17.58,10,41.09,10.52,67.55.64,31.13-3.11,50.75,49,100.38,23.92,22.77,38.83,48.93,48.48,76.58C559,1318,561,1340,561,1355.09a137.7,137.7,0,0,1-137.71,137.7c-76.05,0-135.29-61.79-137.7-137.7C285,1340,285,1314,298,1285.72Z" transform="translate(-181.47 -47.99)"/><path d="M274,956c3,1,10.68-1.28,17.83-.18C306,958,313,967,317.64,974.43c11.71,18.73,15.61,37.5,4.45,57.34-9,16,12.5,16.69,21.28,16.36a12.12,12.12,0,0,0,6.24-2l29.27-19.51a12.28,12.28,0,0,0,2.67-2.42l2-2.45c3.56-4.35,1.65,6.53-4.55,5.29-6.71-1.34-14.34-12.45-19-14-3.72-1.24-7.09-22.71-22-46.74-12-19.26-28.6-27.16-36.8-32.41a12.13,12.13,0,0,0-13.27.12C281.32,938.34,264.78,952.93,274,956Z" transform="translate(-181.47 -47.99)"/><path d="M408.17,909.24c4.28-2.32,13.83-7.24,15.89-12.35,2-4.9,6-3.85,8.68-.58C443,909,445.14,930.58,444,946c-2,27-23,52-42.52,57.24-9,2.41-19.48,1.76-23.57-1.24-5-3.68-17.61-19.12-13.34-40.64C367.92,944.5,382,923.36,408.17,909.24Z" transform="translate(-181.47 -47.99)"/><path d="M345.12,1868.14s11.35-13.08.83-53.05S327,1780.38,327,1780.38s8.41-11.57,18.93-6.31,26.3,28.4,28.4,73.63,23.58,30.5,23.58,30.5Z" transform="translate(-181.47 -47.99)"/><path d="M251.28,1801.42s70.48-18.94,89.41,49.43C340.69,1850.85,267.06,1872.94,251.28,1801.42Z" transform="translate(-181.47 -47.99)"/><path d="M520.56,2183.13v.09c0-35.53-8.32-71-31.34-109.72-25.55-42.92-41.8-52.24-45.83-93-3.75-38-3.13-117-80.46-117h-.3c-77.33,0-76.71,79.08-80.46,117-4,40.75-20.28,50.07-45.82,93-23,38.69-31.35,74.19-31.35,109.72v0a157.78,157.78,0,0,0,315.56,0Z" transform="translate(-181.47 -47.99)"/><path d="M3808,1849.42s-32,5.93-51.12,26.72c-15.5,16.86-23.24,34.86-27.89,56.93s-24.57,84.6-73.2,134.78c-54.41,56.15-59.25,166.15,13.94,221.92s205.66,59.26,259.1-48.8c20.92-43,20.92-97.6,15.11-132.45-5.66-33.94-25.56-95.28-29-129s-6.39-77.27-25.56-99.93c-13.89-16.41-34.86-26.72-53.45-29,0,0,2.65-41.51,18.92-61.26,15.28-18.55,28.22-27.14,41.29-27.15a7,7,0,0,0,6.45-4,7.23,7.23,0,0,0-.43-6.37c-3.48-7-16.27-16.27-16.27-16.27s-13.46-9.55-29.72,2.65c-15.13,11.35-20.24,20.59-29.53,39.18s-16.27,52.28-18.59,72" transform="translate(-181.47 -47.99)"/><path d="M3986.58,1770.53c-3.57-2.22-37.1-21.63-81,2.52s-47.37,62.77-47.62,67c0,0,37.4,21.83,81.31-2.32S3986.58,1770.53,3986.58,1770.53Z" transform="translate(-181.47 -47.99)"/><path d="M5896,1726.42s-32,5.93-51.12,26.72c-15.5,16.86-23.24,34.86-27.89,56.93s-24.57,84.6-73.2,134.78c-54.41,56.15-59.25,166.15,13.94,221.92s205.66,59.26,259.1-48.8c20.92-43,20.92-97.6,15.11-132.45-5.66-33.94-25.56-95.28-29.05-129s-6.39-77.27-25.56-99.93c-13.89-16.41-34.86-26.72-53.45-29,0,0,2.65-41.51,18.92-61.26,15.28-18.55,28.22-27.14,41.29-27.15a7,7,0,0,0,6.45-4,7.23,7.23,0,0,0-.43-6.37c-3.48-7-16.27-16.27-16.27-16.27s-13.46-9.55-29.72,2.65c-15.13,11.35-20.24,20.59-29.53,39.18s-16.27,52.28-18.59,72" transform="translate(-181.47 -47.99)"/><path d="M6074.58,1647.53c-3.57-2.22-37.1-21.63-81,2.52s-47.37,62.77-47.62,67c0,0,37.4,21.83,81.31-2.32S6074.58,1647.53,6074.58,1647.53Z" transform="translate(-181.47 -47.99)"/></g><g id="font_ideas" data-name="font ideas"><circle cx="1206.87" cy="2190.34" r="396.65"/><circle cx="2399.54" cy="2206.35" r="396.65"/><text class="cls-4" transform="translate(3761.87 412.32)">BIOIN<tspan class="cls-5" x="368.7" y="0">F</tspan><tspan class="cls-6" x="442.88" y="0">ORM</tspan><tspan class="cls-7" x="757.01" y="0">A</tspan><tspan class="cls-8" x="845.31" y="0">TI</tspan><tspan class="cls-9" x="962.41" y="0">C</tspan><tspan x="1053.73" y="0">S</tspan></text><text class="cls-10" transform="translate(3759.38 606.32) scale(1.03 1)">OPEN SOU<tspan class="cls-11" x="797.96" y="0">R</tspan><tspan x="904.66" y="0">CE</tspan></text><text class="cls-12" transform="translate(3756.89 809.36)">C<tspan class="cls-13" x="114.55" y="0">ONFERENCE</tspan></text><text class="cls-14" transform="translate(3862.95 1930.34)">BIOINFORM<tspan class="cls-15" x="643.42" y="0">A</tspan><tspan x="711.94" y="0">TICS</tspan></text><text class="cls-16" transform="translate(3860.95 2075.15) scale(1.03 1)">OPEN SOURCE</text><text class="cls-17" transform="translate(3858.95 2231.66)">CONFERENCE</text><text class="cls-18" transform="translate(5478.81 3757.8)">BOSC</text><path d="M4947.13,3562c-14.51-41.53-36.91-80.83-72.83-115-78.27-74.55-72.64-104-73.59-150.78-.81-39.75-.91-75.07-15.82-101.48a123.83,123.83,0,0,0-110.81-68.52c-68.17,0-130.52,53.29-132,122.39,0,.19,0,.39,0,.59,19-27.4,51.93-45.18,86.8-45.18a97.12,97.12,0,0,1,86.91,53.74c11.69,20.71,11.77,48.42,12.4,79.6.75,36.67-3.67,59.79,57.72,118.25,28.18,26.84,45.75,57.66,57.12,90.24,6.3,18.08,8.66,44,8.66,61.78a162.25,162.25,0,0,1-162.25,162.24c-58.79,0-109.06-31.34-137.48-78.17,24.09,89.52,102.67,156,199.33,156,114.25,0,206.86-92.61,206.86-206.86C4958.16,3618.08,4955.16,3585,4947.13,3562Z" transform="translate(-181.47 -47.99)"/><path d="M4527,3041.24c4.51,1.5,16.05-1.93,26.79-.27,21.28,3.27,31.8,16.79,38.77,28,17.58,28.14,23.45,56.33,6.68,86.14-13.49,24,18.78,25.06,32,24.57a18.12,18.12,0,0,0,9.37-3.06l44-29.31a18.22,18.22,0,0,0,4-3.63l3-3.68c5.35-6.54,2.48,9.81-6.84,7.94-10.07-2-21.54-18.7-28.54-21-5.59-1.86-10.66-34.11-33.09-70.21-18-28.93-43-40.81-55.29-48.69a18.24,18.24,0,0,0-19.94.18C4538,3014.71,4513.18,3036.62,4527,3041.24Z" transform="translate(-181.47 -47.99)"/><path d="M4728.58,2971c6.43-3.48,20.78-10.87,23.86-18.54,3-7.38,9.07-5.8,13.05-.88,15.41,19.06,18.63,51.48,16.91,74.64-3,40.56-34.55,78.12-63.86,86-13.47,3.62-29.27,2.64-35.41-1.86-7.54-5.53-26.46-28.72-20-61.06C4668.11,3024,4689.33,2992.2,4728.58,2971Z" transform="translate(-181.47 -47.99)"/><path d="M6020.35,3412.25c-9.66-27.65-24.57-53.8-48.48-76.58-52.11-49.62-48.36-69.24-49-100.37-.54-26.46-.61-50-10.53-67.56a82.43,82.43,0,0,0-73.77-45.61c-45.38,0-86.89,35.47-87.89,81.47l0,.4a71.13,71.13,0,0,1,57.78-30.08,64.64,64.64,0,0,1,57.85,35.78c7.79,13.79,7.84,32.23,8.26,53,.5,24.42-2.44,39.8,38.42,78.73,18.76,17.86,30.46,38.38,38,60.06,4.19,12,5.76,29.3,5.76,41.13a108,108,0,0,1-108,108c-39.15,0-72.61-20.86-91.53-52,16,59.59,68.35,103.83,132.7,103.83a137.71,137.71,0,0,0,137.7-137.71C6027.69,3449.6,6025.69,3427.6,6020.35,3412.25Z" transform="translate(-181.47 -47.99)"/><path d="M5740.69,3065.6c3,1,10.68-1.27,17.83-.18,14.17,2.18,21.17,11.18,25.81,18.61,11.71,18.74,15.61,37.5,4.45,57.35-9,15.95,12.5,16.68,21.28,16.35a12,12,0,0,0,6.24-2l29.27-19.51a12.54,12.54,0,0,0,2.67-2.42l2-2.45c3.57-4.36,1.66,6.52-4.55,5.28-6.71-1.34-14.34-12.44-19-14-3.72-1.24-7.09-22.7-22-46.73-12-19.27-28.6-27.17-36.8-32.42a12.15,12.15,0,0,0-13.27.12C5748,3048,5731.47,3062.53,5740.69,3065.6Z" transform="translate(-181.47 -47.99)"/><path d="M5874.86,3018.84c4.28-2.32,13.83-7.24,15.89-12.34,2-4.91,6-3.86,8.68-.59,10.26,12.69,12.4,34.27,11.26,49.69-2,27-23,52-42.51,57.25-9,2.4-19.49,1.75-23.58-1.25-5-3.68-17.61-19.11-13.34-40.64C5834.61,3054.1,5848.74,3033,5874.86,3018.84Z" transform="translate(-181.47 -47.99)"/><text class="cls-19" transform="translate(3444.23 3317.27)">BIOIN<tspan class="cls-20" x="325.62" y="0">F</tspan><tspan x="394.13" y="0">ORM</tspan><tspan class="cls-21" x="668.06" y="0">A</tspan><tspan x="741.39" y="0">TICS</tspan></text><text class="cls-22" transform="translate(3442.23 3459.53) scale(1.03 1)">OPEN SOURCE</text><text class="cls-23" transform="translate(3440.23 3611.95)"><tspan class="cls-24">C</tspan><tspan x="101.72" y="0">ONFERENCE</tspan></text><path class="cls-25" d="M2470.52,1976.61c2.14-.57,4.33-.92,6.52-1.28,1.76-.3.66-.07-.53.05.61-.06,1.22-.16,1.83-.22,1.36-.13,2.71-.27,4.07-.36q4.73-.33,9.47-.2c1.63,0,3.26.13,4.88.27.78.06,1.55.14,2.32.22,2.79.29-.27-.11,1.31.17a83.5,83.5,0,0,1,11.44,2.74c.83.27,1.65.56,2.47.86l1.65.63c-.15-.06-1.4-.61-.34-.14a63.25,63.25,0,0,1,6.09,3.09,37.31,37.31,0,0,1,9.13,6.79c8.16,7.76,13.49,18.2,16.8,29.83l7-12.3a65.91,65.91,0,0,1-7,1.58c-1.15.21-2.3.35-3.44.56-1.74.32,2.28-.23.45-.06l-2.37.27c-3.22.33-6.46.5-9.7.51a87.37,87.37,0,0,1-11-.65c2.09.26,0,0-.9-.18s-1.86-.34-2.79-.53c-2-.44-4-1-6-1.58-.94-.29-1.88-.6-2.8-.94-.43-.16-2.93-1.17-2-.76s-1.64-.79-2-1c-1.06-.53-2.09-1.09-3.11-1.68a51.17,51.17,0,0,1-5.28-3.48c1.27,1-.5-.44-.88-.77-.95-.84-1.9-1.69-2.8-2.59a45.22,45.22,0,0,1-9.19-12.67,75.19,75.19,0,0,1-6.42-18.53c-2.85-12.55-22.14-7.24-19.28,5.31,5.49,24.12,19.46,44.78,42.8,54.31,15.43,6.3,32.5,6.67,48.78,4.22a72.88,72.88,0,0,0,10.13-2.11,10.15,10.15,0,0,0,7-12.3c-6.44-22.66-20.33-42.67-42.43-52.19-14.87-6.4-31.44-8.2-47.46-6.23a87.61,87.61,0,0,0-11.82,2C2452.78,1960.63,2458.05,1979.93,2470.52,1976.61Z" transform="translate(-181.47 -47.99)"/><path class="cls-25" d="M2718.06,2272.25c12.86,0,12.89-20,0-20s-12.89,20,0,20Z" transform="translate(-181.47 -47.99)"/><path class="cls-25" d="M2709.42,2267.3a197.11,197.11,0,0,1,17.72,81.47c.05,12.86,20,12.89,20,0v-.09h-20c.62,52.92-29.59,103.11-75.41,129a149.67,149.67,0,0,1-41.86,15.77c-12.56,2.75-7.25,22,5.32,19.29,58.31-12.75,106.47-57,124.35-113.89a162.7,162.7,0,0,0,7.6-50.13c-.15-12.86-20-12.9-20,0v.09h20a220.92,220.92,0,0,0-20.45-91.56c-2.24-4.92-9.36-6.12-13.68-3.59-5.05,3-5.84,8.75-3.59,13.68Z" transform="translate(-181.47 -47.99)"/><path class="cls-25" d="M2666.26,2108.56c-4.22-31.11-15.38-65-45.24-80.29-30.34-15.59-73.75-12.58-99.1,11.26-21,19.77-27.36,49.75-30.51,77.26-1.41,12.36-1.57,25-3.75,37.25-3.12,17.58-10.94,31.11-21,45.83-15.78,23-30.82,46.21-41,72.36a213.4,213.4,0,0,0-14.07,76.54h20v-.09c0-12.88-19.85-12.88-20,0-.48,40.57,15.32,80.12,41.62,110.66,3.52,4.1,10.52,3.62,14.14,0,4.06-4.06,3.53-10,0-14.14-22.84-26.52-36.18-61.41-35.76-96.52h-20v.09c0,12.87,20,12.89,20,0a195.88,195.88,0,0,1,10.12-62.28c7.65-22.76,19.83-43.5,33.17-63.34,9.82-14.58,20.43-28.56,26.9-45.05,5.62-14.33,6.82-29.67,8.08-44.87,1.09-13.22,1.85-22,4.38-34.23a141.09,141.09,0,0,1,4.93-18.1c.48-1.36,1-2.71,1.51-4.05,1.14-2.92-.8,1.73.47-1.13.26-.59.52-1.16.79-1.74a82.87,82.87,0,0,1,4.71-8.76,51.25,51.25,0,0,1,11.2-13.15,38.72,38.72,0,0,1,6.26-4.48,60.32,60.32,0,0,1,7.85-3.95,80.15,80.15,0,0,1,46.36-2.6c16.28,3.93,27.91,13.42,35.74,27.54,7.24,13.08,10.78,29.46,12.93,45.3.72,5.35,7.59,8.28,12.3,7,5.78-1.59,7.71-6.93,7-12.3Z" transform="translate(-181.47 -47.99)"/><path class="cls-25" d="M2656.62,2121.22c12.87,0,12.89-20,0-20s-12.89,20,0,20Z" transform="translate(-181.47 -47.99)"/><path class="cls-25" d="M2589.75,2025.89c-.18-.74-.32-1.48-.46-2.22s-.28-1.65-.42-2.47c-.1-.56-.17-1.13-.25-1.69.15,1,.22,2,.06.41a127.8,127.8,0,0,1-.64-20,72.13,72.13,0,0,1,4.84-22.78,52.86,52.86,0,0,1,15.79-21.07c4.2-3.41,3.55-10.6,0-14.14-4.14-4.15-9.94-3.42-14.14,0-25.42,20.69-31.28,58.6-24.07,89.23,2.95,12.52,22.24,7.22,19.29-5.32Z" transform="translate(-181.47 -47.99)"/><path class="cls-25" d="M2561.83,2567.07c12.73-15.86,24.4-32.72,31-52.15a97.59,97.59,0,0,0,3.13-49.94c-3.58-18.26-11.18-35.53-17.38-53s-10.31-35.32-10.34-53.94c0-34.52,18.21-64.29,48.28-80.81,14.6-8,30.28-13.06,46.58-16.28,17.74-3.51,35.9-5.65,53.21-11.08a98.1,98.1,0,0,0,43.59-27.55c14.19-15.69,23.24-34.93,30.7-54.53,2-5.31-2.23-11.52-7.33-12.92-5.91-1.62-10.89,2-12.92,7.33-11,28.79-27.31,56.5-57,66.56-16.87,5.71-34.75,7.94-52.18,11.23a191.77,191.77,0,0,0-49.59,16.15c-31.9,15.7-56.32,44.65-62.44,80.2-3.4,19.79-1.86,40.24,2.61,59.76,4,17.6,11.57,34.26,17.4,51.29s9.92,34.23,6.25,51.59c-4.22,20-15.79,37.52-28.4,53.23-3.54,4.42-4.32,10.53,0,14.85,3.67,3.67,11.28,4.44,14.85,0Z" transform="translate(-181.47 -47.99)"/><path class="cls-25" d="M2470.4,2508.52c11-28.79,27.31-56.5,57-66.55,16.87-5.72,34.74-7.95,52.18-11.24a191,191,0,0,0,49.59-16.15c31.9-15.7,56.32-44.65,62.44-80.19,3.4-19.79,1.86-40.25-2.61-59.76-4-17.6-11.57-34.26-17.4-51.3s-9.92-34.23-6.26-51.59c4.22-20,15.8-37.51,28.41-53.22,3.54-4.42,4.31-10.54,0-14.85-3.68-3.68-11.29-4.45-14.85,0-12.73,15.86-24.41,32.72-31,52.14a97.71,97.71,0,0,0-3.14,49.94c3.59,18.26,11.18,35.53,17.38,53s10.32,35.32,10.35,53.94c.05,34.53-18.21,64.3-48.28,80.82-14.61,8-30.28,13.06-46.58,16.28-17.75,3.5-35.91,5.65-53.22,11.08a98.14,98.14,0,0,0-43.58,27.54c-14.2,15.7-23.24,34.94-30.71,54.54-2,5.3,2.24,11.52,7.34,12.92,5.91,1.62,10.89-2,12.91-7.34Z" transform="translate(-181.47 -47.99)"/><line class="cls-26" x1="2471.99" y1="2117.95" x2="2568.94" y2="2173.48"/><line class="cls-26" x1="2476.28" y1="2157.78" x2="2532.42" y2="2189.94"/><line class="cls-26" x1="2457.68" y1="2212.61" x2="2494.54" y2="2233.72"/><line class="cls-26" x1="2415.26" y1="2229.43" x2="2501.49" y2="2278.82"/><line class="cls-26" x1="2391.36" y1="2258.74" x2="2488.31" y2="2314.27"/><line class="cls-26" x1="2377.87" y1="2293.07" x2="2465.51" y2="2343.27"/><line class="cls-26" x1="2382.3" y1="2337.67" x2="2424.8" y2="2362.01"/><line class="cls-26" x1="2349.83" y1="2384.55" x2="2400.8" y2="2413.74"/><line class="cls-26" x1="2310.72" y1="2399.52" x2="2407.67" y2="2455.05"/><line class="cls-26" x1="2488.11" y1="2089.81" x2="2585.06" y2="2145.34"/><line class="cls-26" x1="2294.6" y1="2427.67" x2="2391.55" y2="2483.19"/><path class="cls-25" d="M1525.85,2347.82c-9.65-27.65-24.56-53.81-48.48-76.58-52.1-49.63-48.36-69.25-49-100.38-.54-26.46-.6-50-10.52-67.55a82.46,82.46,0,0,0-73.77-45.62c-45.38,0-86.89,35.48-87.89,81.48,0,.13,0,.26,0,.39a71.12,71.12,0,0,1,57.78-30.07,64.65,64.65,0,0,1,57.86,35.77c7.78,13.79,7.83,32.23,8.26,53,.49,24.41-2.45,39.8,38.42,78.72,18.76,17.86,30.45,38.38,38,60.07,4.2,12,5.77,29.29,5.77,41.12a108,108,0,0,1-108,108c-39.14,0-72.6-20.87-91.52-52,16,59.6,68.35,103.83,132.69,103.83a137.71,137.71,0,0,0,137.71-137.7C1533.2,2385.17,1531.2,2363.17,1525.85,2347.82Z" transform="translate(-181.47 -47.99)"/><path class="cls-25" d="M1246.2,2001.17c3,1,10.68-1.28,17.83-.18,14.17,2.18,21.17,11.18,25.81,18.61,11.7,18.73,15.61,37.49,4.44,57.34-9,16,12.51,16.68,21.29,16.36a12.12,12.12,0,0,0,6.24-2l29.27-19.51a12,12,0,0,0,2.66-2.42l2-2.45c3.56-4.35,1.65,6.53-4.55,5.29-6.71-1.34-14.34-12.45-19-14-3.72-1.24-7.1-22.71-22-46.74-12-19.26-28.6-27.16-36.81-32.41a12.13,12.13,0,0,0-13.27.12C1253.52,1983.51,1237,1998.1,1246.2,2001.17Z" transform="translate(-181.47 -47.99)"/><path class="cls-25" d="M1380.36,1954.4c4.29-2.31,13.84-7.23,15.89-12.34,2-4.9,6-3.85,8.69-.58,10.26,12.69,12.4,34.27,11.26,49.69-2,27-23,52-42.52,57.24-9,2.41-19.48,1.76-23.57-1.24-5-3.68-17.61-19.12-13.34-40.64C1340.11,1989.67,1354.24,1968.53,1380.36,1954.4Z" transform="translate(-181.47 -47.99)"/></g></svg>